<svg width="210" height="182" viewBox="0 0 210 182" fill="none" xmlns="http://www.w3.org/2000/svg">
<path fill-rule="evenodd" clip-rule="evenodd" d="M188.209 116.758L159.881 89.1226L150.473 105.402L179.93 122.77C187.316 134.405 191.654 139.432 192.944 137.852C194.032 136.519 193.533 135.058 193.074 133.713C192.716 132.665 192.382 131.687 192.841 130.894C193.888 129.082 199.802 130.119 205.372 131.344C210.942 132.568 209.654 129.832 208.47 128.404C203.205 124.155 196.452 120.273 188.209 116.758ZM21.2352 156.908C24.1656 150.963 34.1452 93.02 34.1452 93.02L55.0425 93.1022C55.0425 93.1022 35.6878 155.583 34.1452 159.406C32.1412 164.372 35.5452 171.587 37.8533 176.48C38.2104 177.237 38.5413 177.938 38.8218 178.567C35.6191 180 34.0807 178.268 32.4587 176.442C30.6268 174.379 28.6883 172.197 24.1251 174.319C22.3622 175.14 20.6939 176.109 19.064 177.057C13.434 180.329 8.26202 183.336 1.22632 178.994C0.110823 178.306 -1.11148 175.715 1.84182 173.69C9.19963 168.645 19.8025 159.815 21.2352 156.908Z" fill="#B28B67"/>
<path fill-rule="evenodd" clip-rule="evenodd" d="M93.5322 5.33204L102.179 3.84888C117.067 41.0391 143.059 74.8311 180.155 105.225L152.123 139.281C115.031 96.0046 92.1672 51.3548 93.5322 5.33204Z" fill="#CC00FF"/>
<path fill-rule="evenodd" clip-rule="evenodd" d="M55.8372 114H132.837C132.837 114 106.078 48.9377 106.078 3.46073L82.8512 0C64.5971 29.3584 59.442 65.5045 55.8372 114Z" fill="white"/>
<path fill-rule="evenodd" clip-rule="evenodd" d="M20.8372 147C29.2581 51.9959 82.3412 0 82.3412 0L82.3592 0.0164189C82.3622 0.010945 82.3662 0.00547202 82.3692 0H83.8852C86.6062 0.0937097 92.1752 0.337673 92.1752 0.337673L97.7872 16.3769C98.6782 45.7102 108.188 134.606 108.188 134.606H57.7871C57.8728 138.682 58.0627 142.815 58.3678 147H20.8372Z" fill="#CC00FF"/>
<path fill-rule="evenodd" clip-rule="evenodd" d="M57.7957 135C57.3934 117.25 58.9681 100.584 61.5949 85.5018C62.9688 103.399 65.8402 124.933 71.8372 135H57.7957Z" fill="black" fill-opacity="0.1"/>
<path fill-rule="evenodd" clip-rule="evenodd" d="M68.9482 104L93.8372 92.4293V104H68.9482Z" fill="white" fill-opacity="0.2"/>
</svg>
