<svg width="310" height="240" viewBox="0 0 310 240" fill="none" xmlns="http://www.w3.org/2000/svg">
<path fill-rule="evenodd" clip-rule="evenodd" d="M130.264 0.137939L204.57 124.365L260.279 229.388H272.278L178.938 0.137939H130.264Z" fill="#997659"/>
<path fill-rule="evenodd" clip-rule="evenodd" d="M255.714 223.422C254.642 222.951 253.368 223.428 252.969 224.529C252.241 226.536 251.264 229.547 251.264 231.244C251.264 233.949 252.165 239.138 252.165 239.138C255.303 239.138 308.567 239.138 308.567 239.138C308.567 239.138 310.766 231.87 306.029 231.29C301.292 230.711 298.159 230.244 298.159 230.244L271.944 218.557C271.429 218.327 270.827 218.568 270.612 219.089L268.927 223.177C268.927 223.177 264.542 225.223 261.801 225.223C260.132 225.223 257.51 224.212 255.714 223.422Z" fill="white"/>
<path fill-rule="evenodd" clip-rule="evenodd" d="M244.807 212.571L267.947 205.571C267.947 205.571 252.74 160.109 230.669 105.512C208.599 50.9157 183.264 0.137939 183.264 0.137939H117.908C117.908 0.137939 146.075 64.3694 177.63 116.863C209.185 169.357 244.807 212.571 244.807 212.571Z" fill="#CC00FF"/>
<path fill-rule="evenodd" clip-rule="evenodd" d="M125.381 0.137939C118.368 43.7921 104.841 99.5654 103.565 101.287C102.714 102.434 72.0768 112.7 11.654 132.085L14.2459 142.666C86.3 132.27 124.266 124.204 128.145 118.469C133.963 109.866 163.013 41.901 174.264 0.137939H125.381Z" fill="#B28B67"/>
<path fill-rule="evenodd" clip-rule="evenodd" d="M32.8936 122.938L37.4591 139.98C91.3513 144.707 124.372 141.291 136.522 129.734C148.671 118.177 162.519 74.9779 178.063 0.137939H115.742C105.894 61.4218 100.388 93.35 99.2243 95.9227C98.0609 98.4953 75.9506 107.501 32.8936 122.938Z" fill="#CC00FF"/>
<path fill-rule="evenodd" clip-rule="evenodd" d="M16.1951 130.212C16.4734 129.075 15.7822 127.903 14.6288 127.701C12.5251 127.333 9.39086 126.894 7.71968 127.188C5.05584 127.658 0.101776 129.447 0.101776 129.447C0.646667 132.537 9.89586 184.992 9.89586 184.992C9.89586 184.992 17.4355 185.895 17.1837 181.129C16.9319 176.364 16.8478 173.197 16.8478 173.197L23.8048 145.351C23.9414 144.805 23.5997 144.253 23.0494 144.132L18.7313 143.182C18.7313 143.182 15.955 139.219 15.479 136.519C15.1891 134.876 15.7286 132.118 16.1951 130.212Z" fill="white"/>
</svg>
