<svg width="221" height="192" viewBox="0 0 221 192" fill="none" xmlns="http://www.w3.org/2000/svg">
<path d="M29.4884 2.02546H30.4884V1.02546H29.4884V2.02546ZM29.4884 44.864V45.864H30.4884V44.864H29.4884ZM24.6096 44.864H23.6096V45.864H24.6096V44.864ZM24.6096 39.8067H25.6096V36.4333L23.7712 39.2617L24.6096 39.8067ZM20.3852 43.9715L19.8305 43.1394L19.8219 43.1453L20.3852 43.9715ZM7.41469 43.8525L6.88608 44.7015L6.89782 44.7086L7.41469 43.8525ZM2.35736 38.4382L1.47535 38.9096L1.48178 38.9213L2.35736 38.4382ZM2.35736 21.9573L1.47493 21.4866L1.46893 21.4983L2.35736 21.9573ZM7.53368 16.4835L8.03662 17.3479L8.04818 17.341L7.53368 16.4835ZM20.0283 15.7695L19.5975 16.672L19.6097 16.6778L19.6221 16.6833L20.0283 15.7695ZM24.6096 19.1014L23.8622 19.7657L25.6096 21.7316V19.1014H24.6096ZM24.6096 2.02546V1.02546H23.6096V2.02546H24.6096ZM10.2706 21.0053L10.8353 21.8306L10.8426 21.8256L10.8498 21.8205L10.2706 21.0053ZM6.76021 25.0512L5.86578 24.604L5.86148 24.6126L5.85735 24.6212L6.76021 25.0512ZM6.76021 35.7608L5.8614 36.1993L5.86578 36.208L6.76021 35.7608ZM10.0921 39.5687L9.53735 40.4008L9.54791 40.4076L10.0921 39.5687ZM23.4196 35.6418L24.3141 36.089L24.3182 36.0806L23.4196 35.6418ZM24.6096 29.93L23.6096 29.9404L23.6098 29.9489L24.6096 29.93ZM24.5501 24.2182L25.5501 24.2078L25.5465 23.8646L25.3329 23.596L24.5501 24.2182ZM20.5637 20.6483L20.0492 21.5059L20.0599 21.5121L20.5637 20.6483ZM28.4884 2.02546V44.864H30.4884V2.02546H28.4884ZM29.4884 43.864H24.6096V45.864H29.4884V43.864ZM25.6096 44.864V39.8067H23.6096V44.864H25.6096ZM23.7712 39.2617C22.8232 40.72 21.5175 42.0149 19.8305 43.1395L20.9399 44.8036C22.8229 43.5483 24.3334 42.0665 25.448 40.3517L23.7712 39.2617ZM19.8219 43.1453C18.2546 44.2139 16.4508 44.7565 14.376 44.7565V46.7565C16.823 46.7565 19.0254 46.109 20.9486 44.7978L19.8219 43.1453ZM14.376 44.7565C12.0131 44.7565 9.87243 44.1683 7.93156 42.9965L6.89782 44.7086C9.16147 46.0753 11.6616 46.7565 14.376 46.7565V44.7565ZM7.94325 43.0036C5.99489 41.7905 4.42491 40.1156 3.23294 37.9551L1.48178 38.9213C2.82839 41.362 4.62996 43.2966 6.88613 44.7014L7.94325 43.0036ZM3.23929 37.9668C2.09847 35.8324 1.51292 33.3414 1.51292 30.4655H-0.487076C-0.487076 33.6187 0.156997 36.4429 1.47543 38.9096L3.23929 37.9668ZM1.51292 30.4655C1.51292 27.297 2.10439 24.6254 3.24579 22.4163L1.46893 21.4983C0.151079 24.0489 -0.487076 27.0496 -0.487076 30.4655H1.51292ZM3.23971 22.4279C4.42781 20.2002 6.02671 18.5172 8.03658 17.3478L7.03079 15.6191C4.67747 16.9883 2.82549 18.9545 1.47501 21.4867L3.23971 22.4279ZM8.04818 17.341C10.0649 16.1309 12.3246 15.52 14.8519 15.52V13.52C11.9848 13.52 9.36565 14.2181 7.01919 15.626L8.04818 17.341ZM14.8519 15.52C16.3897 15.52 17.9687 15.8946 19.5975 16.672L20.459 14.867C18.5973 13.9785 16.7254 13.52 14.8519 13.52V15.52ZM19.6221 16.6833C21.2798 17.4201 22.6897 18.4467 23.8622 19.7657L25.357 18.437C23.9909 16.9001 22.3466 15.7055 20.4344 14.8557L19.6221 16.6833ZM25.6096 19.1014V2.02546H23.6096V19.1014H25.6096ZM24.6096 3.02546H29.4884V1.02546H24.6096V3.02546ZM15.7444 18.3989C13.4289 18.3989 11.3936 18.9807 9.69138 20.1901L10.8498 21.8205C12.1621 20.888 13.7761 20.3989 15.7444 20.3989V18.3989ZM9.70591 20.18C8.05549 21.3092 6.77318 22.7892 5.86578 24.604L7.65464 25.4984C8.41318 23.9813 9.47113 22.764 10.8353 21.8306L9.70591 20.18ZM5.85735 24.6212C4.99669 26.4286 4.57025 28.3813 4.57025 30.4655H6.57025C6.57025 28.6625 6.93712 27.0056 7.66307 25.4811L5.85735 24.6212ZM4.57025 30.4655C4.57025 32.5132 4.99805 34.4293 5.86144 36.1992L7.65898 35.3224C6.93576 33.8398 6.57025 32.2256 6.57025 30.4655H4.57025ZM5.86578 36.208C6.73419 37.9448 7.95965 39.3489 9.5374 40.4007L10.6468 38.7366C9.36864 37.8845 8.37285 36.75 7.65464 35.3136L5.86578 36.208ZM9.54791 40.4076C11.1919 41.474 13.0701 41.9966 15.1494 41.9966V39.9966C13.4209 39.9966 11.9276 39.5673 10.6363 38.7297L9.54791 40.4076ZM15.1494 41.9966C17.1583 41.9966 18.9802 41.4693 20.583 40.4007L19.4736 38.7366C18.2205 39.572 16.7897 39.9966 15.1494 39.9966V41.9966ZM20.583 40.4007C22.1679 39.3441 23.4101 37.8969 24.3141 36.089L22.5252 35.1946C21.7632 36.7186 20.7445 37.8893 19.4736 38.7366L20.583 40.4007ZM24.3182 36.0806C25.2279 34.2179 25.6518 32.1545 25.6094 29.9111L23.6098 29.9489C23.6468 31.91 23.2773 33.6546 22.5211 35.203L24.3182 36.0806ZM25.6095 29.9196L25.5501 24.2078L23.5502 24.2286L23.6097 29.9404L25.6095 29.9196ZM25.3329 23.596C24.0408 21.9704 22.6214 20.6909 21.0676 19.7845L20.0599 21.5121C21.362 22.2717 22.6001 23.3721 23.7673 24.8404L25.3329 23.596ZM21.0782 19.7908C19.5155 18.8532 17.7267 18.3989 15.7444 18.3989V20.3989C17.4113 20.3989 18.8354 20.7775 20.0492 21.5058L21.0782 19.7908ZM63.9973 21.6003L63.0869 22.0141L63.09 22.0209L63.0932 22.0277L63.9973 21.6003ZM65.5442 31.8934V32.8934H66.5442V31.8934H65.5442ZM42.697 31.8934V30.8934H41.544L41.707 32.0349L42.697 31.8934ZM44.4224 36.4748L43.5867 37.024L44.4224 36.4748ZM47.9923 39.8067L47.4987 40.6764L47.5077 40.6815L47.5168 40.6864L47.9923 39.8067ZM59.0589 39.3902L59.5571 40.2573L59.5639 40.2533L59.5707 40.2493L59.0589 39.3902ZM63.7593 35.7608L64.7592 35.772L64.7874 33.2641L63.0414 35.0647L63.7593 35.7608ZM63.6998 41.0561L64.4717 41.6918L64.6957 41.4198L64.6997 41.0674L63.6998 41.0561ZM61.2009 43.1981L61.7556 44.0301L61.7624 44.0255L61.2009 43.1981ZM57.4525 44.983L57.1363 44.0343L57.1202 44.0397L57.1043 44.0456L57.4525 44.983ZM39.4841 37.9622L38.6079 38.4442L38.6127 38.4529L38.6177 38.4615L39.4841 37.9622ZM39.3651 22.3738L38.4767 21.9147L39.3651 22.3738ZM44.4224 16.662L43.8748 15.8252L43.8677 15.8299L44.4224 16.662ZM45.7909 21.7788L46.5067 22.4772L46.515 22.4684L45.7909 21.7788ZM42.816 27.7286L41.83 27.5615L41.6322 28.7286H42.816V27.7286ZM60.7249 27.7286V28.7286H61.8321L61.7197 27.6271L60.7249 27.7286ZM59.0589 22.9687L58.2434 23.5475L58.2495 23.5561L58.2558 23.5646L59.0589 22.9687ZM55.846 20.2318L55.3988 21.1263L55.4101 21.1319L55.4216 21.1373L55.846 20.2318ZM51.8597 15.52C54.7777 15.52 57.1191 16.126 58.9439 17.271L60.0069 15.5769C57.7859 14.1833 55.0501 13.52 51.8597 13.52V15.52ZM58.9439 17.271C60.8002 18.4358 62.1761 20.0103 63.0869 22.0141L64.9076 21.1865C63.8352 18.8271 62.1965 16.9507 60.0069 15.5769L58.9439 17.271ZM63.0932 22.0277C64.0533 24.0588 64.5442 26.369 64.5442 28.978H66.5442C66.5442 26.1132 66.0038 23.505 64.9013 21.1729L63.0932 22.0277ZM64.5442 28.978V31.8934H66.5442V28.978H64.5442ZM65.5442 30.8934H42.697V32.8934H65.5442V30.8934ZM41.707 32.0349C41.9656 33.8445 42.5926 35.5111 43.5867 37.024L45.2581 35.9256C44.4277 34.6619 43.9044 33.2743 43.6869 31.752L41.707 32.0349ZM43.5867 37.024C44.5875 38.5468 45.8955 39.7665 47.4987 40.6764L48.4859 38.937C47.1538 38.1809 46.082 37.1793 45.2581 35.9256L43.5867 37.024ZM47.5168 40.6864C49.15 41.5692 51.0034 41.9966 53.0496 41.9966V39.9966C51.288 39.9966 49.7699 39.6308 48.4678 38.927L47.5168 40.6864ZM53.0496 41.9966C55.3671 41.9966 57.5418 41.415 59.5571 40.2573L58.5608 38.5231C56.8475 39.5073 55.0161 39.9966 53.0496 39.9966V41.9966ZM59.5707 40.2493C61.4967 39.1019 63.1363 37.8397 64.4772 36.457L63.0414 35.0647C61.8436 36.2998 60.3497 37.4572 58.5471 38.5311L59.5707 40.2493ZM62.7593 35.7496L62.6998 41.0449L64.6997 41.0674L64.7592 35.772L62.7593 35.7496ZM62.9278 40.4204C62.4564 40.9928 61.7085 41.6451 60.6394 42.3706L61.7624 44.0255C62.9144 43.2438 63.8325 42.4681 64.4717 41.6918L62.9278 40.4204ZM60.6462 42.366C59.6604 43.0232 58.4938 43.5818 57.1363 44.0343L57.7687 45.9317C59.2671 45.4322 60.5994 44.8009 61.7556 44.0301L60.6462 42.366ZM57.1043 44.0456C55.8324 44.518 54.4831 44.7565 53.0496 44.7565V46.7565C54.7101 46.7565 56.296 46.4793 57.8007 45.9204L57.1043 44.0456ZM53.0496 44.7565C50.1999 44.7565 47.7063 44.0837 45.5383 42.7609L44.4965 44.4682C47.0091 46.0012 49.8702 46.7565 53.0496 46.7565V44.7565ZM45.5383 42.7609C43.3388 41.4189 41.6142 39.6557 40.3505 37.4629L38.6177 38.4615C40.0513 40.9492 42.0155 42.9543 44.4965 44.4682L45.5383 42.7609ZM40.3603 37.4803C39.1356 35.2536 38.5207 32.8222 38.5207 30.168H36.5207C36.5207 33.1463 37.2147 35.911 38.6079 38.4442L40.3603 37.4803ZM38.5207 30.168C38.5207 27.503 39.101 25.0635 40.2535 22.8328L38.4767 21.9147C37.17 24.4439 36.5207 27.2005 36.5207 30.168H38.5207ZM40.2535 22.8328C41.4086 20.5971 42.9821 18.824 44.9771 17.494L43.8677 15.8299C41.5789 17.3558 39.7808 19.3906 38.4767 21.9147L40.2535 22.8328ZM44.9701 17.4987C46.9782 16.1843 49.2644 15.52 51.8597 15.52V13.52C48.9018 13.52 46.2299 14.2837 43.8748 15.8253L44.9701 17.4987ZM51.8597 18.2799C49.1478 18.2799 46.8562 19.2103 45.0667 21.0891L46.515 22.4684C47.8988 21.0154 49.653 20.2799 51.8597 20.2799V18.2799ZM45.0751 21.0805C43.34 22.859 42.2591 25.0303 41.83 27.5615L43.8019 27.8957C44.1662 25.7463 45.0686 23.9511 46.5067 22.4771L45.0751 21.0805ZM42.816 28.7286H60.7249V26.7286H42.816V28.7286ZM61.7197 27.6271C61.5081 25.5531 60.9074 23.7818 59.862 22.3729L58.2558 23.5646C59.0351 24.6149 59.545 26.0169 59.73 27.8301L61.7197 27.6271ZM59.8744 22.39C58.9096 21.0305 57.7079 20.0002 56.2705 19.3264L55.4216 21.1373C56.5227 21.6535 57.4629 22.4477 58.2434 23.5475L59.8744 22.39ZM56.2933 19.3374C54.8883 18.6349 53.4067 18.2799 51.8597 18.2799V20.2799C53.0892 20.2799 54.2652 20.5594 55.3988 21.1263L56.2933 19.3374ZM87.3205 15.2935L86.9968 16.2397L87.008 16.2435L87.0193 16.2471L87.3205 15.2935ZM90.5929 16.781H91.5929V16.2868L91.2003 15.9866L90.5929 16.781ZM90.5929 22.0168L89.9868 22.8122L91.5929 24.0359V22.0168H90.5929ZM78.5743 20.5888L77.8985 19.8517L77.8907 19.8588L77.883 19.8662L78.5743 20.5888ZM77.9793 25.6462L77.1408 26.1911L77.1568 26.2157L77.1742 26.2394L77.9793 25.6462ZM80.8352 27.4906L81.1715 26.5488L81.168 26.5476L80.8352 27.4906ZM85.833 29.2755L85.4967 30.2173L85.5052 30.2203L85.833 29.2755ZM90.1764 41.2346L89.3516 40.6691L89.3461 40.6772L89.3407 40.6854L90.1764 41.2346ZM86.309 44.5665L86.7474 45.4653L86.7562 45.4609L86.309 44.5665ZM77.0273 45.2805L77.2699 44.3103L77.2587 44.3076L77.2476 44.305L77.0273 45.2805ZM73.6954 44.269L73.2927 45.1843L73.3083 45.1912L73.324 45.1975L73.6954 44.269ZM71.494 43.1386H70.494V43.6737L70.9393 43.9706L71.494 43.1386ZM71.494 37.9027L72.0752 37.089L70.494 35.9595V37.9027H71.494ZM73.8144 39.2712L73.3531 40.1584L73.374 40.1693L73.3954 40.1791L73.8144 39.2712ZM77.0868 40.5206L76.7904 41.4757L76.8056 41.4804L76.8209 41.4846L77.0868 40.5206ZM84.7026 39.7472L84.1026 38.9472L84.0955 38.9524L84.0886 38.9578L84.7026 39.7472ZM85.238 34.3924L84.6241 35.1817L84.6344 35.1897L84.6448 35.1974L85.238 34.3924ZM82.0846 32.7859L82.4328 31.8485L82.4274 31.8465L82.0846 32.7859ZM77.6818 31.1795L77.3271 32.1145L77.339 32.1189L77.6818 31.1795ZM73.1004 27.9071L72.2274 28.3949L72.2338 28.406L73.1004 27.9071ZM82.4416 15.52C84.0873 15.52 85.6032 15.7629 86.9968 16.2397L87.6442 14.3473C86.0232 13.7928 84.2865 13.52 82.4416 13.52V15.52ZM87.0193 16.2471C88.4943 16.7129 89.4513 17.1669 89.9854 17.5753L91.2003 15.9866C90.3857 15.3637 89.1612 14.8261 87.6216 14.3399L87.0193 16.2471ZM89.5929 16.781V22.0168H91.5929V16.781H89.5929ZM91.1989 21.2213C90.2739 20.5166 89.0592 19.8631 87.5861 19.2493L86.8169 21.0954C88.1996 21.6716 89.2459 22.2477 89.9868 22.8122L91.1989 21.2213ZM87.5861 19.2493C86.0395 18.6049 84.4414 18.2799 82.7986 18.2799V20.2799C84.1704 20.2799 85.5075 20.5498 86.8169 21.0954L87.5861 19.2493ZM82.7986 18.2799C80.7941 18.2799 79.1025 18.7481 77.8985 19.8517L79.25 21.326C79.95 20.6843 81.0746 20.2799 82.7986 20.2799V18.2799ZM77.883 19.8662C76.8406 20.8633 76.2058 22.0202 76.2058 23.3257H78.2058C78.2058 22.7273 78.4834 22.0596 79.2655 21.3115L77.883 19.8662ZM76.2058 23.3257C76.2058 24.3169 76.5466 25.277 77.1408 26.1911L78.8177 25.1012C78.3806 24.4287 78.2058 23.8419 78.2058 23.3257H76.2058ZM77.1742 26.2394C77.8958 27.2187 79.0579 27.9238 80.5024 28.4336L81.168 26.5476C79.9152 26.1054 79.1734 25.5809 78.7843 25.053L77.1742 26.2394ZM80.4988 28.4323L85.4967 30.2173L86.1694 28.3338L81.1715 26.5488L80.4988 28.4323ZM85.5052 30.2203C87.3159 30.8485 88.5748 31.7222 89.3764 32.7909L90.9764 31.5909C89.874 30.1211 88.2373 29.0512 86.1608 28.3308L85.5052 30.2203ZM89.3764 32.7909C90.1885 33.8738 90.6043 35.1468 90.6043 36.6533H92.6043C92.6043 34.7485 92.0681 33.0466 90.9764 31.5909L89.3764 32.7909ZM90.6043 36.6533C90.6043 38.1151 90.1907 39.4454 89.3516 40.6691L91.0011 41.8002C92.066 40.2472 92.6043 38.5233 92.6043 36.6533H90.6043ZM89.3407 40.6854C88.5365 41.9092 87.3896 42.9082 85.8618 43.6721L86.7562 45.4609C88.5603 44.5589 89.9916 43.3366 91.0121 41.7838L89.3407 40.6854ZM85.8706 43.6677C84.4037 44.3833 82.6744 44.7565 80.6567 44.7565V46.7565C82.9229 46.7565 84.9617 46.3364 86.7474 45.4653L85.8706 43.6677ZM80.6567 44.7565C79.5984 44.7565 78.4705 44.6105 77.2699 44.3103L76.7848 46.2506C78.1227 46.5851 79.4143 46.7565 80.6567 46.7565V44.7565ZM77.2476 44.305C76.0606 44.037 75.0016 43.7144 74.0668 43.3405L73.324 45.1975C74.3725 45.6169 75.5348 45.9686 76.8071 46.2559L77.2476 44.305ZM74.0982 43.3537C73.1215 42.924 72.4513 42.5749 72.0487 42.3065L70.9393 43.9706C71.4887 44.3369 72.2861 44.7414 73.2927 45.1843L74.0982 43.3537ZM72.494 43.1386V37.9027H70.494V43.1386H72.494ZM70.9128 38.7165C71.5226 39.152 72.3425 39.6329 73.3531 40.1584L74.2758 38.384C73.3031 37.8782 72.5761 37.4467 72.0752 37.089L70.9128 38.7165ZM73.3954 40.1791C74.4688 40.6746 75.6007 41.1065 76.7904 41.4757L77.3832 39.5656C76.2723 39.2208 75.2227 38.8198 74.2335 38.3632L73.3954 40.1791ZM76.8209 41.4846C78.0408 41.8212 79.2022 41.9966 80.2997 41.9966V39.9966C79.414 39.9966 78.4334 39.8548 77.3527 39.5567L76.8209 41.4846ZM80.2997 41.9966C82.3043 41.9966 84.0147 41.5491 85.3165 40.5365L84.0886 38.9578C83.2485 39.6112 82.0237 39.9966 80.2997 39.9966V41.9966ZM85.3026 40.5472C86.6278 39.5533 87.3685 38.2414 87.3685 36.6533H85.3685C85.3685 37.5244 84.9986 38.2751 84.1026 38.9472L85.3026 40.5472ZM87.3685 36.6533C87.3685 35.3899 86.8457 34.3348 85.8312 33.5873L84.6448 35.1974C85.1376 35.5605 85.3685 36.0127 85.3685 36.6533H87.3685ZM85.852 33.603C85.0227 32.958 83.8641 32.3801 82.4328 31.8485L81.7365 33.7233C83.0818 34.223 84.0254 34.7161 84.6241 35.1817L85.852 33.603ZM82.4274 31.8465L78.0246 30.24L77.339 32.1189L81.7419 33.7253L82.4274 31.8465ZM78.0364 30.2445C75.8256 29.4059 74.5526 28.425 73.9671 27.4081L72.2338 28.406C73.1556 30.007 74.9368 31.2078 77.3271 32.1145L78.0364 30.2445ZM73.9734 27.4193C73.3115 26.2348 72.97 24.8787 72.97 23.3257H70.97C70.97 25.184 71.3821 26.8821 72.2275 28.3949L73.9734 27.4193ZM72.97 23.3257C72.97 21.0744 73.7983 19.2468 75.4844 17.7715L74.1674 16.2664C72.0456 18.123 70.97 20.4999 70.97 23.3257H72.97ZM75.4844 17.7715C77.1632 16.3026 79.4469 15.52 82.4416 15.52V13.52C79.0899 13.52 76.2964 14.4034 74.1674 16.2664L75.4844 17.7715ZM106.657 2.08495L105.916 2.75587L105.933 2.77439L105.95 2.79206L106.657 2.08495ZM106.657 7.67776L105.933 6.98811L105.924 6.99737L105.916 7.00685L106.657 7.67776ZM100.886 7.67776L100.144 8.34868L100.153 8.35816L100.162 8.36742L100.886 7.67776ZM100.886 2.08495L100.162 1.3953L100.161 1.39621L100.886 2.08495ZM106.836 15.115H107.836V14.115H106.836V15.115ZM106.836 44.864V45.864H107.836V44.864H106.836ZM101.957 44.864H100.957V45.864H101.957V44.864ZM101.957 19.6964H102.957V18.6964H101.957V19.6964ZM97.2566 19.6964H96.2566V20.6964H97.2566V19.6964ZM97.2566 15.115V14.115H96.2566V15.115H97.2566ZM103.801 1.8355C104.677 1.8355 105.357 2.1381 105.916 2.75587L107.399 1.41404C106.45 0.365868 105.227 -0.164503 103.801 -0.164503V1.8355ZM105.95 2.79206C106.566 3.40776 106.847 4.08934 106.847 4.88136H108.847C108.847 3.53145 108.335 2.34876 107.364 1.37785L105.95 2.79206ZM106.847 4.88136C106.847 5.62541 106.572 6.31778 105.933 6.98811L107.381 8.36742C108.33 7.37181 108.847 6.1999 108.847 4.88136H106.847ZM105.916 7.00685C105.357 7.62462 104.677 7.92722 103.801 7.92722V9.92722C105.227 9.92722 106.45 9.39685 107.399 8.34868L105.916 7.00685ZM103.801 7.92722C102.925 7.92722 102.215 7.6229 101.61 6.98811L100.162 8.36742C101.144 9.39857 102.377 9.92722 103.801 9.92722V7.92722ZM101.628 7.00685C101.024 6.33994 100.756 5.64171 100.756 4.88136H98.7555C98.7555 6.18361 99.2406 7.34964 100.144 8.34868L101.628 7.00685ZM100.756 4.88136C100.756 4.07286 101.03 3.38565 101.611 2.7737L100.161 1.39621C99.2351 2.37087 98.7555 3.54793 98.7555 4.88136H100.756ZM101.61 2.77461C102.215 2.13982 102.925 1.8355 103.801 1.8355V-0.164503C102.377 -0.164503 101.144 0.364148 100.162 1.3953L101.61 2.77461ZM105.836 15.115V44.864H107.836V15.115H105.836ZM106.836 43.864H101.957V45.864H106.836V43.864ZM102.957 44.864V19.6964H100.957V44.864H102.957ZM101.957 18.6964H97.2566V20.6964H101.957V18.6964ZM98.2566 19.6964V15.115H96.2566V19.6964H98.2566ZM97.2566 16.115H106.836V14.115H97.2566V16.115ZM134.8 15.7695L134.369 16.672L134.381 16.6778L134.394 16.6833L134.8 15.7695ZM139.381 19.1014L138.634 19.7657L140.381 21.7316V19.1014H139.381ZM139.381 15.115V14.115H138.381V15.115H139.381ZM144.26 15.115H145.26V14.115H144.26V15.115ZM142.118 53.0747L141.264 52.5539L142.118 53.0747ZM123.912 59.3815L124.228 58.4328L124.219 58.4298L124.21 58.427L123.912 59.3815ZM120.639 57.8346L121.21 57.0137L121.198 57.0051L121.186 56.9969L120.639 57.8346ZM118.14 56.1091H117.14V56.6144L117.547 56.9142L118.14 56.1091ZM118.14 50.8733L118.732 50.0669L117.14 48.8999V50.8733H118.14ZM120.461 52.5392L121.045 51.7277L121.039 51.7232L120.461 52.5392ZM123.971 54.4432L123.59 55.3679L123.6 55.3716L123.971 54.4432ZM139.381 39.8067H140.381V36.4333L138.543 39.2617L139.381 39.8067ZM135.157 43.9715L134.602 43.1394L134.594 43.1453L135.157 43.9715ZM122.186 43.8525L121.658 44.7015L121.669 44.7086L122.186 43.8525ZM117.129 38.4382L116.247 38.9096L116.253 38.9213L117.129 38.4382ZM117.129 21.9573L116.247 21.4866L116.241 21.4983L117.129 21.9573ZM122.305 16.4835L122.808 17.3479L122.82 17.341L122.305 16.4835ZM125.042 20.9458L125.607 21.7711L125.614 21.7661L125.621 21.761L125.042 20.9458ZM121.532 25.0512L120.633 24.6123L120.629 24.6212L121.532 25.0512ZM124.864 39.5092L124.309 40.3413L124.319 40.3481L124.864 39.5092ZM139.381 29.93L138.381 29.9404L138.381 29.9489L139.381 29.93ZM139.322 24.2182L140.322 24.2078L140.318 23.8646L140.105 23.596L139.322 24.2182ZM135.335 20.6483L134.803 21.495L134.817 21.5038L134.831 21.5121L135.335 20.6483ZM129.624 15.52C131.161 15.52 132.74 15.8946 134.369 16.672L135.231 14.867C133.369 13.9785 131.497 13.52 129.624 13.52V15.52ZM134.394 16.6833C136.051 17.4201 137.461 18.4467 138.634 19.7657L140.129 18.437C138.762 16.9001 137.118 15.7055 135.206 14.8557L134.394 16.6833ZM140.381 19.1014V15.115H138.381V19.1014H140.381ZM139.381 16.115H144.26V14.115H139.381V16.115ZM143.26 15.115V44.269H145.26V15.115H143.26ZM143.26 44.269C143.26 47.6674 142.573 50.4096 141.264 52.5539L142.972 53.5956C144.519 51.0593 145.26 47.931 145.26 44.269H143.26ZM141.264 52.5539C139.933 54.7365 138.171 56.3468 135.971 57.4102L136.841 59.2109C139.401 57.9737 141.448 56.0935 142.972 53.5956L141.264 52.5539ZM135.971 57.4102C133.736 58.4907 131.288 59.036 128.612 59.036V61.036C131.569 61.036 134.317 60.431 136.841 59.2109L135.971 57.4102ZM128.612 59.036C126.862 59.036 125.408 58.8262 124.228 58.4328L123.595 60.3302C125.033 60.8094 126.713 61.036 128.612 61.036V59.036ZM124.21 58.427C123.019 58.055 122.025 57.58 121.21 57.0137L120.068 58.6555C121.079 59.3584 122.265 59.9147 123.613 60.336L124.21 58.427ZM121.186 56.9969C120.287 56.4107 119.47 55.8464 118.734 55.3041L117.547 56.9142C118.318 57.4824 119.167 58.0684 120.093 58.6722L121.186 56.9969ZM119.14 56.1091V50.8733H117.14V56.1091H119.14ZM117.549 51.6797C118.15 52.1206 118.929 52.6794 119.883 53.3553L121.039 51.7232C120.089 51.0505 119.321 50.4987 118.732 50.0669L117.549 51.6797ZM119.877 53.3508C120.942 54.118 122.183 54.7884 123.59 55.3679L124.352 53.5185C123.062 52.9873 121.963 52.3884 121.045 51.7277L119.877 53.3508ZM123.6 55.3716C125.122 55.9804 126.797 56.2761 128.612 56.2761V54.2761C127.016 54.2761 125.597 54.0166 124.343 53.5147L123.6 55.3716ZM128.612 56.2761C130.681 56.2761 132.604 55.8955 134.369 55.1208L133.565 53.2895C132.077 53.9428 130.43 54.2761 128.612 54.2761V56.2761ZM134.369 55.1208C136.153 54.3376 137.607 53.174 138.707 51.633L137.08 50.4705C136.197 51.7062 135.033 52.6448 133.565 53.2895L134.369 55.1208ZM138.707 51.633C139.837 50.0522 140.381 48.1758 140.381 46.054H138.381C138.381 47.8193 137.934 49.2748 137.08 50.4705L138.707 51.633ZM140.381 46.054V39.8067H138.381V46.054H140.381ZM138.543 39.2617C137.595 40.72 136.289 42.0149 134.602 43.1395L135.712 44.8036C137.595 43.5483 139.105 42.0665 140.22 40.3517L138.543 39.2617ZM134.594 43.1453C133.026 44.2139 131.222 44.7565 129.148 44.7565V46.7565C131.595 46.7565 133.797 46.109 135.72 44.7978L134.594 43.1453ZM129.148 44.7565C126.785 44.7565 124.644 44.1683 122.703 42.9965L121.669 44.7086C123.933 46.0753 126.433 46.7565 129.148 46.7565V44.7565ZM122.715 43.0036C120.766 41.7905 119.197 40.1156 118.005 37.9551L116.253 38.9213C117.6 41.362 119.402 43.2966 121.658 44.7014L122.715 43.0036ZM118.011 37.9668C116.87 35.8324 116.285 33.3414 116.285 30.4655H114.285C114.285 33.6187 114.929 36.4429 116.247 38.9096L118.011 37.9668ZM116.285 30.4655C116.285 27.297 116.876 24.6254 118.017 22.4163L116.241 21.4983C114.923 24.0489 114.285 27.0496 114.285 30.4655H116.285ZM118.011 22.4279C119.199 20.2002 120.798 18.5172 122.808 17.3478L121.802 15.6191C119.449 16.9883 117.597 18.9545 116.247 21.4867L118.011 22.4279ZM122.82 17.341C124.836 16.1309 127.096 15.52 129.624 15.52V13.52C126.756 13.52 124.137 14.2181 121.791 15.626L122.82 17.341ZM130.516 18.3394C128.2 18.3394 126.165 18.9212 124.463 20.1306L125.621 21.761C126.934 20.8285 128.548 20.3394 130.516 20.3394V18.3394ZM124.477 20.1205C122.822 21.2535 121.539 22.7575 120.633 24.6123L122.43 25.49C123.19 23.9336 124.248 22.7007 125.607 21.7711L124.477 20.1205ZM120.629 24.6212C119.768 26.4286 119.342 28.3813 119.342 30.4655H121.342C121.342 28.6625 121.709 27.0056 122.435 25.4811L120.629 24.6212ZM119.342 30.4655C119.342 32.513 119.77 34.413 120.637 36.1485L122.426 35.2541C121.707 33.8164 121.342 32.2258 121.342 30.4655H119.342ZM120.637 36.1485C121.506 37.8853 122.731 39.2894 124.309 40.3412L125.418 38.6771C124.14 37.825 123.144 36.6905 122.426 35.2541L120.637 36.1485ZM124.319 40.3481C125.963 41.4145 127.842 41.9371 129.921 41.9371V39.9371C128.192 39.9371 126.699 39.5078 125.408 38.6702L124.319 40.3481ZM129.921 41.9371C131.93 41.9371 133.752 41.4098 135.355 40.3412L134.245 38.6771C132.992 39.5125 131.561 39.9371 129.921 39.9371V41.9371ZM135.355 40.3412C136.94 39.2846 138.182 37.8374 139.086 36.0295L137.297 35.1351C136.535 36.6591 135.516 37.8298 134.245 38.6771L135.355 40.3412ZM139.086 36.0295C140 34.2013 140.423 32.1539 140.381 29.9111L138.381 29.9489C138.418 31.9106 138.049 33.6315 137.297 35.1351L139.086 36.0295ZM140.381 29.9196L140.322 24.2078L138.322 24.2286L138.381 29.9404L140.381 29.9196ZM140.105 23.596C138.812 21.9704 137.393 20.6909 135.839 19.7845L134.831 21.5121C136.134 22.2717 137.372 23.3721 138.539 24.8404L140.105 23.596ZM135.868 19.8017C134.302 18.8178 132.507 18.3394 130.516 18.3394V20.3394C132.174 20.3394 133.592 20.7336 134.803 21.495L135.868 19.8017ZM159.254 15.115H160.254V14.115H159.254V15.115ZM159.254 19.8154H158.254V22.6661L160.034 20.44L159.254 19.8154ZM161.693 17.4354L162.318 18.2163L162.327 18.2088L162.336 18.2011L161.693 17.4354ZM165.025 15.353L164.624 14.4368L164.613 14.4416L165.025 15.353ZM174.485 15.8885L174.005 16.7656L174.013 16.77L174.021 16.7743L174.485 15.8885ZM178.471 19.9343L177.593 20.4119L177.597 20.42L178.471 19.9343ZM179.959 44.864V45.864H180.959V44.864H179.959ZM175.08 44.864L174.08 44.8674L174.083 45.864H175.08V44.864ZM175.02 27.1931L174.02 27.1931L174.02 27.1965L175.02 27.1931ZM173.295 21.3028L172.523 21.9385L172.529 21.9452L172.534 21.9517L173.295 21.3028ZM163.359 21.0648L163.956 21.8673L163.959 21.8648L163.359 21.0648ZM159.254 25.1107L158.461 24.501L158.254 24.7705V25.1107H159.254ZM159.254 44.864V45.864H160.254V44.864H159.254ZM154.375 44.864H153.375V45.864H154.375V44.864ZM154.375 15.115V14.115H153.375V15.115H154.375ZM158.254 15.115V19.8154H160.254V15.115H158.254ZM160.034 20.44C160.613 19.7166 161.37 18.9744 162.318 18.2163L161.068 16.6546C160.033 17.4831 159.163 18.3275 158.473 19.1907L160.034 20.44ZM162.336 18.2011C163.255 17.4295 164.287 16.7836 165.436 16.2644L164.613 14.4416C163.304 15.0331 162.114 15.7754 161.05 16.6697L162.336 18.2011ZM165.426 16.2692C166.572 15.7676 167.745 15.52 168.952 15.52V13.52C167.461 13.52 166.016 13.8278 164.624 14.4368L165.426 16.2692ZM168.952 15.52C170.818 15.52 172.496 15.9392 174.005 16.7656L174.965 15.0114C173.143 14.0132 171.131 13.52 168.952 13.52V15.52ZM174.021 16.7743C175.493 17.5455 176.686 18.7426 177.593 20.4119L179.35 19.4568C178.274 17.4769 176.809 15.9768 174.949 15.0027L174.021 16.7743ZM177.597 20.42C178.483 22.0143 178.959 24.0945 178.959 26.7171H180.959C180.959 23.8659 180.443 21.4242 179.346 19.4487L177.597 20.42ZM178.959 26.7171V44.864H180.959V26.7171H178.959ZM179.959 43.864H175.08V45.864H179.959V43.864ZM176.08 44.8606L176.02 27.1897L174.02 27.1965L174.08 44.8674L176.08 44.8606ZM176.02 27.1931C176.02 24.4827 175.418 22.2503 174.056 20.6539L172.534 21.9517C173.473 23.0526 174.02 24.747 174.02 27.1931H176.02ZM174.067 20.6671C172.707 19.0157 170.65 18.2799 168.119 18.2799V20.2799C170.268 20.2799 171.662 20.8927 172.523 21.9385L174.067 20.6671ZM168.119 18.2799C166.267 18.2799 164.475 18.978 162.759 20.2648L163.959 21.8648C165.416 20.7717 166.798 20.2799 168.119 20.2799V18.2799ZM162.762 20.2623C161.14 21.4683 159.706 22.882 158.461 24.501L160.046 25.7204C161.181 24.2455 162.483 22.962 163.956 21.8673L162.762 20.2623ZM158.254 25.1107V44.864H160.254V25.1107H158.254ZM159.254 43.864H154.375V45.864H159.254V43.864ZM155.375 44.864V15.115H153.375V44.864H155.375ZM154.375 16.115H159.254V14.115H154.375V16.115ZM29.4884 75.0255H30.4884V74.0255H29.4884V75.0255ZM29.4884 117.864V118.864H30.4884V117.864H29.4884ZM24.6096 117.864H23.6096V118.864H24.6096V117.864ZM24.6096 112.807H25.6096V109.433L23.7712 112.262L24.6096 112.807ZM20.3852 116.972L19.8305 116.139L19.8219 116.145L20.3852 116.972ZM7.41469 116.853L6.88608 117.702L6.89782 117.709L7.41469 116.853ZM2.35736 111.438L1.47535 111.91L1.48178 111.921L2.35736 111.438ZM2.35736 94.9573L1.47493 94.4866L1.46893 94.4983L2.35736 94.9573ZM7.53368 89.4835L8.03662 90.3479L8.04818 90.341L7.53368 89.4835ZM20.0283 88.7695L19.5975 89.672L19.6097 89.6778L19.6221 89.6833L20.0283 88.7695ZM24.6096 92.1014L23.8622 92.7657L25.6096 94.7316V92.1014H24.6096ZM24.6096 75.0255V74.0255H23.6096V75.0255H24.6096ZM10.2706 94.0053L10.8353 94.8306L10.8426 94.8256L10.8498 94.8205L10.2706 94.0053ZM6.76021 98.0512L5.86578 97.604L5.86148 97.6126L5.85735 97.6212L6.76021 98.0512ZM6.76021 108.761L5.8614 109.199L5.86578 109.208L6.76021 108.761ZM10.0921 112.569L9.53735 113.401L9.54791 113.408L10.0921 112.569ZM23.4196 108.642L24.3141 109.089L24.3182 109.081L23.4196 108.642ZM24.6096 102.93L23.6096 102.94L23.6098 102.949L24.6096 102.93ZM24.5501 97.2182L25.5501 97.2078L25.5465 96.8646L25.3329 96.596L24.5501 97.2182ZM20.5637 93.6483L20.0492 94.5059L20.0599 94.5121L20.5637 93.6483ZM28.4884 75.0255V117.864H30.4884V75.0255H28.4884ZM29.4884 116.864H24.6096V118.864H29.4884V116.864ZM25.6096 117.864V112.807H23.6096V117.864H25.6096ZM23.7712 112.262C22.8232 113.72 21.5175 115.015 19.8305 116.139L20.9399 117.804C22.8229 116.548 24.3334 115.067 25.448 113.352L23.7712 112.262ZM19.8219 116.145C18.2546 117.214 16.4508 117.756 14.376 117.756V119.756C16.823 119.756 19.0254 119.109 20.9486 117.798L19.8219 116.145ZM14.376 117.756C12.0131 117.756 9.87243 117.168 7.93156 115.996L6.89782 117.709C9.16147 119.075 11.6616 119.756 14.376 119.756V117.756ZM7.94325 116.004C5.99489 114.791 4.42491 113.116 3.23294 110.955L1.48178 111.921C2.82839 114.362 4.62996 116.297 6.88613 117.701L7.94325 116.004ZM3.23929 110.967C2.09847 108.832 1.51292 106.341 1.51292 103.465H-0.487076C-0.487076 106.619 0.156997 109.443 1.47543 111.91L3.23929 110.967ZM1.51292 103.465C1.51292 100.297 2.10439 97.6254 3.24579 95.4163L1.46893 94.4983C0.151079 97.0489 -0.487076 100.05 -0.487076 103.465H1.51292ZM3.23971 95.4279C4.42781 93.2002 6.02671 91.5172 8.03658 90.3478L7.03079 88.6191C4.67747 89.9883 2.82549 91.9545 1.47501 94.4867L3.23971 95.4279ZM8.04818 90.341C10.0649 89.1309 12.3246 88.52 14.8519 88.52V86.52C11.9848 86.52 9.36565 87.2181 7.01919 88.626L8.04818 90.341ZM14.8519 88.52C16.3897 88.52 17.9687 88.8946 19.5975 89.672L20.459 87.867C18.5973 86.9785 16.7254 86.52 14.8519 86.52V88.52ZM19.6221 89.6833C21.2798 90.4201 22.6897 91.4467 23.8622 92.7657L25.357 91.437C23.9909 89.9001 22.3466 88.7055 20.4344 87.8557L19.6221 89.6833ZM25.6096 92.1014V75.0255H23.6096V92.1014H25.6096ZM24.6096 76.0255H29.4884V74.0255H24.6096V76.0255ZM15.7444 91.3989C13.4289 91.3989 11.3936 91.9807 9.69138 93.1901L10.8498 94.8205C12.1621 93.888 13.7761 93.3989 15.7444 93.3989V91.3989ZM9.70591 93.18C8.05549 94.3092 6.77318 95.7892 5.86578 97.604L7.65464 98.4984C8.41318 96.9813 9.47113 95.764 10.8353 94.8306L9.70591 93.18ZM5.85735 97.6212C4.99669 99.4286 4.57025 101.381 4.57025 103.465H6.57025C6.57025 101.663 6.93712 100.006 7.66307 98.4811L5.85735 97.6212ZM4.57025 103.465C4.57025 105.513 4.99805 107.429 5.86144 109.199L7.65898 108.322C6.93576 106.84 6.57025 105.226 6.57025 103.465H4.57025ZM5.86578 109.208C6.73419 110.945 7.95965 112.349 9.5374 113.401L10.6468 111.737C9.36864 110.885 8.37285 109.75 7.65464 108.314L5.86578 109.208ZM9.54791 113.408C11.1919 114.474 13.0701 114.997 15.1494 114.997V112.997C13.4209 112.997 11.9276 112.567 10.6363 111.73L9.54791 113.408ZM15.1494 114.997C17.1583 114.997 18.9802 114.469 20.583 113.401L19.4736 111.737C18.2205 112.572 16.7897 112.997 15.1494 112.997V114.997ZM20.583 113.401C22.1679 112.344 23.4101 110.897 24.3141 109.089L22.5252 108.195C21.7632 109.719 20.7445 110.889 19.4736 111.737L20.583 113.401ZM24.3182 109.081C25.2279 107.218 25.6518 105.155 25.6094 102.911L23.6098 102.949C23.6468 104.91 23.2773 106.655 22.5211 108.203L24.3182 109.081ZM25.6095 102.92L25.5501 97.2078L23.5502 97.2286L23.6097 102.94L25.6095 102.92ZM25.3329 96.596C24.0408 94.9704 22.6214 93.6909 21.0676 92.7845L20.0599 94.5121C21.362 95.2717 22.6001 96.3721 23.7673 97.8404L25.3329 96.596ZM21.0782 92.7908C19.5155 91.8532 17.7267 91.3989 15.7444 91.3989V93.3989C17.4113 93.3989 18.8354 93.7775 20.0492 94.5058L21.0782 92.7908ZM63.9973 94.6003L63.0869 95.0141L63.09 95.0209L63.0932 95.0277L63.9973 94.6003ZM65.5442 104.893V105.893H66.5442V104.893H65.5442ZM42.697 104.893V103.893H41.544L41.707 105.035L42.697 104.893ZM44.4224 109.475L43.5867 110.024L44.4224 109.475ZM47.9923 112.807L47.4987 113.676L47.5077 113.681L47.5168 113.686L47.9923 112.807ZM59.0589 112.39L59.5571 113.257L59.5639 113.253L59.5707 113.249L59.0589 112.39ZM63.7593 108.761L64.7592 108.772L64.7874 106.264L63.0414 108.065L63.7593 108.761ZM63.6998 114.056L64.4717 114.692L64.6957 114.42L64.6997 114.067L63.6998 114.056ZM61.2009 116.198L61.7556 117.03L61.7624 117.026L61.2009 116.198ZM57.4525 117.983L57.1363 117.034L57.1202 117.04L57.1043 117.046L57.4525 117.983ZM39.4841 110.962L38.6079 111.444L38.6127 111.453L38.6177 111.462L39.4841 110.962ZM39.3651 95.3738L38.4767 94.9147L39.3651 95.3738ZM44.4224 89.662L43.8748 88.8252L43.8677 88.8299L44.4224 89.662ZM45.7909 94.7788L46.5067 95.4772L46.515 95.4684L45.7909 94.7788ZM42.816 100.729L41.83 100.561L41.6322 101.729H42.816V100.729ZM60.7249 100.729V101.729H61.8321L61.7197 100.627L60.7249 100.729ZM59.0589 95.9687L58.2434 96.5475L58.2495 96.5561L58.2558 96.5646L59.0589 95.9687ZM55.846 93.2318L55.3988 94.1263L55.4101 94.1319L55.4216 94.1373L55.846 93.2318ZM51.8597 88.52C54.7777 88.52 57.1191 89.126 58.9439 90.271L60.0069 88.5769C57.7859 87.1833 55.0501 86.52 51.8597 86.52V88.52ZM58.9439 90.271C60.8002 91.4358 62.1761 93.0103 63.0869 95.0141L64.9076 94.1865C63.8352 91.8271 62.1965 89.9507 60.0069 88.5769L58.9439 90.271ZM63.0932 95.0277C64.0533 97.0588 64.5442 99.369 64.5442 101.978H66.5442C66.5442 99.1132 66.0038 96.505 64.9013 94.1729L63.0932 95.0277ZM64.5442 101.978V104.893H66.5442V101.978H64.5442ZM65.5442 103.893H42.697V105.893H65.5442V103.893ZM41.707 105.035C41.9656 106.844 42.5926 108.511 43.5867 110.024L45.2581 108.926C44.4277 107.662 43.9044 106.274 43.6869 104.752L41.707 105.035ZM43.5867 110.024C44.5875 111.547 45.8955 112.766 47.4987 113.676L48.4859 111.937C47.1538 111.181 46.082 110.179 45.2581 108.926L43.5867 110.024ZM47.5168 113.686C49.15 114.569 51.0034 114.997 53.0496 114.997V112.997C51.288 112.997 49.7699 112.631 48.4678 111.927L47.5168 113.686ZM53.0496 114.997C55.3671 114.997 57.5418 114.415 59.5571 113.257L58.5608 111.523C56.8475 112.507 55.0161 112.997 53.0496 112.997V114.997ZM59.5707 113.249C61.4967 112.102 63.1363 110.84 64.4772 109.457L63.0414 108.065C61.8436 109.3 60.3497 110.457 58.5471 111.531L59.5707 113.249ZM62.7593 108.75L62.6998 114.045L64.6997 114.067L64.7592 108.772L62.7593 108.75ZM62.9278 113.42C62.4564 113.993 61.7085 114.645 60.6394 115.371L61.7624 117.026C62.9144 116.244 63.8325 115.468 64.4717 114.692L62.9278 113.42ZM60.6462 115.366C59.6604 116.023 58.4938 116.582 57.1363 117.034L57.7687 118.932C59.2671 118.432 60.5994 117.801 61.7556 117.03L60.6462 115.366ZM57.1043 117.046C55.8324 117.518 54.4831 117.756 53.0496 117.756V119.756C54.7101 119.756 56.296 119.479 57.8007 118.92L57.1043 117.046ZM53.0496 117.756C50.1999 117.756 47.7063 117.084 45.5383 115.761L44.4965 117.468C47.0091 119.001 49.8702 119.756 53.0496 119.756V117.756ZM45.5383 115.761C43.3388 114.419 41.6142 112.656 40.3505 110.463L38.6177 111.462C40.0513 113.949 42.0155 115.954 44.4965 117.468L45.5383 115.761ZM40.3603 110.48C39.1356 108.254 38.5207 105.822 38.5207 103.168H36.5207C36.5207 106.146 37.2147 108.911 38.6079 111.444L40.3603 110.48ZM38.5207 103.168C38.5207 100.503 39.101 98.0635 40.2535 95.8328L38.4767 94.9147C37.17 97.4439 36.5207 100.2 36.5207 103.168H38.5207ZM40.2535 95.8328C41.4086 93.5971 42.9821 91.824 44.9771 90.494L43.8677 88.8299C41.5789 90.3558 39.7808 92.3906 38.4767 94.9147L40.2535 95.8328ZM44.9701 90.4987C46.9782 89.1843 49.2644 88.52 51.8597 88.52V86.52C48.9018 86.52 46.2299 87.2837 43.8748 88.8253L44.9701 90.4987ZM51.8597 91.2799C49.1478 91.2799 46.8562 92.2103 45.0667 94.0891L46.515 95.4684C47.8988 94.0154 49.653 93.2799 51.8597 93.2799V91.2799ZM45.0751 94.0805C43.34 95.859 42.2591 98.0303 41.83 100.561L43.8019 100.896C44.1662 98.7463 45.0686 96.9511 46.5067 95.4771L45.0751 94.0805ZM42.816 101.729H60.7249V99.7286H42.816V101.729ZM61.7197 100.627C61.5081 98.5531 60.9074 96.7818 59.862 95.3729L58.2558 96.5646C59.0351 97.6149 59.545 99.0169 59.73 100.83L61.7197 100.627ZM59.8744 95.39C58.9096 94.0305 57.7079 93.0002 56.2705 92.3264L55.4216 94.1373C56.5227 94.6535 57.4629 95.4477 58.2434 96.5475L59.8744 95.39ZM56.2933 92.3374C54.8883 91.6349 53.4067 91.2799 51.8597 91.2799V93.2799C53.0892 93.2799 54.2652 93.5594 55.3988 94.1263L56.2933 92.3374ZM99.815 88.115L100.72 88.5404L101.39 87.115H99.815V88.115ZM85.833 117.864V118.864H86.468L86.738 118.289L85.833 117.864ZM82.7986 117.864L81.8867 118.274L82.152 118.864H82.7986V117.864ZM69.4116 88.115V87.115H67.865L68.4997 88.5254L69.4116 88.115ZM75.2424 88.115L76.1675 87.7354L75.913 87.115H75.2424V88.115ZM84.2266 110.01L83.3014 110.39L84.1886 112.552L85.14 110.417L84.2266 110.01ZM93.9842 88.115V87.115H93.3351L93.0708 87.708L93.9842 88.115ZM98.91 87.6896L84.928 117.439L86.738 118.289L100.72 88.5404L98.91 87.6896ZM85.833 116.864H82.7986V118.864H85.833V116.864ZM83.7105 117.454L70.3235 87.7046L68.4997 88.5254L81.8867 118.274L83.7105 117.454ZM69.4116 89.115H75.2424V87.115H69.4116V89.115ZM74.3172 88.4946L83.3014 110.39L85.1517 109.631L76.1675 87.7354L74.3172 88.4946ZM85.14 110.417L94.8976 88.5221L93.0708 87.708L83.3132 109.603L85.14 110.417ZM93.9842 89.115H99.815V87.115H93.9842V89.115ZM129.564 94.6003L128.654 95.0141L128.657 95.0209L128.66 95.0277L129.564 94.6003ZM131.111 104.893V105.893H132.111V104.893H131.111ZM108.264 104.893V103.893H107.111L107.274 105.035L108.264 104.893ZM109.989 109.475L109.153 110.024L109.989 109.475ZM113.559 112.807L113.065 113.676L113.074 113.681L113.084 113.686L113.559 112.807ZM124.626 112.39L125.124 113.257L125.131 113.253L125.138 113.249L124.626 112.39ZM129.326 108.761L130.326 108.772L130.354 106.264L128.608 108.065L129.326 108.761ZM129.267 114.056L130.038 114.692L130.263 114.42L130.266 114.067L129.267 114.056ZM126.768 116.198L127.322 117.03L127.329 117.026L126.768 116.198ZM123.019 117.983L122.703 117.034L122.687 117.04L122.671 117.046L123.019 117.983ZM105.051 110.962L104.175 111.444L104.179 111.453L104.184 111.462L105.051 110.962ZM104.932 95.3738L104.043 94.9147L104.932 95.3738ZM109.989 89.662L109.442 88.8252L109.434 88.8299L109.989 89.662ZM111.358 94.7788L112.073 95.4772L112.082 95.4684L111.358 94.7788ZM108.383 100.729L107.397 100.561L107.199 101.729H108.383V100.729ZM126.292 100.729V101.729H127.399L127.286 100.627L126.292 100.729ZM124.626 95.9687L123.81 96.5475L123.816 96.5561L123.823 96.5646L124.626 95.9687ZM121.413 93.2318L120.966 94.1263L120.977 94.1319L120.988 94.1373L121.413 93.2318ZM117.426 88.52C120.344 88.52 122.686 89.126 124.511 90.271L125.574 88.5769C123.353 87.1833 120.617 86.52 117.426 86.52V88.52ZM124.511 90.271C126.367 91.4358 127.743 93.0103 128.654 95.0141L130.474 94.1865C129.402 91.8271 127.763 89.9507 125.574 88.5769L124.511 90.271ZM128.66 95.0277C129.62 97.0588 130.111 99.369 130.111 101.978H132.111C132.111 99.1132 131.571 96.505 130.468 94.1729L128.66 95.0277ZM130.111 101.978V104.893H132.111V101.978H130.111ZM131.111 103.893H108.264V105.893H131.111V103.893ZM107.274 105.035C107.532 106.844 108.159 108.511 109.153 110.024L110.825 108.926C109.994 107.662 109.471 106.274 109.254 104.752L107.274 105.035ZM109.153 110.024C110.154 111.547 111.462 112.766 113.065 113.676L114.053 111.937C112.721 111.181 111.649 110.179 110.825 108.926L109.153 110.024ZM113.084 113.686C114.717 114.569 116.57 114.997 118.616 114.997V112.997C116.855 112.997 115.337 112.631 114.035 111.927L113.084 113.686ZM118.616 114.997C120.934 114.997 123.109 114.415 125.124 113.257L124.128 111.523C122.414 112.507 120.583 112.997 118.616 112.997V114.997ZM125.138 113.249C127.063 112.102 128.703 110.84 130.044 109.457L128.608 108.065C127.41 109.3 125.916 110.457 124.114 111.531L125.138 113.249ZM128.326 108.75L128.267 114.045L130.266 114.067L130.326 108.772L128.326 108.75ZM128.495 113.42C128.023 113.993 127.275 114.645 126.206 115.371L127.329 117.026C128.481 116.244 129.399 115.468 130.038 114.692L128.495 113.42ZM126.213 115.366C125.227 116.023 124.061 116.582 122.703 117.034L123.335 118.932C124.834 118.432 126.166 117.801 127.322 117.03L126.213 115.366ZM122.671 117.046C121.399 117.518 120.05 117.756 118.616 117.756V119.756C120.277 119.756 121.863 119.479 123.367 118.92L122.671 117.046ZM118.616 117.756C115.767 117.756 113.273 117.084 111.105 115.761L110.063 117.468C112.576 119.001 115.437 119.756 118.616 119.756V117.756ZM111.105 115.761C108.906 114.419 107.181 112.656 105.917 110.463L104.184 111.462C105.618 113.949 107.582 115.954 110.063 117.468L111.105 115.761ZM105.927 110.48C104.702 108.254 104.087 105.822 104.087 103.168H102.087C102.087 106.146 102.781 108.911 104.175 111.444L105.927 110.48ZM104.087 103.168C104.087 100.503 104.668 98.0635 105.82 95.8328L104.043 94.9147C102.737 97.4439 102.087 100.2 102.087 103.168H104.087ZM105.82 95.8328C106.975 93.5971 108.549 91.824 110.544 90.494L109.434 88.8299C107.146 90.3558 105.348 92.3906 104.043 94.9147L105.82 95.8328ZM110.537 90.4987C112.545 89.1843 114.831 88.52 117.426 88.52V86.52C114.469 86.52 111.797 87.2837 109.442 88.8253L110.537 90.4987ZM117.426 91.2799C114.715 91.2799 112.423 92.2103 110.634 94.0891L112.082 95.4684C113.466 94.0154 115.22 93.2799 117.426 93.2799V91.2799ZM110.642 94.0805C108.907 95.859 107.826 98.0303 107.397 100.561L109.369 100.896C109.733 98.7463 110.635 96.9511 112.073 95.4771L110.642 94.0805ZM108.383 101.729H126.292V99.7286H108.383V101.729ZM127.286 100.627C127.075 98.5531 126.474 96.7818 125.429 95.3729L123.823 96.5646C124.602 97.6149 125.112 99.0169 125.297 100.83L127.286 100.627ZM125.441 95.39C124.476 94.0305 123.275 93.0002 121.837 92.3264L120.988 94.1373C122.09 94.6535 123.03 95.4477 123.81 96.5475L125.441 95.39ZM121.86 92.3374C120.455 91.6349 118.974 91.2799 117.426 91.2799V93.2799C118.656 93.2799 119.832 93.5594 120.966 94.1263L121.86 92.3374ZM144.022 75.0255H145.022V74.0255H144.022V75.0255ZM144.022 117.864V118.864H145.022V117.864H144.022ZM139.143 117.864H138.143V118.864H139.143V117.864ZM139.143 75.0255V74.0255H138.143V75.0255H139.143ZM143.022 75.0255V117.864H145.022V75.0255H143.022ZM144.022 116.864H139.143V118.864H144.022V116.864ZM140.143 117.864V75.0255H138.143V117.864H140.143ZM139.143 76.0255H144.022V74.0255H139.143V76.0255ZM181.089 95.3738L180.213 95.8557L180.219 95.8668L181.089 95.3738ZM181.089 110.962L180.219 110.469L180.217 110.474L181.089 110.962ZM154.018 110.962L153.141 111.444L153.146 111.453L153.151 111.462L154.018 110.962ZM154.018 95.3738L153.148 94.8807L153.141 94.8918L154.018 95.3738ZM162.05 93.8268L162.58 94.6748L162.587 94.6701L162.595 94.6653L162.05 93.8268ZM158.361 97.8132L157.475 97.3492L157.471 97.3573L158.361 97.8132ZM158.361 108.523L157.467 108.97L157.473 108.983L157.48 108.996L158.361 108.523ZM162.05 112.509L161.505 113.348L161.512 113.352L161.52 113.357L162.05 112.509ZM173.117 112.509L173.656 113.351L173.662 113.348L173.117 112.509ZM176.746 108.523L175.86 108.059L175.856 108.067L176.746 108.523ZM176.746 97.8132L175.851 98.2604L175.858 98.2733L175.865 98.286L176.746 97.8132ZM173.117 93.8268L172.562 94.6589L172.574 94.667L172.587 94.6748L173.117 93.8268ZM167.583 88.52C170.433 88.52 172.927 89.1928 175.095 90.5156L176.136 88.8083C173.624 87.2753 170.763 86.52 167.583 86.52V88.52ZM175.095 90.5156C177.287 91.8536 178.989 93.63 180.213 95.8557L181.965 94.8918C180.572 92.3577 178.624 90.3262 176.136 88.8083L175.095 90.5156ZM180.219 95.8668C181.48 98.0918 182.112 100.519 182.112 103.168H184.112C184.112 100.184 183.396 97.4156 181.959 94.8808L180.219 95.8668ZM182.112 103.168C182.112 105.817 181.48 108.244 180.219 110.469L181.959 111.455C183.396 108.92 184.112 106.152 184.112 103.168H182.112ZM180.217 110.474C178.993 112.661 177.292 114.42 175.095 115.761L176.136 117.468C178.62 115.953 180.567 113.944 181.962 111.45L180.217 110.474ZM175.095 115.761C172.927 117.084 170.433 117.756 167.583 117.756V119.756C170.763 119.756 173.624 119.001 176.136 117.468L175.095 115.761ZM167.583 117.756C164.734 117.756 162.24 117.084 160.072 115.761L159.03 117.468C161.543 119.001 164.404 119.756 167.583 119.756V117.756ZM160.072 115.761C157.872 114.419 156.148 112.656 154.884 110.463L153.151 111.462C154.585 113.949 156.549 115.954 159.03 117.468L160.072 115.761ZM154.894 110.48C153.669 108.254 153.054 105.822 153.054 103.168H151.054C151.054 106.146 151.748 108.911 153.141 111.444L154.894 110.48ZM153.054 103.168C153.054 100.514 153.669 98.0824 154.894 95.8557L153.141 94.8918C151.748 97.425 151.054 100.19 151.054 103.168H153.054ZM154.888 95.8668C156.152 93.6351 157.876 91.8552 160.072 90.5156L159.03 88.8083C156.545 90.3246 154.58 92.3526 153.148 94.8808L154.888 95.8668ZM160.072 90.5156C162.24 89.1928 164.734 88.52 167.583 88.52V86.52C164.404 86.52 161.543 87.2753 159.03 88.8083L160.072 90.5156ZM167.583 91.2799C165.31 91.2799 163.271 91.8401 161.505 92.9884L162.595 94.6653C164.002 93.7509 165.652 93.2799 167.583 93.2799V91.2799ZM161.52 92.9788C159.782 94.0651 158.43 95.5268 157.475 97.3492L159.247 98.2772C160.038 96.7677 161.145 95.5718 162.58 94.6748L161.52 92.9788ZM157.471 97.3573C156.561 99.1336 156.112 101.076 156.112 103.168H158.112C158.112 101.373 158.495 99.7453 159.251 98.2691L157.471 97.3573ZM156.112 103.168C156.112 105.224 156.563 107.162 157.467 108.97L159.255 108.076C158.494 106.552 158.112 104.92 158.112 103.168H156.112ZM157.48 108.996C158.434 110.774 159.781 112.227 161.505 113.348L162.595 111.671C161.146 110.729 160.033 109.524 159.242 108.05L157.48 108.996ZM161.52 113.357C163.285 114.46 165.317 114.997 167.583 114.997V112.997C165.645 112.997 163.989 112.542 162.58 111.661L161.52 113.357ZM167.583 114.997C169.884 114.997 171.923 114.462 173.656 113.351L172.577 111.667C171.216 112.54 169.566 112.997 167.583 112.997V114.997ZM173.662 113.348C175.389 112.225 176.72 110.766 177.636 108.979L175.856 108.067C175.105 109.532 174.017 110.731 172.572 111.671L173.662 113.348ZM177.632 108.987C178.58 107.176 179.055 105.231 179.055 103.168H177.055C177.055 104.912 176.657 106.538 175.86 108.059L177.632 108.987ZM179.055 103.168C179.055 101.068 178.582 99.1198 177.627 97.3404L175.865 98.286C176.655 99.7591 177.055 101.38 177.055 103.168H179.055ZM177.64 97.366C176.725 95.5347 175.388 94.0675 173.647 92.9788L172.587 94.6748C174.018 95.5694 175.101 96.7598 175.851 98.2604L177.64 97.366ZM173.671 92.9948C171.936 91.838 169.892 91.2799 167.583 91.2799V93.2799C169.559 93.2799 171.203 93.753 172.562 94.6589L173.671 92.9948ZM213.218 89.424L212.694 90.2756L212.704 90.2815L212.713 90.2872L213.218 89.424ZM218.216 94.6598L217.338 95.1376L217.343 95.1468L217.348 95.1559L218.216 94.6598ZM218.216 111.081L217.327 110.623L217.325 110.628L218.216 111.081ZM213.099 116.734L212.573 115.883L212.566 115.887L213.099 116.734ZM200.545 117.388L200.082 118.274L200.09 118.278L200.545 117.388ZM196.023 113.878L196.771 113.213L195.023 111.247V113.878H196.023ZM196.023 132.144V133.144H197.023V132.144H196.023ZM191.144 132.144H190.144V133.144H191.144V132.144ZM191.144 88.115V87.115H190.144V88.115H191.144ZM196.023 88.115H197.023V87.115H196.023V88.115ZM196.023 93.1723H195.023V96.5457L196.862 93.7173L196.023 93.1723ZM200.188 89.186L200.711 90.0383L200.716 90.035L200.188 89.186ZM200.605 93.6483L200.077 92.799L200.066 92.8056L200.605 93.6483ZM197.213 97.4562L196.323 97.0003L196.319 97.009L197.213 97.4562ZM196.023 103.049H195.023L195.023 103.059L196.023 103.049ZM196.083 108.761L195.083 108.771L195.086 109.123L195.31 109.395L196.083 108.761ZM200.069 112.569L199.488 113.382L199.496 113.388L199.504 113.393L200.069 112.569ZM213.813 108.047L212.907 107.624L212.903 107.633L213.813 108.047ZM213.873 97.3372L212.983 97.7935L212.988 97.8029L213.873 97.3372ZM206.257 88.52C208.663 88.52 210.799 89.1097 212.694 90.2756L213.742 88.5723C211.512 87.1997 209.008 86.52 206.257 86.52V88.52ZM212.713 90.2872C214.649 91.4195 216.19 93.0273 217.338 95.1376L219.094 94.182C217.783 91.7704 215.992 89.8877 213.723 88.5608L212.713 90.2872ZM217.348 95.1559C218.516 97.2011 219.12 99.6418 219.12 102.514H221.12C221.12 99.3561 220.454 96.561 219.084 94.1636L217.348 95.1559ZM219.12 102.514C219.12 105.634 218.512 108.328 217.327 110.623L219.105 111.54C220.459 108.916 221.12 105.898 221.12 102.514H219.12ZM217.325 110.628C216.173 112.894 214.59 114.636 212.573 115.883L213.625 117.584C215.972 116.133 217.8 114.107 219.107 111.534L217.325 110.628ZM212.566 115.887C210.597 117.127 208.345 117.756 205.781 117.756V119.756C208.69 119.756 211.318 119.037 213.632 117.58L212.566 115.887ZM205.781 117.756C204.259 117.756 202.669 117.35 201 116.498L200.09 118.278C201.991 119.25 203.892 119.756 205.781 119.756V117.756ZM201.008 116.502C199.367 115.644 197.957 114.548 196.771 113.213L195.276 114.542C196.628 116.063 198.233 117.308 200.082 118.274L201.008 116.502ZM195.023 113.878V132.144H197.023V113.878H195.023ZM196.023 131.144H191.144V133.144H196.023V131.144ZM192.144 132.144V88.115H190.144V132.144H192.144ZM191.144 89.115H196.023V87.115H191.144V89.115ZM195.023 88.115V93.1723H197.023V88.115H195.023ZM196.862 93.7173C197.806 92.2653 199.082 91.038 200.711 90.0383L199.665 88.3337C197.804 89.4759 196.304 90.9061 195.185 92.6274L196.862 93.7173ZM200.716 90.035C202.331 89.0305 204.168 88.52 206.257 88.52V86.52C203.824 86.52 201.615 87.1202 199.66 88.3369L200.716 90.035ZM205.483 91.2799C203.518 91.2799 201.708 91.7849 200.077 92.799L201.133 94.4976C202.436 93.6872 203.879 93.2799 205.483 93.2799V91.2799ZM200.066 92.8056C198.477 93.8209 197.23 95.229 196.323 97.0003L198.103 97.9121C198.862 96.4309 199.876 95.3004 201.143 94.491L200.066 92.8056ZM196.319 97.009C195.443 98.7604 195.023 100.784 195.023 103.049H197.023C197.023 101.031 197.397 99.3253 198.108 97.9034L196.319 97.009ZM195.023 103.059L195.083 108.771L197.083 108.75L197.023 103.039L195.023 103.059ZM195.31 109.395C196.625 110.999 198.017 112.332 199.488 113.382L200.65 111.755C199.345 110.822 198.079 109.617 196.856 108.126L195.31 109.395ZM199.504 113.393C201.072 114.469 202.88 114.997 204.888 114.997V112.997C203.248 112.997 201.842 112.572 200.635 111.744L199.504 113.393ZM204.888 114.997C207.212 114.997 209.252 114.391 210.955 113.136L209.769 111.526C208.458 112.492 206.849 112.997 204.888 112.997V114.997ZM210.955 113.136C212.604 111.921 213.861 110.357 214.724 108.461L212.903 107.633C212.178 109.227 211.136 110.519 209.769 111.526L210.955 113.136ZM214.719 108.47C215.612 106.557 216.063 104.569 216.063 102.514H214.063C214.063 104.266 213.68 105.967 212.907 107.624L214.719 108.47ZM216.063 102.514C216.063 100.431 215.637 98.5415 214.758 96.8715L212.988 97.8029C213.695 99.1475 214.063 100.709 214.063 102.514H216.063ZM214.762 96.8809C213.891 95.1806 212.66 93.8159 211.079 92.8056L210.002 94.491C211.277 95.3054 212.268 96.3999 212.983 97.7935L214.762 96.8809ZM211.079 92.8056C209.468 91.7762 207.589 91.2799 205.483 91.2799V93.2799C207.265 93.2799 208.758 93.6959 210.002 94.491L211.079 92.8056ZM29.4884 148.025H30.4884V147.025H29.4884V148.025ZM29.4884 190.864V191.864H30.4884V190.864H29.4884ZM24.6096 190.864H23.6096V191.864H24.6096V190.864ZM24.6096 185.807H25.6096V182.433L23.7712 185.262L24.6096 185.807ZM20.3852 189.972L19.8305 189.139L19.8219 189.145L20.3852 189.972ZM7.41469 189.853L6.88608 190.702L6.89782 190.709L7.41469 189.853ZM2.35736 184.438L1.47535 184.91L1.48178 184.921L2.35736 184.438ZM2.35736 167.957L1.47493 167.487L1.46893 167.498L2.35736 167.957ZM7.53368 162.483L8.03662 163.348L8.04818 163.341L7.53368 162.483ZM20.0283 161.769L19.5975 162.672L19.6097 162.678L19.6221 162.683L20.0283 161.769ZM24.6096 165.101L23.8622 165.766L25.6096 167.732V165.101H24.6096ZM24.6096 148.025V147.025H23.6096V148.025H24.6096ZM10.2706 167.005L10.8353 167.831L10.8426 167.826L10.8498 167.82L10.2706 167.005ZM6.76021 171.051L5.86578 170.604L5.86148 170.613L5.85735 170.621L6.76021 171.051ZM6.76021 181.761L5.8614 182.199L5.86578 182.208L6.76021 181.761ZM10.0921 185.569L9.53735 186.401L9.54791 186.408L10.0921 185.569ZM23.4196 181.642L24.3141 182.089L24.3182 182.081L23.4196 181.642ZM24.6096 175.93L23.6096 175.94L23.6098 175.949L24.6096 175.93ZM24.5501 170.218L25.5501 170.208L25.5465 169.865L25.3329 169.596L24.5501 170.218ZM20.5637 166.648L20.0492 167.506L20.0599 167.512L20.5637 166.648ZM28.4884 148.025V190.864H30.4884V148.025H28.4884ZM29.4884 189.864H24.6096V191.864H29.4884V189.864ZM25.6096 190.864V185.807H23.6096V190.864H25.6096ZM23.7712 185.262C22.8232 186.72 21.5175 188.015 19.8305 189.139L20.9399 190.804C22.8229 189.548 24.3334 188.067 25.448 186.352L23.7712 185.262ZM19.8219 189.145C18.2546 190.214 16.4508 190.756 14.376 190.756V192.756C16.823 192.756 19.0254 192.109 20.9486 190.798L19.8219 189.145ZM14.376 190.756C12.0131 190.756 9.87243 190.168 7.93156 188.996L6.89782 190.709C9.16147 192.075 11.6616 192.756 14.376 192.756V190.756ZM7.94325 189.004C5.99489 187.791 4.42491 186.116 3.23294 183.955L1.48178 184.921C2.82839 187.362 4.62996 189.297 6.88613 190.701L7.94325 189.004ZM3.23929 183.967C2.09847 181.832 1.51292 179.341 1.51292 176.465H-0.487076C-0.487076 179.619 0.156997 182.443 1.47543 184.91L3.23929 183.967ZM1.51292 176.465C1.51292 173.297 2.10439 170.625 3.24579 168.416L1.46893 167.498C0.151079 170.049 -0.487076 173.05 -0.487076 176.465H1.51292ZM3.23971 168.428C4.42781 166.2 6.02671 164.517 8.03658 163.348L7.03079 161.619C4.67747 162.988 2.82549 164.955 1.47501 167.487L3.23971 168.428ZM8.04818 163.341C10.0649 162.131 12.3246 161.52 14.8519 161.52V159.52C11.9848 159.52 9.36565 160.218 7.01919 161.626L8.04818 163.341ZM14.8519 161.52C16.3897 161.52 17.9687 161.895 19.5975 162.672L20.459 160.867C18.5973 159.978 16.7254 159.52 14.8519 159.52V161.52ZM19.6221 162.683C21.2798 163.42 22.6897 164.447 23.8622 165.766L25.357 164.437C23.9909 162.9 22.3466 161.706 20.4344 160.856L19.6221 162.683ZM25.6096 165.101V148.025H23.6096V165.101H25.6096ZM24.6096 149.025H29.4884V147.025H24.6096V149.025ZM15.7444 164.399C13.4289 164.399 11.3936 164.981 9.69138 166.19L10.8498 167.82C12.1621 166.888 13.7761 166.399 15.7444 166.399V164.399ZM9.70591 166.18C8.05549 167.309 6.77318 168.789 5.86578 170.604L7.65464 171.498C8.41318 169.981 9.47113 168.764 10.8353 167.831L9.70591 166.18ZM5.85735 170.621C4.99669 172.429 4.57025 174.381 4.57025 176.465H6.57025C6.57025 174.663 6.93712 173.006 7.66307 171.481L5.85735 170.621ZM4.57025 176.465C4.57025 178.513 4.99805 180.429 5.86144 182.199L7.65898 181.322C6.93576 179.84 6.57025 178.226 6.57025 176.465H4.57025ZM5.86578 182.208C6.73419 183.945 7.95965 185.349 9.5374 186.401L10.6468 184.737C9.36864 183.885 8.37285 182.75 7.65464 181.314L5.86578 182.208ZM9.54791 186.408C11.1919 187.474 13.0701 187.997 15.1494 187.997V185.997C13.4209 185.997 11.9276 185.567 10.6363 184.73L9.54791 186.408ZM15.1494 187.997C17.1583 187.997 18.9802 187.469 20.583 186.401L19.4736 184.737C18.2205 185.572 16.7897 185.997 15.1494 185.997V187.997ZM20.583 186.401C22.1679 185.344 23.4101 183.897 24.3141 182.089L22.5252 181.195C21.7632 182.719 20.7445 183.889 19.4736 184.737L20.583 186.401ZM24.3182 182.081C25.2279 180.218 25.6518 178.155 25.6094 175.911L23.6098 175.949C23.6468 177.91 23.2773 179.655 22.5211 181.203L24.3182 182.081ZM25.6095 175.92L25.5501 170.208L23.5502 170.229L23.6097 175.94L25.6095 175.92ZM25.3329 169.596C24.0408 167.97 22.6214 166.691 21.0676 165.785L20.0599 167.512C21.362 168.272 22.6001 169.372 23.7673 170.84L25.3329 169.596ZM21.0782 165.791C19.5155 164.853 17.7267 164.399 15.7444 164.399V166.399C17.4113 166.399 18.8354 166.778 20.0492 167.506L21.0782 165.791ZM63.9973 167.6L63.0869 168.014L63.09 168.021L63.0932 168.028L63.9973 167.6ZM65.5442 177.893V178.893H66.5442V177.893H65.5442ZM42.697 177.893V176.893H41.544L41.707 178.035L42.697 177.893ZM44.4224 182.475L43.5867 183.024L44.4224 182.475ZM47.9923 185.807L47.4987 186.676L47.5077 186.681L47.5168 186.686L47.9923 185.807ZM59.0589 185.39L59.5571 186.257L59.5639 186.253L59.5707 186.249L59.0589 185.39ZM63.7593 181.761L64.7592 181.772L64.7874 179.264L63.0414 181.065L63.7593 181.761ZM63.6998 187.056L64.4717 187.692L64.6957 187.42L64.6997 187.067L63.6998 187.056ZM61.2009 189.198L61.7556 190.03L61.7624 190.026L61.2009 189.198ZM57.4525 190.983L57.1363 190.034L57.1202 190.04L57.1043 190.046L57.4525 190.983ZM39.4841 183.962L38.6079 184.444L38.6127 184.453L38.6177 184.462L39.4841 183.962ZM39.3651 168.374L38.4767 167.915L39.3651 168.374ZM44.4224 162.662L43.8748 161.825L43.8677 161.83L44.4224 162.662ZM45.7909 167.779L46.5067 168.477L46.515 168.468L45.7909 167.779ZM42.816 173.729L41.83 173.561L41.6322 174.729H42.816V173.729ZM60.7249 173.729V174.729H61.8321L61.7197 173.627L60.7249 173.729ZM59.0589 168.969L58.2434 169.547L58.2495 169.556L58.2558 169.565L59.0589 168.969ZM55.846 166.232L55.3988 167.126L55.4101 167.132L55.4216 167.137L55.846 166.232ZM51.8597 161.52C54.7777 161.52 57.1191 162.126 58.9439 163.271L60.0069 161.577C57.7859 160.183 55.0501 159.52 51.8597 159.52V161.52ZM58.9439 163.271C60.8002 164.436 62.1761 166.01 63.0869 168.014L64.9076 167.186C63.8352 164.827 62.1965 162.951 60.0069 161.577L58.9439 163.271ZM63.0932 168.028C64.0533 170.059 64.5442 172.369 64.5442 174.978H66.5442C66.5442 172.113 66.0038 169.505 64.9013 167.173L63.0932 168.028ZM64.5442 174.978V177.893H66.5442V174.978H64.5442ZM65.5442 176.893H42.697V178.893H65.5442V176.893ZM41.707 178.035C41.9656 179.844 42.5926 181.511 43.5867 183.024L45.2581 181.926C44.4277 180.662 43.9044 179.274 43.6869 177.752L41.707 178.035ZM43.5867 183.024C44.5875 184.547 45.8955 185.766 47.4987 186.676L48.4859 184.937C47.1538 184.181 46.082 183.179 45.2581 181.926L43.5867 183.024ZM47.5168 186.686C49.15 187.569 51.0034 187.997 53.0496 187.997V185.997C51.288 185.997 49.7699 185.631 48.4678 184.927L47.5168 186.686ZM53.0496 187.997C55.3671 187.997 57.5418 187.415 59.5571 186.257L58.5608 184.523C56.8475 185.507 55.0161 185.997 53.0496 185.997V187.997ZM59.5707 186.249C61.4967 185.102 63.1363 183.84 64.4772 182.457L63.0414 181.065C61.8436 182.3 60.3497 183.457 58.5471 184.531L59.5707 186.249ZM62.7593 181.75L62.6998 187.045L64.6997 187.067L64.7592 181.772L62.7593 181.75ZM62.9278 186.42C62.4564 186.993 61.7085 187.645 60.6394 188.371L61.7624 190.026C62.9144 189.244 63.8325 188.468 64.4717 187.692L62.9278 186.42ZM60.6462 188.366C59.6604 189.023 58.4938 189.582 57.1363 190.034L57.7687 191.932C59.2671 191.432 60.5994 190.801 61.7556 190.03L60.6462 188.366ZM57.1043 190.046C55.8324 190.518 54.4831 190.756 53.0496 190.756V192.756C54.7101 192.756 56.296 192.479 57.8007 191.92L57.1043 190.046ZM53.0496 190.756C50.1999 190.756 47.7063 190.084 45.5383 188.761L44.4965 190.468C47.0091 192.001 49.8702 192.756 53.0496 192.756V190.756ZM45.5383 188.761C43.3388 187.419 41.6142 185.656 40.3505 183.463L38.6177 184.462C40.0513 186.949 42.0155 188.954 44.4965 190.468L45.5383 188.761ZM40.3603 183.48C39.1356 181.254 38.5207 178.822 38.5207 176.168H36.5207C36.5207 179.146 37.2147 181.911 38.6079 184.444L40.3603 183.48ZM38.5207 176.168C38.5207 173.503 39.101 171.063 40.2535 168.833L38.4767 167.915C37.17 170.444 36.5207 173.2 36.5207 176.168H38.5207ZM40.2535 168.833C41.4086 166.597 42.9821 164.824 44.9771 163.494L43.8677 161.83C41.5789 163.356 39.7808 165.391 38.4767 167.915L40.2535 168.833ZM44.9701 163.499C46.9782 162.184 49.2644 161.52 51.8597 161.52V159.52C48.9018 159.52 46.2299 160.284 43.8748 161.825L44.9701 163.499ZM51.8597 164.28C49.1478 164.28 46.8562 165.21 45.0667 167.089L46.515 168.468C47.8988 167.015 49.653 166.28 51.8597 166.28V164.28ZM45.0751 167.08C43.34 168.859 42.2591 171.03 41.83 173.561L43.8019 173.896C44.1662 171.746 45.0686 169.951 46.5067 168.477L45.0751 167.08ZM42.816 174.729H60.7249V172.729H42.816V174.729ZM61.7197 173.627C61.5081 171.553 60.9074 169.782 59.862 168.373L58.2558 169.565C59.0351 170.615 59.545 172.017 59.73 173.83L61.7197 173.627ZM59.8744 168.39C58.9096 167.031 57.7079 166 56.2705 165.326L55.4216 167.137C56.5227 167.653 57.4629 168.448 58.2434 169.547L59.8744 168.39ZM56.2933 165.337C54.8883 164.635 53.4067 164.28 51.8597 164.28V166.28C53.0892 166.28 54.2652 166.559 55.3988 167.126L56.2933 165.337ZM78.4553 148.025H79.4553V147.025H78.4553V148.025ZM78.4553 190.864V191.864H79.4553V190.864H78.4553ZM73.5764 190.864H72.5764V191.864H73.5764V190.864ZM73.5764 148.025V147.025H72.5764V148.025H73.5764ZM77.4553 148.025V190.864H79.4553V148.025H77.4553ZM78.4553 189.864H73.5764V191.864H78.4553V189.864ZM74.5764 190.864V148.025H72.5764V190.864H74.5764ZM73.5764 149.025H78.4553V147.025H73.5764V149.025ZM96.1857 148.085L95.4441 148.756L95.4609 148.774L95.4786 148.792L96.1857 148.085ZM96.1857 153.678L95.4615 152.988L95.4527 152.997L95.4441 153.007L96.1857 153.678ZM90.4144 153.678L89.6728 154.349L89.6814 154.358L89.6902 154.367L90.4144 153.678ZM90.4144 148.085L89.6902 147.395L89.6894 147.396L90.4144 148.085ZM96.3642 161.115H97.3642V160.115H96.3642V161.115ZM96.3642 190.864V191.864H97.3642V190.864H96.3642ZM91.4853 190.864H90.4853V191.864H91.4853V190.864ZM91.4853 165.696H92.4853V164.696H91.4853V165.696ZM86.785 165.696H85.785V166.696H86.785V165.696ZM86.785 161.115V160.115H85.785V161.115H86.785ZM93.3298 147.835C94.2052 147.835 94.8852 148.138 95.4441 148.756L96.9272 147.414C95.9789 146.366 94.7549 145.835 93.3298 145.835V147.835ZM95.4786 148.792C96.0943 149.408 96.3756 150.089 96.3756 150.881H98.3756C98.3756 149.531 97.8637 148.349 96.8928 147.378L95.4786 148.792ZM96.3756 150.881C96.3756 151.625 96.0999 152.318 95.4615 152.988L96.9098 154.367C97.858 153.372 98.3756 152.2 98.3756 150.881H96.3756ZM95.4441 153.007C94.8852 153.625 94.2052 153.927 93.3298 153.927V155.927C94.7549 155.927 95.9789 155.397 96.9272 154.349L95.4441 153.007ZM93.3298 153.927C92.4531 153.927 91.7431 153.623 91.1385 152.988L89.6902 154.367C90.6723 155.399 91.9058 155.927 93.3298 155.927V153.927ZM91.1559 153.007C90.5525 152.34 90.2839 151.642 90.2839 150.881H88.2839C88.2839 152.184 88.7689 153.35 89.6728 154.349L91.1559 153.007ZM90.2839 150.881C90.2839 150.073 90.558 149.386 91.1394 148.774L89.6894 147.396C88.7634 148.371 88.2839 149.548 88.2839 150.881H90.2839ZM91.1385 148.775C91.7431 148.14 92.4531 147.835 93.3298 147.835V145.835C91.9058 145.835 90.6723 146.364 89.6902 147.395L91.1385 148.775ZM95.3642 161.115V190.864H97.3642V161.115H95.3642ZM96.3642 189.864H91.4853V191.864H96.3642V189.864ZM92.4853 190.864V165.696H90.4853V190.864H92.4853ZM91.4853 164.696H86.785V166.696H91.4853V164.696ZM87.785 165.696V161.115H85.785V165.696H87.785ZM86.785 162.115H96.3642V160.115H86.785V162.115ZM133.134 161.115L134.039 161.54L134.709 160.115H133.134V161.115ZM119.152 190.864V191.864H119.787L120.057 191.289L119.152 190.864ZM116.117 190.864L115.206 191.274L115.471 191.864H116.117V190.864ZM102.73 161.115V160.115H101.184L101.819 161.525L102.73 161.115ZM108.561 161.115L109.486 160.735L109.232 160.115H108.561V161.115ZM117.545 183.01L116.62 183.39L117.507 185.552L118.459 183.417L117.545 183.01ZM127.303 161.115V160.115H126.654L126.39 160.708L127.303 161.115ZM132.229 160.69L118.247 190.439L120.057 191.289L134.039 161.54L132.229 160.69ZM119.152 189.864H116.117V191.864H119.152V189.864ZM117.029 190.454L103.642 160.705L101.819 161.525L115.206 191.274L117.029 190.454ZM102.73 162.115H108.561V160.115H102.73V162.115ZM107.636 161.495L116.62 183.39L118.471 182.631L109.486 160.735L107.636 161.495ZM118.459 183.417L128.217 161.522L126.39 160.708L116.632 182.603L118.459 183.417ZM127.303 162.115H133.134V160.115H127.303V162.115ZM162.883 167.6L161.973 168.014L161.976 168.021L161.979 168.028L162.883 167.6ZM164.43 177.893V178.893H165.43V177.893H164.43ZM141.583 177.893V176.893H140.43L140.593 178.035L141.583 177.893ZM143.308 182.475L142.472 183.024L143.308 182.475ZM146.878 185.807L146.384 186.676L146.393 186.681L146.402 186.686L146.878 185.807ZM157.945 185.39L158.443 186.257L158.45 186.253L158.456 186.249L157.945 185.39ZM162.645 181.761L163.645 181.772L163.673 179.264L161.927 181.065L162.645 181.761ZM162.585 187.056L163.357 187.692L163.581 187.42L163.585 187.067L162.585 187.056ZM160.086 189.198L160.641 190.03L160.648 190.026L160.086 189.198ZM156.338 190.983L156.022 190.034L156.006 190.04L155.99 190.046L156.338 190.983ZM138.37 183.962L137.494 184.444L137.498 184.453L137.503 184.462L138.37 183.962ZM138.251 168.374L137.362 167.915L138.251 168.374ZM143.308 162.662L142.76 161.825L142.753 161.83L143.308 162.662ZM144.677 167.779L145.392 168.477L145.401 168.468L144.677 167.779ZM141.702 173.729L140.716 173.561L140.518 174.729H141.702V173.729ZM159.611 173.729V174.729H160.718L160.605 173.627L159.611 173.729ZM157.945 168.969L157.129 169.547L157.135 169.556L157.141 169.565L157.945 168.969ZM154.732 166.232L154.284 167.126L154.296 167.132L154.307 167.137L154.732 166.232ZM150.745 161.52C153.663 161.52 156.005 162.126 157.83 163.271L158.893 161.577C156.672 160.183 153.936 159.52 150.745 159.52V161.52ZM157.83 163.271C159.686 164.436 161.062 166.01 161.973 168.014L163.793 167.186C162.721 164.827 161.082 162.951 158.893 161.577L157.83 163.271ZM161.979 168.028C162.939 170.059 163.43 172.369 163.43 174.978H165.43C165.43 172.113 164.889 169.505 163.787 167.173L161.979 168.028ZM163.43 174.978V177.893H165.43V174.978H163.43ZM164.43 176.893H141.583V178.893H164.43V176.893ZM140.593 178.035C140.851 179.844 141.478 181.511 142.472 183.024L144.144 181.926C143.313 180.662 142.79 179.274 142.573 177.752L140.593 178.035ZM142.472 183.024C143.473 184.547 144.781 185.766 146.384 186.676L147.372 184.937C146.039 184.181 144.968 183.179 144.144 181.926L142.472 183.024ZM146.402 186.686C148.036 187.569 149.889 187.997 151.935 187.997V185.997C150.174 185.997 148.655 185.631 147.353 184.927L146.402 186.686ZM151.935 187.997C154.253 187.997 156.427 187.415 158.443 186.257L157.446 184.523C155.733 185.507 153.902 185.997 151.935 185.997V187.997ZM158.456 186.249C160.382 185.102 162.022 183.84 163.363 182.457L161.927 181.065C160.729 182.3 159.235 183.457 157.433 184.531L158.456 186.249ZM161.645 181.75L161.585 187.045L163.585 187.067L163.645 181.772L161.645 181.75ZM161.813 186.42C161.342 186.993 160.594 187.645 159.525 188.371L160.648 190.026C161.8 189.244 162.718 188.468 163.357 187.692L161.813 186.42ZM159.532 188.366C158.546 189.023 157.379 189.582 156.022 190.034L156.654 191.932C158.153 191.432 159.485 190.801 160.641 190.03L159.532 188.366ZM155.99 190.046C154.718 190.518 153.369 190.756 151.935 190.756V192.756C153.596 192.756 155.182 192.479 156.686 191.92L155.99 190.046ZM151.935 190.756C149.086 190.756 146.592 190.084 144.424 188.761L143.382 190.468C145.895 192.001 148.756 192.756 151.935 192.756V190.756ZM144.424 188.761C142.224 187.419 140.5 185.656 139.236 183.463L137.503 184.462C138.937 186.949 140.901 188.954 143.382 190.468L144.424 188.761ZM139.246 183.48C138.021 181.254 137.406 178.822 137.406 176.168H135.406C135.406 179.146 136.1 181.911 137.494 184.444L139.246 183.48ZM137.406 176.168C137.406 173.503 137.987 171.063 139.139 168.833L137.362 167.915C136.056 170.444 135.406 173.2 135.406 176.168H137.406ZM139.139 168.833C140.294 166.597 141.868 164.824 143.863 163.494L142.753 161.83C140.465 163.356 138.666 165.391 137.362 167.915L139.139 168.833ZM143.856 163.499C145.864 162.184 148.15 161.52 150.745 161.52V159.52C147.787 159.52 145.116 160.284 142.76 161.825L143.856 163.499ZM150.745 164.28C148.033 164.28 145.742 165.21 143.952 167.089L145.401 168.468C146.784 167.015 148.539 166.28 150.745 166.28V164.28ZM143.961 167.08C142.226 168.859 141.145 171.03 140.716 173.561L142.688 173.896C143.052 171.746 143.954 169.951 145.392 168.477L143.961 167.08ZM141.702 174.729H159.611V172.729H141.702V174.729ZM160.605 173.627C160.394 171.553 159.793 169.782 158.748 168.373L157.141 169.565C157.921 170.615 158.431 172.017 158.616 173.83L160.605 173.627ZM158.76 168.39C157.795 167.031 156.594 166 155.156 165.326L154.307 167.137C155.408 167.653 156.349 168.448 157.129 169.547L158.76 168.39ZM155.179 165.337C153.774 164.635 152.292 164.28 150.745 164.28V166.28C151.975 166.28 153.151 166.559 154.284 167.126L155.179 165.337ZM177.341 161.115H178.341V160.115H177.341V161.115ZM177.341 167.065H176.341V170.782L178.206 167.567L177.341 167.065ZM189.597 161.115H190.597V160.459L189.996 160.198L189.597 161.115ZM189.597 166.767L189.087 167.627L190.597 168.524V166.767H189.597ZM180.851 167.779L180.104 167.114L180.099 167.12L180.094 167.126L180.851 167.779ZM177.341 172.896L176.468 172.407L176.341 172.635V172.896H177.341ZM177.341 190.864V191.864H178.341V190.864H177.341ZM172.462 190.864H171.462V191.864H172.462V190.864ZM172.462 161.115V160.115H171.462V161.115H172.462ZM176.341 161.115V167.065H178.341V161.115H176.341ZM178.206 167.567C179.296 165.686 180.596 164.21 182.096 163.112L180.915 161.498C179.163 162.78 177.686 164.477 176.476 166.563L178.206 167.567ZM182.096 163.112C183.583 162.024 185.047 161.52 186.504 161.52V159.52C184.549 159.52 182.681 160.206 180.915 161.498L182.096 163.112ZM186.504 161.52C187.538 161.52 188.43 161.698 189.199 162.032L189.996 160.198C188.94 159.739 187.77 159.52 186.504 159.52V161.52ZM188.597 161.115V166.767H190.597V161.115H188.597ZM190.108 165.907C188.71 165.077 187.266 164.637 185.79 164.637V166.637C186.852 166.637 187.947 166.95 189.087 167.627L190.108 165.907ZM185.79 164.637C183.5 164.637 181.575 165.459 180.104 167.114L181.599 168.443C182.666 167.243 184.033 166.637 185.79 166.637V164.637ZM180.094 167.126C178.812 168.614 177.605 170.377 176.468 172.407L178.213 173.384C179.298 171.448 180.431 169.799 181.609 168.431L180.094 167.126ZM176.341 172.896V190.864H178.341V172.896H176.341ZM177.341 189.864H172.462V191.864H177.341V189.864ZM173.462 190.864V161.115H171.462V190.864H173.462ZM172.462 162.115H177.341V160.115H172.462V162.115Z" fill="#CC00FF" fill-opacity="0.4"/>
</svg>
