<svg width="225" height="192" viewBox="0 0 225 192" fill="none" xmlns="http://www.w3.org/2000/svg">
<path d="M15.1813 4.02208C19.6635 4.02208 23.4515 4.93438 26.5454 6.75899C29.679 8.58359 32.0589 11.0627 33.6851 14.1962C35.3511 17.2901 36.1841 20.8005 36.1841 24.7274C36.1841 28.6542 35.3511 32.1845 33.6851 35.318C32.0589 38.4119 29.679 40.8712 26.5454 42.6958C23.4515 44.5204 19.6635 45.4327 15.1813 45.4327C12.4444 45.4327 9.92562 45.2938 7.62504 45.0162C5.32445 44.7385 2.96436 44.3815 0.544777 43.9452V5.50953C2.96436 5.07321 5.32445 4.71622 7.62504 4.43857C9.92562 4.16091 12.4444 4.02208 15.1813 4.02208ZM15.1813 9.07941C13.7533 9.07941 12.2262 9.13891 10.5999 9.2579C8.97366 9.33723 7.40688 9.47606 5.89959 9.67439V39.7804C7.40688 39.939 8.97366 40.0779 10.5999 40.1969C12.2262 40.3158 13.7533 40.3753 15.1813 40.3753C18.3942 40.3753 21.1509 39.701 23.4515 38.3524C25.7918 36.9641 27.5767 35.0999 28.8063 32.7596C30.0756 30.3797 30.7103 27.7023 30.7103 24.7274C30.7103 21.7525 30.0756 19.0949 28.8063 16.7546C27.5767 14.3747 25.7918 12.5105 23.4515 11.1618C21.1509 9.77355 18.3942 9.07941 15.1813 9.07941ZM56.4729 14.4937C59.5271 14.4937 62.0657 15.1284 64.0886 16.3977C66.1115 17.667 67.6188 19.3924 68.6105 21.574C69.6418 23.7556 70.1574 26.2148 70.1574 28.9517V31.8671H47.3102C47.5482 33.5331 48.1233 35.0602 49.0356 36.4485C49.9479 37.8368 51.1379 38.9474 52.6055 39.7804C54.0731 40.5737 55.7589 40.9703 57.6628 40.9703C59.8048 40.9703 61.8079 40.4348 63.6721 39.3639C65.5364 38.2532 67.1032 37.0435 68.3725 35.7345L68.313 41.0298C67.7577 41.7041 66.9247 42.4181 65.8141 43.1717C64.7431 43.8857 63.4936 44.4807 62.0657 44.9567C60.6774 45.4723 59.2098 45.7302 57.6628 45.7302C54.6483 45.7302 51.9709 45.0162 49.6306 43.5882C47.2904 42.1603 45.4459 40.2762 44.0973 37.9359C42.7883 35.556 42.1339 32.9579 42.1339 30.1417C42.1339 27.3255 42.7487 24.7274 43.9783 22.3475C45.2079 19.9675 46.8937 18.0636 49.0356 16.6357C51.2172 15.2077 53.6963 14.4937 56.4729 14.4937ZM56.4729 19.2536C54.0136 19.2536 51.9907 20.0865 50.4041 21.7525C48.8175 23.3788 47.8258 25.362 47.4292 27.7023H65.3381C65.1397 25.7587 64.5844 24.1721 63.6721 22.9424C62.7995 21.7128 61.7285 20.8005 60.4592 20.2055C59.1899 19.5709 57.8612 19.2536 56.4729 19.2536ZM87.0548 14.4937C88.8001 14.4937 90.4264 14.7515 91.9337 15.2672C93.441 15.7432 94.5317 16.239 95.2061 16.7546V21.9905C94.3731 21.3558 93.2426 20.741 91.8147 20.146C90.3867 19.5511 88.9191 19.2536 87.4118 19.2536C85.5476 19.2536 84.1394 19.6899 83.1875 20.5625C82.2752 21.4352 81.819 22.3475 81.819 23.2994C81.819 24.0531 82.0768 24.8265 82.5925 25.6198C83.1478 26.3735 84.0998 26.9883 85.4484 27.4643L90.4462 29.2492C92.3898 29.9235 93.8376 30.8953 94.7896 32.1646C95.7415 33.4339 96.2175 34.9214 96.2175 36.627C96.2175 38.2929 95.7415 39.82 94.7896 41.2083C93.8773 42.5966 92.5881 43.7072 90.9222 44.5402C89.2959 45.3335 87.4118 45.7302 85.2699 45.7302C84.1196 45.7302 82.9098 45.5715 81.6405 45.2542C80.4109 44.9765 79.3003 44.6394 78.3086 44.2427C77.317 43.8064 76.5832 43.4296 76.1072 43.1123V37.8764C76.6625 38.2731 77.436 38.7292 78.4276 39.2449C79.4589 39.7209 80.5497 40.1374 81.7 40.4943C82.8503 40.8117 83.9213 40.9703 84.9129 40.9703C86.7772 40.9703 88.2448 40.5538 89.3158 39.7209C90.4264 38.8879 90.9817 37.8566 90.9817 36.627C90.9817 35.675 90.6049 34.9214 89.8512 34.366C89.1373 33.8107 88.0861 33.2753 86.6978 32.7596L82.295 31.1532C79.9944 30.2805 78.4673 29.1897 77.7137 27.8808C76.96 26.5321 76.5832 25.005 76.5832 23.2994C76.5832 20.7608 77.5352 18.6586 79.4391 16.9926C81.343 15.3267 83.8816 14.4937 87.0548 14.4937ZM108.415 0.809191C109.565 0.809191 110.517 1.22568 111.271 2.05865C112.064 2.85195 112.46 3.78409 112.46 4.85505C112.46 5.88635 112.064 6.81849 111.271 7.65146C110.517 8.48443 109.565 8.90092 108.415 8.90092C107.264 8.90092 106.293 8.48443 105.499 7.65146C104.746 6.81849 104.369 5.88635 104.369 4.85505C104.369 3.78409 104.746 2.85195 105.499 2.05865C106.293 1.22568 107.264 0.809191 108.415 0.809191ZM111.449 15.0887V44.8377H106.57V19.67H101.87V15.0887H111.449ZM134.237 14.4937C135.942 14.4937 137.668 14.9102 139.413 15.7432C141.198 16.5365 142.725 17.6471 143.994 19.0751V15.0887H148.873V44.2427C148.873 47.7729 148.159 50.7082 146.731 53.0484C145.303 55.3887 143.399 57.1339 141.019 58.2842C138.64 59.4345 136.041 60.0097 133.225 60.0097C131.401 60.0097 129.834 59.7915 128.525 59.3552C127.256 58.9585 126.165 58.4429 125.253 57.8083C124.34 57.2133 123.507 56.6381 122.754 56.0828V50.847C123.349 51.2833 124.122 51.8386 125.074 52.5129C126.066 53.2269 127.236 53.8616 128.584 54.4169C129.973 54.9722 131.52 55.2498 133.225 55.2498C135.169 55.2498 136.954 54.8929 138.58 54.1789C140.206 53.4649 141.515 52.4138 142.507 51.0255C143.499 49.6372 143.994 47.9713 143.994 46.0277V39.7804C142.963 41.367 141.555 42.7553 139.77 43.9452C138.025 45.1352 136.022 45.7302 133.761 45.7302C131.222 45.7302 128.902 45.0955 126.799 43.8262C124.697 42.5173 123.011 40.7125 121.742 38.4119C120.513 36.1113 119.898 33.4537 119.898 30.4392C119.898 27.147 120.513 24.3109 121.742 21.931C123.011 19.5511 124.737 17.7264 126.918 16.4572C129.1 15.1482 131.539 14.4937 134.237 14.4937ZM135.129 19.3131C132.987 19.3131 131.163 19.8485 129.655 20.9195C128.148 21.9508 126.978 23.3193 126.145 25.0249C125.352 26.6908 124.955 28.4956 124.955 30.4392C124.955 32.3431 125.352 34.0884 126.145 35.675C126.938 37.2616 128.049 38.5309 129.477 39.4829C130.945 40.4348 132.63 40.9108 134.534 40.9108C136.359 40.9108 137.985 40.4348 139.413 39.4829C140.841 38.5309 141.971 37.222 142.804 35.556C143.637 33.8901 144.034 32.006 143.994 29.9037L143.935 24.1919C142.705 22.6449 141.376 21.455 139.949 20.622C138.56 19.7494 136.954 19.3131 135.129 19.3131ZM163.867 15.0887V19.789C164.501 18.9957 165.315 18.2024 166.306 17.4091C167.298 16.5762 168.408 15.882 169.638 15.3267C170.907 14.7714 172.216 14.4937 173.565 14.4937C175.588 14.4937 177.432 14.9499 179.098 15.8622C180.764 16.7348 182.093 18.0834 183.085 19.908C184.076 21.693 184.572 23.9539 184.572 26.6908V44.8377H179.693L179.634 27.1668C179.634 24.5885 179.059 22.6251 177.908 21.2765C176.798 19.9279 175.072 19.2536 172.732 19.2536C171.145 19.2536 169.559 19.8485 167.972 21.0385C166.425 22.1888 165.057 23.5374 163.867 25.0844V44.8377H158.988V15.0887H163.867ZM15.1813 77.0221C19.6635 77.0221 23.4515 77.9344 26.5454 79.759C29.679 81.5836 32.0589 84.0627 33.6851 87.1962C35.3511 90.2901 36.1841 93.8005 36.1841 97.7274C36.1841 101.654 35.3511 105.184 33.6851 108.318C32.0589 111.412 29.679 113.871 26.5454 115.696C23.4515 117.52 19.6635 118.433 15.1813 118.433C12.4444 118.433 9.92562 118.294 7.62504 118.016C5.32445 117.739 2.96436 117.382 0.544777 116.945V78.5095C2.96436 78.0732 5.32445 77.7162 7.62504 77.4386C9.92562 77.1609 12.4444 77.0221 15.1813 77.0221ZM15.1813 82.0794C13.7533 82.0794 12.2262 82.1389 10.5999 82.2579C8.97366 82.3372 7.40688 82.4761 5.89959 82.6744V112.78C7.40688 112.939 8.97366 113.078 10.5999 113.197C12.2262 113.316 13.7533 113.375 15.1813 113.375C18.3942 113.375 21.1509 112.701 23.4515 111.352C25.7918 109.964 27.5767 108.1 28.8063 105.76C30.0756 103.38 30.7103 100.702 30.7103 97.7274C30.7103 94.7525 30.0756 92.0949 28.8063 89.7546C27.5767 87.3747 25.7918 85.5105 23.4515 84.1618C21.1509 82.7736 18.3942 82.0794 15.1813 82.0794ZM56.4729 87.4937C59.5271 87.4937 62.0657 88.1284 64.0886 89.3977C66.1115 90.667 67.6188 92.3924 68.6105 94.574C69.6418 96.7556 70.1574 99.2148 70.1574 101.952V104.867H47.3102C47.5482 106.533 48.1233 108.06 49.0356 109.448C49.9479 110.837 51.1379 111.947 52.6055 112.78C54.0731 113.574 55.7589 113.97 57.6628 113.97C59.8048 113.97 61.8079 113.435 63.6721 112.364C65.5364 111.253 67.1032 110.043 68.3725 108.735L68.313 114.03C67.7577 114.704 66.9247 115.418 65.8141 116.172C64.7431 116.886 63.4936 117.481 62.0657 117.957C60.6774 118.472 59.2098 118.73 57.6628 118.73C54.6483 118.73 51.9709 118.016 49.6306 116.588C47.2904 115.16 45.4459 113.276 44.0973 110.936C42.7883 108.556 42.1339 105.958 42.1339 103.142C42.1339 100.325 42.7487 97.7274 43.9783 95.3475C45.2079 92.9675 46.8937 91.0636 49.0356 89.6357C51.2172 88.2077 53.6963 87.4937 56.4729 87.4937ZM56.4729 92.2536C54.0136 92.2536 51.9907 93.0865 50.4041 94.7525C48.8175 96.3788 47.8258 98.362 47.4292 100.702H65.3381C65.1397 98.7587 64.5844 97.1721 63.6721 95.9424C62.7995 94.7128 61.7285 93.8005 60.4592 93.2055C59.1899 92.5709 57.8612 92.2536 56.4729 92.2536ZM104.428 88.0887L90.4462 117.838H87.4118L74.0248 88.0887H79.8556L88.8398 109.984L98.5974 88.0887H104.428ZM122.04 87.4937C125.094 87.4937 127.632 88.1284 129.655 89.3977C131.678 90.667 133.186 92.3924 134.177 94.574C135.209 96.7556 135.724 99.2148 135.724 101.952V104.867H112.877C113.115 106.533 113.69 108.06 114.602 109.448C115.515 110.837 116.705 111.947 118.172 112.78C119.64 113.574 121.326 113.97 123.23 113.97C125.372 113.97 127.375 113.435 129.239 112.364C131.103 111.253 132.67 110.043 133.939 108.735L133.88 114.03C133.324 114.704 132.491 115.418 131.381 116.172C130.31 116.886 129.06 117.481 127.632 117.957C126.244 118.472 124.777 118.73 123.23 118.73C120.215 118.73 117.538 118.016 115.197 116.588C112.857 115.16 111.013 113.276 109.664 110.936C108.355 108.556 107.701 105.958 107.701 103.142C107.701 100.325 108.315 97.7274 109.545 95.3475C110.775 92.9675 112.46 91.0636 114.602 89.6357C116.784 88.2077 119.263 87.4937 122.04 87.4937ZM122.04 92.2536C119.58 92.2536 117.557 93.0865 115.971 94.7525C114.384 96.3788 113.393 98.362 112.996 100.702H130.905C130.707 98.7587 130.151 97.1721 129.239 95.9424C128.366 94.7128 127.295 93.8005 126.026 93.2055C124.757 92.5709 123.428 92.2536 122.04 92.2536ZM148.635 74.9992V117.838H143.756V74.9992H148.635ZM172.196 87.4937C175.211 87.4937 177.888 88.2077 180.229 89.6357C182.569 91.0636 184.394 92.9675 185.702 95.3475C187.051 97.7274 187.725 100.325 187.725 103.142C187.725 105.958 187.051 108.556 185.702 110.936C184.394 113.276 182.569 115.16 180.229 116.588C177.888 118.016 175.211 118.73 172.196 118.73C169.182 118.73 166.504 118.016 164.164 116.588C161.824 115.16 159.98 113.276 158.631 110.936C157.322 108.556 156.667 105.958 156.667 103.142C156.667 100.325 157.322 97.7274 158.631 95.3475C159.98 92.9675 161.824 91.0636 164.164 89.6357C166.504 88.2077 169.182 87.4937 172.196 87.4937ZM172.196 92.2536C170.094 92.2536 168.25 92.7692 166.663 93.8005C165.077 94.7921 163.847 96.1209 162.974 97.7869C162.141 99.4132 161.725 101.198 161.725 103.142C161.725 105.046 162.141 106.831 162.974 108.497C163.847 110.123 165.077 111.452 166.663 112.483C168.25 113.475 170.094 113.97 172.196 113.97C174.338 113.97 176.183 113.475 177.73 112.483C179.316 111.452 180.526 110.123 181.359 108.497C182.232 106.831 182.668 105.046 182.668 103.142C182.668 101.198 182.232 99.4132 181.359 97.7869C180.526 96.1209 179.316 94.7921 177.73 93.8005C176.183 92.7692 174.338 92.2536 172.196 92.2536ZM210.87 87.4937C213.448 87.4937 215.769 88.1284 217.831 89.3977C219.934 90.6273 221.6 92.3726 222.829 94.6335C224.098 96.8547 224.733 99.4727 224.733 102.487C224.733 105.74 224.098 108.596 222.829 111.055C221.6 113.475 219.894 115.359 217.712 116.707C215.57 118.056 213.131 118.73 210.394 118.73C208.689 118.73 206.943 118.274 205.158 117.362C203.413 116.449 201.906 115.279 200.636 113.851V132.117H195.758V88.0887H200.636V93.146C201.668 91.5594 203.056 90.2306 204.801 89.1597C206.586 88.049 208.609 87.4937 210.87 87.4937ZM210.097 92.2536C208.312 92.2536 206.685 92.7097 205.218 93.622C203.79 94.5343 202.659 95.8036 201.826 97.4299C201.033 99.0165 200.636 100.881 200.636 103.023L200.696 108.735C201.965 110.281 203.294 111.551 204.682 112.542C206.071 113.494 207.677 113.97 209.502 113.97C211.644 113.97 213.468 113.415 214.975 112.304C216.483 111.194 217.633 109.766 218.426 108.021C219.259 106.236 219.676 104.391 219.676 102.487C219.676 100.544 219.279 98.8182 218.486 97.3109C217.693 95.7639 216.582 94.5343 215.154 93.622C213.726 92.7097 212.04 92.2536 210.097 92.2536ZM15.1813 150.022C19.6635 150.022 23.4515 150.934 26.5454 152.759C29.679 154.584 32.0589 157.063 33.6851 160.196C35.3511 163.29 36.1841 166.801 36.1841 170.727C36.1841 174.654 35.3511 178.184 33.6851 181.318C32.0589 184.412 29.679 186.871 26.5454 188.696C23.4515 190.52 19.6635 191.433 15.1813 191.433C12.4444 191.433 9.92562 191.294 7.62504 191.016C5.32445 190.739 2.96436 190.382 0.544777 189.945V151.51C2.96436 151.073 5.32445 150.716 7.62504 150.439C9.92562 150.161 12.4444 150.022 15.1813 150.022ZM15.1813 155.079C13.7533 155.079 12.2262 155.139 10.5999 155.258C8.97366 155.337 7.40688 155.476 5.89959 155.674V185.78C7.40688 185.939 8.97366 186.078 10.5999 186.197C12.2262 186.316 13.7533 186.375 15.1813 186.375C18.3942 186.375 21.1509 185.701 23.4515 184.352C25.7918 182.964 27.5767 181.1 28.8063 178.76C30.0756 176.38 30.7103 173.702 30.7103 170.727C30.7103 167.752 30.0756 165.095 28.8063 162.755C27.5767 160.375 25.7918 158.51 23.4515 157.162C21.1509 155.774 18.3942 155.079 15.1813 155.079ZM56.4729 160.494C59.5271 160.494 62.0657 161.128 64.0886 162.398C66.1115 163.667 67.6188 165.392 68.6105 167.574C69.6418 169.756 70.1574 172.215 70.1574 174.952V177.867H47.3102C47.5482 179.533 48.1233 181.06 49.0356 182.448C49.9479 183.837 51.1379 184.947 52.6055 185.78C54.0731 186.574 55.7589 186.97 57.6628 186.97C59.8048 186.97 61.8079 186.435 63.6721 185.364C65.5364 184.253 67.1032 183.043 68.3725 181.735L68.313 187.03C67.7577 187.704 66.9247 188.418 65.8141 189.172C64.7431 189.886 63.4936 190.481 62.0657 190.957C60.6774 191.472 59.2098 191.73 57.6628 191.73C54.6483 191.73 51.9709 191.016 49.6306 189.588C47.2904 188.16 45.4459 186.276 44.0973 183.936C42.7883 181.556 42.1339 178.958 42.1339 176.142C42.1339 173.325 42.7487 170.727 43.9783 168.347C45.2079 165.968 46.8937 164.064 49.0356 162.636C51.2172 161.208 53.6963 160.494 56.4729 160.494ZM56.4729 165.254C54.0136 165.254 51.9907 166.087 50.4041 167.752C48.8175 169.379 47.8258 171.362 47.4292 173.702H65.3381C65.1397 171.759 64.5844 170.172 63.6721 168.942C62.7995 167.713 61.7285 166.801 60.4592 166.206C59.1899 165.571 57.8612 165.254 56.4729 165.254ZM83.0685 147.999V190.838H78.1896V147.999H83.0685ZM97.943 146.809C99.0933 146.809 100.045 147.226 100.799 148.059C101.592 148.852 101.989 149.784 101.989 150.855C101.989 151.886 101.592 152.818 100.799 153.651C100.045 154.484 99.0933 154.901 97.943 154.901C96.7927 154.901 95.8209 154.484 95.0276 153.651C94.2739 152.818 93.8971 151.886 93.8971 150.855C93.8971 149.784 94.2739 148.852 95.0276 148.059C95.8209 147.226 96.7927 146.809 97.943 146.809ZM100.977 161.089V190.838H96.0985V165.67H91.3982V161.089H100.977ZM137.747 161.089L123.765 190.838H120.731L107.344 161.089H113.174L122.159 182.984L131.916 161.089H137.747ZM155.359 160.494C158.413 160.494 160.951 161.128 162.974 162.398C164.997 163.667 166.504 165.392 167.496 167.574C168.527 169.756 169.043 172.215 169.043 174.952V177.867H146.196C146.434 179.533 147.009 181.06 147.921 182.448C148.834 183.837 150.024 184.947 151.491 185.78C152.959 186.574 154.645 186.97 156.548 186.97C158.69 186.97 160.693 186.435 162.558 185.364C164.422 184.253 165.989 183.043 167.258 181.735L167.199 187.03C166.643 187.704 165.81 188.418 164.7 189.172C163.629 189.886 162.379 190.481 160.951 190.957C159.563 191.472 158.095 191.73 156.548 191.73C153.534 191.73 150.856 191.016 148.516 189.588C146.176 188.16 144.332 186.276 142.983 183.936C141.674 181.556 141.02 178.958 141.02 176.142C141.02 173.325 141.634 170.727 142.864 168.347C144.094 165.968 145.779 164.064 147.921 162.636C150.103 161.208 152.582 160.494 155.359 160.494ZM155.359 165.254C152.899 165.254 150.876 166.087 149.29 167.752C147.703 169.379 146.711 171.362 146.315 173.702H164.224C164.025 171.759 163.47 170.172 162.558 168.942C161.685 167.713 160.614 166.801 159.345 166.206C158.076 165.571 156.747 165.254 155.359 165.254ZM181.954 161.089V167.039C183.104 165.055 184.493 163.469 186.119 162.279C187.745 161.089 189.411 160.494 191.117 160.494C192.267 160.494 193.298 160.692 194.211 161.089V166.741C192.941 165.987 191.672 165.611 190.403 165.611C188.38 165.611 186.734 166.325 185.464 167.752C184.235 169.18 183.065 170.886 181.954 172.869V190.838H177.075V161.089H181.954Z" fill="white"/>
</svg>
