<svg width="237" height="225" viewBox="0 0 237 225" fill="none" xmlns="http://www.w3.org/2000/svg">
<path  fill="#FFFFFF" fill-opacity="0.2" d="M42.4884 20.0255H43.4884V19.0255H42.4884V20.0255ZM42.4884 62.864V63.864H43.4884V62.864H42.4884ZM37.6096 62.864H36.6096V63.864H37.6096V62.864ZM37.6096 57.8067H38.6096V54.4333L36.7712 57.2617L37.6096 57.8067ZM33.3852 61.9715L32.8305 61.1394L32.8219 61.1453L33.3852 61.9715ZM20.4147 61.8525L19.8861 62.7015L19.8978 62.7086L20.4147 61.8525ZM15.3574 56.4382L14.4754 56.9096L14.4818 56.9213L15.3574 56.4382ZM15.3574 39.9573L14.4749 39.4866L14.4689 39.4983L15.3574 39.9573ZM20.5337 34.4835L21.0366 35.3479L21.0482 35.341L20.5337 34.4835ZM33.0283 33.7695L32.5975 34.672L32.6097 34.6778L32.6221 34.6833L33.0283 33.7695ZM37.6096 37.1014L36.8622 37.7657L38.6096 39.7316V37.1014H37.6096ZM37.6096 20.0255V19.0255H36.6096V20.0255H37.6096ZM23.2706 39.0053L23.8353 39.8306L23.8426 39.8256L23.8498 39.8205L23.2706 39.0053ZM19.7602 43.0512L18.8658 42.604L18.8615 42.6126L18.8574 42.6212L19.7602 43.0512ZM19.7602 53.7608L18.8614 54.1993L18.8658 54.208L19.7602 53.7608ZM23.0921 57.5687L22.5374 58.4008L22.5479 58.4076L23.0921 57.5687ZM36.4196 53.6418L37.3141 54.089L37.3182 54.0806L36.4196 53.6418ZM37.6096 47.93L36.6096 47.9404L36.6098 47.9489L37.6096 47.93ZM37.5501 42.2182L38.5501 42.2078L38.5465 41.8646L38.3329 41.596L37.5501 42.2182ZM33.5637 38.6483L33.0492 39.5059L33.0599 39.5121L33.5637 38.6483ZM41.4884 20.0255V62.864H43.4884V20.0255H41.4884ZM42.4884 61.864H37.6096V63.864H42.4884V61.864ZM38.6096 62.864V57.8067H36.6096V62.864H38.6096ZM36.7712 57.2617C35.8232 58.72 34.5175 60.0149 32.8305 61.1395L33.9399 62.8036C35.8229 61.5483 37.3334 60.0665 38.448 58.3517L36.7712 57.2617ZM32.8219 61.1453C31.2546 62.2139 29.4508 62.7565 27.376 62.7565V64.7565C29.823 64.7565 32.0254 64.109 33.9486 62.7978L32.8219 61.1453ZM27.376 62.7565C25.0131 62.7565 22.8724 62.1683 20.9316 60.9965L19.8978 62.7086C22.1615 64.0753 24.6616 64.7565 27.376 64.7565V62.7565ZM20.9432 61.0036C18.9949 59.7905 17.4249 58.1156 16.2329 55.9551L14.4818 56.9213C15.8284 59.362 17.63 61.2966 19.8861 62.7014L20.9432 61.0036ZM16.2393 55.9668C15.0985 53.8324 14.5129 51.3414 14.5129 48.4655H12.5129C12.5129 51.6187 13.157 54.4429 14.4754 56.9096L16.2393 55.9668ZM14.5129 48.4655C14.5129 45.297 15.1044 42.6254 16.2458 40.4163L14.4689 39.4983C13.1511 42.0489 12.5129 45.0496 12.5129 48.4655H14.5129ZM16.2397 40.4279C17.4278 38.2002 19.0267 36.5172 21.0366 35.3478L20.0308 33.6191C17.6775 34.9883 15.8255 36.9545 14.475 39.4867L16.2397 40.4279ZM21.0482 35.341C23.0649 34.1309 25.3246 33.52 27.8519 33.52V31.52C24.9848 31.52 22.3657 32.2181 20.0192 33.626L21.0482 35.341ZM27.8519 33.52C29.3897 33.52 30.9687 33.8946 32.5975 34.672L33.459 32.867C31.5973 31.9785 29.7254 31.52 27.8519 31.52V33.52ZM32.6221 34.6833C34.2798 35.4201 35.6897 36.4467 36.8622 37.7657L38.357 36.437C36.9909 34.9001 35.3466 33.7055 33.4344 32.8557L32.6221 34.6833ZM38.6096 37.1014V20.0255H36.6096V37.1014H38.6096ZM37.6096 21.0255H42.4884V19.0255H37.6096V21.0255ZM28.7444 36.3989C26.4289 36.3989 24.3936 36.9807 22.6914 38.1901L23.8498 39.8205C25.1621 38.888 26.7761 38.3989 28.7444 38.3989V36.3989ZM22.7059 38.18C21.0555 39.3092 19.7732 40.7892 18.8658 42.604L20.6546 43.4984C21.4132 41.9813 22.4711 40.764 23.8353 39.8306L22.7059 38.18ZM18.8574 42.6212C17.9967 44.4286 17.5703 46.3813 17.5703 48.4655H19.5703C19.5703 46.6625 19.9371 45.0056 20.6631 43.4811L18.8574 42.6212ZM17.5703 48.4655C17.5703 50.5132 17.998 52.4293 18.8614 54.1992L20.659 53.3224C19.9358 51.8398 19.5703 50.2256 19.5703 48.4655H17.5703ZM18.8658 54.208C19.7342 55.9448 20.9596 57.3489 22.5374 58.4007L23.6468 56.7366C22.3686 55.8845 21.3728 54.75 20.6546 53.3136L18.8658 54.208ZM22.5479 58.4076C24.1919 59.474 26.0701 59.9966 28.1494 59.9966V57.9966C26.4209 57.9966 24.9276 57.5673 23.6363 56.7297L22.5479 58.4076ZM28.1494 59.9966C30.1583 59.9966 31.9802 59.4693 33.583 58.4007L32.4736 56.7366C31.2205 57.572 29.7897 57.9966 28.1494 57.9966V59.9966ZM33.583 58.4007C35.1679 57.3441 36.4101 55.8969 37.3141 54.089L35.5252 53.1946C34.7632 54.7186 33.7445 55.8893 32.4736 56.7366L33.583 58.4007ZM37.3182 54.0806C38.2279 52.2179 38.6518 50.1545 38.6094 47.9111L36.6098 47.9489C36.6468 49.91 36.2773 51.6546 35.5211 53.203L37.3182 54.0806ZM38.6095 47.9196L38.5501 42.2078L36.5502 42.2286L36.6097 47.9404L38.6095 47.9196ZM38.3329 41.596C37.0408 39.9704 35.6214 38.6909 34.0676 37.7845L33.0599 39.5121C34.362 40.2717 35.6001 41.3721 36.7673 42.8404L38.3329 41.596ZM34.0782 37.7908C32.5155 36.8532 30.7267 36.3989 28.7444 36.3989V38.3989C30.4113 38.3989 31.8354 38.7775 33.0492 39.5058L34.0782 37.7908ZM76.9973 39.6003L76.0869 40.0141L76.09 40.0209L76.0932 40.0277L76.9973 39.6003ZM78.5442 49.8934V50.8934H79.5442V49.8934H78.5442ZM55.697 49.8934V48.8934H54.544L54.707 50.0349L55.697 49.8934ZM57.4224 54.4748L56.5867 55.024L57.4224 54.4748ZM60.9923 57.8067L60.4987 58.6764L60.5077 58.6815L60.5168 58.6864L60.9923 57.8067ZM72.0589 57.3902L72.5571 58.2573L72.5639 58.2533L72.5707 58.2493L72.0589 57.3902ZM76.7593 53.7608L77.7592 53.772L77.7874 51.2641L76.0414 53.0647L76.7593 53.7608ZM76.6998 59.0561L77.4717 59.6918L77.6957 59.4198L77.6997 59.0674L76.6998 59.0561ZM74.2009 61.1981L74.7556 62.0301L74.7624 62.0255L74.2009 61.1981ZM70.4525 62.983L70.1363 62.0343L70.1202 62.0397L70.1043 62.0456L70.4525 62.983ZM52.4841 55.9622L51.6079 56.4442L51.6127 56.4529L51.6177 56.4615L52.4841 55.9622ZM52.3651 40.3738L51.4767 39.9147L52.3651 40.3738ZM57.4224 34.662L56.8748 33.8252L56.8677 33.8299L57.4224 34.662ZM58.7909 39.7788L59.5067 40.4772L59.515 40.4684L58.7909 39.7788ZM55.816 45.7286L54.83 45.5615L54.6322 46.7286H55.816V45.7286ZM73.7249 45.7286V46.7286H74.8321L74.7197 45.6271L73.7249 45.7286ZM72.0589 40.9687L71.2434 41.5475L71.2495 41.5561L71.2558 41.5646L72.0589 40.9687ZM68.846 38.2318L68.3988 39.1263L68.4101 39.1319L68.4216 39.1373L68.846 38.2318ZM64.8597 33.52C67.7777 33.52 70.1191 34.126 71.9439 35.271L73.0069 33.5769C70.7859 32.1833 68.0501 31.52 64.8597 31.52V33.52ZM71.9439 35.271C73.8002 36.4358 75.1761 38.0103 76.0869 40.0141L77.9076 39.1865C76.8352 36.8271 75.1965 34.9507 73.0069 33.5769L71.9439 35.271ZM76.0932 40.0277C77.0533 42.0588 77.5442 44.369 77.5442 46.978H79.5442C79.5442 44.1132 79.0038 41.505 77.9013 39.1729L76.0932 40.0277ZM77.5442 46.978V49.8934H79.5442V46.978H77.5442ZM78.5442 48.8934H55.697V50.8934H78.5442V48.8934ZM54.707 50.0349C54.9656 51.8445 55.5926 53.5111 56.5867 55.024L58.2581 53.9256C57.4277 52.6619 56.9044 51.2743 56.6869 49.752L54.707 50.0349ZM56.5867 55.024C57.5875 56.5468 58.8955 57.7665 60.4987 58.6764L61.4859 56.937C60.1538 56.1809 59.082 55.1793 58.2581 53.9256L56.5867 55.024ZM60.5168 58.6864C62.15 59.5692 64.0034 59.9966 66.0496 59.9966V57.9966C64.288 57.9966 62.7699 57.6308 61.4678 56.927L60.5168 58.6864ZM66.0496 59.9966C68.3671 59.9966 70.5418 59.415 72.5571 58.2573L71.5608 56.5231C69.8475 57.5073 68.0161 57.9966 66.0496 57.9966V59.9966ZM72.5707 58.2493C74.4967 57.1019 76.1363 55.8397 77.4772 54.457L76.0414 53.0647C74.8436 54.2998 73.3497 55.4572 71.5471 56.5311L72.5707 58.2493ZM75.7593 53.7496L75.6998 59.0449L77.6997 59.0674L77.7592 53.772L75.7593 53.7496ZM75.9278 58.4204C75.4564 58.9928 74.7085 59.6451 73.6394 60.3706L74.7624 62.0255C75.9144 61.2438 76.8325 60.4681 77.4717 59.6918L75.9278 58.4204ZM73.6462 60.366C72.6604 61.0232 71.4938 61.5818 70.1363 62.0343L70.7687 63.9317C72.2671 63.4322 73.5994 62.8009 74.7556 62.0301L73.6462 60.366ZM70.1043 62.0456C68.8324 62.518 67.4831 62.7565 66.0496 62.7565V64.7565C67.7101 64.7565 69.296 64.4793 70.8007 63.9204L70.1043 62.0456ZM66.0496 62.7565C63.1999 62.7565 60.7063 62.0837 58.5383 60.7609L57.4965 62.4682C60.0091 64.0012 62.8702 64.7565 66.0496 64.7565V62.7565ZM58.5383 60.7609C56.3388 59.4189 54.6142 57.6557 53.3505 55.4629L51.6177 56.4615C53.0513 58.9492 55.0155 60.9543 57.4965 62.4682L58.5383 60.7609ZM53.3603 55.4803C52.1356 53.2536 51.5207 50.8222 51.5207 48.168H49.5207C49.5207 51.1463 50.2147 53.911 51.6079 56.4442L53.3603 55.4803ZM51.5207 48.168C51.5207 45.503 52.101 43.0635 53.2535 40.8328L51.4767 39.9147C50.17 42.4439 49.5207 45.2005 49.5207 48.168H51.5207ZM53.2535 40.8328C54.4086 38.5971 55.9821 36.824 57.9771 35.494L56.8677 33.8299C54.5789 35.3558 52.7808 37.3906 51.4767 39.9147L53.2535 40.8328ZM57.9701 35.4987C59.9782 34.1843 62.2644 33.52 64.8597 33.52V31.52C61.9018 31.52 59.2299 32.2837 56.8748 33.8253L57.9701 35.4987ZM64.8597 36.2799C62.1478 36.2799 59.8562 37.2103 58.0667 39.0891L59.515 40.4684C60.8988 39.0154 62.653 38.2799 64.8597 38.2799V36.2799ZM58.0751 39.0805C56.34 40.859 55.2591 43.0303 54.83 45.5615L56.8019 45.8957C57.1662 43.7463 58.0686 41.9511 59.5067 40.4771L58.0751 39.0805ZM55.816 46.7286H73.7249V44.7286H55.816V46.7286ZM74.7197 45.6271C74.5081 43.5531 73.9074 41.7818 72.862 40.3729L71.2558 41.5646C72.0351 42.6149 72.545 44.0169 72.73 45.8301L74.7197 45.6271ZM72.8744 40.39C71.9096 39.0305 70.7079 38.0002 69.2705 37.3264L68.4216 39.1373C69.5227 39.6535 70.4629 40.4477 71.2434 41.5475L72.8744 40.39ZM69.2933 37.3374C67.8883 36.6349 66.4067 36.2799 64.8597 36.2799V38.2799C66.0892 38.2799 67.2652 38.5594 68.3988 39.1263L69.2933 37.3374ZM100.32 33.2935L99.9968 34.2397L100.008 34.2435L100.019 34.2471L100.32 33.2935ZM103.593 34.781H104.593V34.2868L104.2 33.9866L103.593 34.781ZM103.593 40.0168L102.987 40.8122L104.593 42.0359V40.0168H103.593ZM91.5743 38.5888L90.8985 37.8517L90.8907 37.8588L90.883 37.8662L91.5743 38.5888ZM90.9793 43.6462L90.1408 44.1911L90.1568 44.2157L90.1742 44.2394L90.9793 43.6462ZM93.8352 45.4906L94.1715 44.5488L94.168 44.5476L93.8352 45.4906ZM98.833 47.2755L98.4967 48.2173L98.5052 48.2203L98.833 47.2755ZM103.176 59.2346L102.352 58.6691L102.346 58.6772L102.341 58.6854L103.176 59.2346ZM99.309 62.5665L99.7474 63.4653L99.7562 63.4609L99.309 62.5665ZM90.0273 63.2805L90.2699 62.3103L90.2587 62.3076L90.2476 62.305L90.0273 63.2805ZM86.6954 62.269L86.2927 63.1843L86.3083 63.1912L86.324 63.1975L86.6954 62.269ZM84.494 61.1386H83.494V61.6737L83.9393 61.9706L84.494 61.1386ZM84.494 55.9027L85.0752 55.089L83.494 53.9595V55.9027H84.494ZM86.8144 57.2712L86.3531 58.1584L86.374 58.1693L86.3954 58.1791L86.8144 57.2712ZM90.0868 58.5206L89.7904 59.4757L89.8056 59.4804L89.8209 59.4846L90.0868 58.5206ZM97.7026 57.7472L97.1026 56.9472L97.0955 56.9524L97.0886 56.9578L97.7026 57.7472ZM98.238 52.3924L97.6241 53.1817L97.6344 53.1897L97.6448 53.1974L98.238 52.3924ZM95.0846 50.7859L95.4328 49.8485L95.4274 49.8465L95.0846 50.7859ZM90.6818 49.1795L90.3271 50.1145L90.339 50.1189L90.6818 49.1795ZM86.1004 45.9071L85.2274 46.3949L85.2338 46.406L86.1004 45.9071ZM95.4416 33.52C97.0873 33.52 98.6032 33.7629 99.9968 34.2397L100.644 32.3473C99.0232 31.7928 97.2865 31.52 95.4416 31.52V33.52ZM100.019 34.2471C101.494 34.7129 102.451 35.1669 102.985 35.5753L104.2 33.9866C103.386 33.3637 102.161 32.8261 100.622 32.3399L100.019 34.2471ZM102.593 34.781V40.0168H104.593V34.781H102.593ZM104.199 39.2213C103.274 38.5166 102.059 37.8631 100.586 37.2493L99.8169 39.0954C101.2 39.6716 102.246 40.2477 102.987 40.8122L104.199 39.2213ZM100.586 37.2493C99.0395 36.6049 97.4414 36.2799 95.7986 36.2799V38.2799C97.1704 38.2799 98.5075 38.5498 99.8169 39.0954L100.586 37.2493ZM95.7986 36.2799C93.7941 36.2799 92.1025 36.7481 90.8985 37.8517L92.25 39.326C92.95 38.6843 94.0746 38.2799 95.7986 38.2799V36.2799ZM90.883 37.8662C89.8406 38.8633 89.2058 40.0202 89.2058 41.3257H91.2058C91.2058 40.7273 91.4834 40.0596 92.2655 39.3115L90.883 37.8662ZM89.2058 41.3257C89.2058 42.3169 89.5466 43.277 90.1408 44.1911L91.8177 43.1012C91.3806 42.4287 91.2058 41.8419 91.2058 41.3257H89.2058ZM90.1742 44.2394C90.8958 45.2187 92.0579 45.9238 93.5024 46.4336L94.168 44.5476C92.9152 44.1054 92.1734 43.5809 91.7843 43.053L90.1742 44.2394ZM93.4988 46.4323L98.4967 48.2173L99.1694 46.3338L94.1715 44.5488L93.4988 46.4323ZM98.5052 48.2203C100.316 48.8485 101.575 49.7222 102.376 50.7909L103.976 49.5909C102.874 48.1211 101.237 47.0512 99.1608 46.3308L98.5052 48.2203ZM102.376 50.7909C103.189 51.8738 103.604 53.1468 103.604 54.6533H105.604C105.604 52.7485 105.068 51.0466 103.976 49.5909L102.376 50.7909ZM103.604 54.6533C103.604 56.1151 103.191 57.4454 102.352 58.6691L104.001 59.8002C105.066 58.2472 105.604 56.5233 105.604 54.6533H103.604ZM102.341 58.6854C101.536 59.9092 100.39 60.9082 98.8618 61.6721L99.7562 63.4609C101.56 62.5589 102.992 61.3366 104.012 59.7838L102.341 58.6854ZM98.8706 61.6677C97.4037 62.3833 95.6744 62.7565 93.6567 62.7565V64.7565C95.9229 64.7565 97.9617 64.3364 99.7474 63.4653L98.8706 61.6677ZM93.6567 62.7565C92.5984 62.7565 91.4705 62.6105 90.2699 62.3103L89.7848 64.2506C91.1227 64.5851 92.4143 64.7565 93.6567 64.7565V62.7565ZM90.2476 62.305C89.0606 62.037 88.0016 61.7144 87.0668 61.3405L86.324 63.1975C87.3725 63.6169 88.5348 63.9686 89.8071 64.2559L90.2476 62.305ZM87.0982 61.3537C86.1215 60.924 85.4513 60.5749 85.0487 60.3065L83.9393 61.9706C84.4887 62.3369 85.2861 62.7414 86.2927 63.1843L87.0982 61.3537ZM85.494 61.1386V55.9027H83.494V61.1386H85.494ZM83.9128 56.7165C84.5226 57.152 85.3425 57.6329 86.3531 58.1584L87.2758 56.384C86.3031 55.8782 85.5761 55.4467 85.0752 55.089L83.9128 56.7165ZM86.3954 58.1791C87.4688 58.6746 88.6007 59.1065 89.7904 59.4757L90.3832 57.5656C89.2723 57.2208 88.2227 56.8198 87.2335 56.3632L86.3954 58.1791ZM89.8209 59.4846C91.0408 59.8212 92.2022 59.9966 93.2997 59.9966V57.9966C92.414 57.9966 91.4334 57.8548 90.3527 57.5567L89.8209 59.4846ZM93.2997 59.9966C95.3043 59.9966 97.0147 59.5491 98.3165 58.5365L97.0886 56.9578C96.2485 57.6112 95.0237 57.9966 93.2997 57.9966V59.9966ZM98.3026 58.5472C99.6278 57.5533 100.368 56.2414 100.368 54.6533H98.3685C98.3685 55.5244 97.9986 56.2751 97.1026 56.9472L98.3026 58.5472ZM100.368 54.6533C100.368 53.3899 99.8457 52.3348 98.8312 51.5873L97.6448 53.1974C98.1376 53.5605 98.3685 54.0127 98.3685 54.6533H100.368ZM98.852 51.603C98.0227 50.958 96.8641 50.3801 95.4328 49.8485L94.7365 51.7233C96.0818 52.223 97.0254 52.7161 97.6241 53.1817L98.852 51.603ZM95.4274 49.8465L91.0246 48.24L90.339 50.1189L94.7419 51.7253L95.4274 49.8465ZM91.0364 48.2445C88.8256 47.4059 87.5526 46.425 86.9671 45.4081L85.2338 46.406C86.1556 48.007 87.9368 49.2078 90.3271 50.1145L91.0364 48.2445ZM86.9734 45.4193C86.3115 44.2348 85.97 42.8787 85.97 41.3257H83.97C83.97 43.184 84.3821 44.8821 85.2275 46.3949L86.9734 45.4193ZM85.97 41.3257C85.97 39.0744 86.7983 37.2468 88.4844 35.7715L87.1674 34.2664C85.0456 36.123 83.97 38.4999 83.97 41.3257H85.97ZM88.4844 35.7715C90.1632 34.3026 92.4469 33.52 95.4416 33.52V31.52C92.0899 31.52 89.2964 32.4034 87.1674 34.2664L88.4844 35.7715ZM119.657 20.085L118.916 20.7559L118.933 20.7744L118.95 20.7921L119.657 20.085ZM119.657 25.6778L118.933 24.9881L118.924 24.9974L118.916 25.0069L119.657 25.6778ZM113.886 25.6778L113.144 26.3487L113.153 26.3582L113.162 26.3674L113.886 25.6778ZM113.886 20.085L113.162 19.3953L113.161 19.3962L113.886 20.085ZM119.836 33.115H120.836V32.115H119.836V33.115ZM119.836 62.864V63.864H120.836V62.864H119.836ZM114.957 62.864H113.957V63.864H114.957V62.864ZM114.957 37.6964H115.957V36.6964H114.957V37.6964ZM110.257 37.6964H109.257V38.6964H110.257V37.6964ZM110.257 33.115V32.115H109.257V33.115H110.257ZM116.801 19.8355C117.677 19.8355 118.357 20.1381 118.916 20.7559L120.399 19.414C119.45 18.3659 118.227 17.8355 116.801 17.8355V19.8355ZM118.95 20.7921C119.566 21.4078 119.847 22.0893 119.847 22.8814H121.847C121.847 21.5315 121.335 20.3488 120.364 19.3778L118.95 20.7921ZM119.847 22.8814C119.847 23.6254 119.572 24.3178 118.933 24.9881L120.381 26.3674C121.33 25.3718 121.847 24.1999 121.847 22.8814H119.847ZM118.916 25.0069C118.357 25.6246 117.677 25.9272 116.801 25.9272V27.9272C118.227 27.9272 119.45 27.3969 120.399 26.3487L118.916 25.0069ZM116.801 25.9272C115.925 25.9272 115.215 25.6229 114.61 24.9881L113.162 26.3674C114.144 27.3986 115.377 27.9272 116.801 27.9272V25.9272ZM114.628 25.0069C114.024 24.3399 113.756 23.6417 113.756 22.8814H111.756C111.756 24.1836 112.241 25.3496 113.144 26.3487L114.628 25.0069ZM113.756 22.8814C113.756 22.0729 114.03 21.3856 114.611 20.7737L113.161 19.3962C112.235 20.3709 111.756 21.5479 111.756 22.8814H113.756ZM114.61 20.7746C115.215 20.1398 115.925 19.8355 116.801 19.8355V17.8355C115.377 17.8355 114.144 18.3641 113.162 19.3953L114.61 20.7746ZM118.836 33.115V62.864H120.836V33.115H118.836ZM119.836 61.864H114.957V63.864H119.836V61.864ZM115.957 62.864V37.6964H113.957V62.864H115.957ZM114.957 36.6964H110.257V38.6964H114.957V36.6964ZM111.257 37.6964V33.115H109.257V37.6964H111.257ZM110.257 34.115H119.836V32.115H110.257V34.115ZM147.8 33.7695L147.369 34.672L147.381 34.6778L147.394 34.6833L147.8 33.7695ZM152.381 37.1014L151.634 37.7657L153.381 39.7316V37.1014H152.381ZM152.381 33.115V32.115H151.381V33.115H152.381ZM157.26 33.115H158.26V32.115H157.26V33.115ZM155.118 71.0747L154.264 70.5539L155.118 71.0747ZM136.912 77.3815L137.228 76.4328L137.219 76.4298L137.21 76.427L136.912 77.3815ZM133.639 75.8346L134.21 75.0137L134.198 75.0051L134.186 74.9969L133.639 75.8346ZM131.14 74.1091H130.14V74.6144L130.547 74.9142L131.14 74.1091ZM131.14 68.8733L131.732 68.0669L130.14 66.8999V68.8733H131.14ZM133.461 70.5392L134.045 69.7277L134.039 69.7232L133.461 70.5392ZM136.971 72.4432L136.59 73.3679L136.6 73.3716L136.971 72.4432ZM152.381 57.8067H153.381V54.4333L151.543 57.2617L152.381 57.8067ZM148.157 61.9715L147.602 61.1394L147.594 61.1453L148.157 61.9715ZM135.186 61.8525L134.658 62.7015L134.669 62.7086L135.186 61.8525ZM130.129 56.4382L129.247 56.9096L129.253 56.9213L130.129 56.4382ZM130.129 39.9573L129.247 39.4866L129.241 39.4983L130.129 39.9573ZM135.305 34.4835L135.808 35.3479L135.82 35.341L135.305 34.4835ZM138.042 38.9458L138.607 39.7711L138.614 39.7661L138.621 39.761L138.042 38.9458ZM134.532 43.0512L133.633 42.6123L133.629 42.6212L134.532 43.0512ZM137.864 57.5092L137.309 58.3413L137.319 58.3481L137.864 57.5092ZM152.381 47.93L151.381 47.9404L151.381 47.9489L152.381 47.93ZM152.322 42.2182L153.322 42.2078L153.318 41.8646L153.105 41.596L152.322 42.2182ZM148.335 38.6483L147.803 39.495L147.817 39.5038L147.831 39.5121L148.335 38.6483ZM142.624 33.52C144.161 33.52 145.74 33.8946 147.369 34.672L148.231 32.867C146.369 31.9785 144.497 31.52 142.624 31.52V33.52ZM147.394 34.6833C149.051 35.4201 150.461 36.4467 151.634 37.7657L153.129 36.437C151.762 34.9001 150.118 33.7055 148.206 32.8557L147.394 34.6833ZM153.381 37.1014V33.115H151.381V37.1014H153.381ZM152.381 34.115H157.26V32.115H152.381V34.115ZM156.26 33.115V62.269H158.26V33.115H156.26ZM156.26 62.269C156.26 65.6674 155.573 68.4096 154.264 70.5539L155.972 71.5956C157.519 69.0593 158.26 65.931 158.26 62.269H156.26ZM154.264 70.5539C152.933 72.7365 151.171 74.3468 148.971 75.4102L149.841 77.2109C152.401 75.9737 154.448 74.0935 155.972 71.5956L154.264 70.5539ZM148.971 75.4102C146.736 76.4907 144.288 77.036 141.612 77.036V79.036C144.569 79.036 147.317 78.431 149.841 77.2109L148.971 75.4102ZM141.612 77.036C139.862 77.036 138.408 76.8262 137.228 76.4328L136.595 78.3302C138.033 78.8094 139.713 79.036 141.612 79.036V77.036ZM137.21 76.427C136.019 76.055 135.025 75.58 134.21 75.0137L133.068 76.6555C134.079 77.3584 135.265 77.9147 136.613 78.336L137.21 76.427ZM134.186 74.9969C133.287 74.4107 132.47 73.8464 131.734 73.3041L130.547 74.9142C131.318 75.4824 132.167 76.0684 133.093 76.6722L134.186 74.9969ZM132.14 74.1091V68.8733H130.14V74.1091H132.14ZM130.549 69.6797C131.15 70.1206 131.929 70.6794 132.883 71.3553L134.039 69.7232C133.089 69.0505 132.321 68.4987 131.732 68.0669L130.549 69.6797ZM132.877 71.3508C133.942 72.118 135.183 72.7884 136.59 73.3679L137.352 71.5185C136.062 70.9873 134.963 70.3884 134.045 69.7277L132.877 71.3508ZM136.6 73.3716C138.122 73.9804 139.797 74.2761 141.612 74.2761V72.2761C140.016 72.2761 138.597 72.0166 137.343 71.5147L136.6 73.3716ZM141.612 74.2761C143.681 74.2761 145.604 73.8955 147.369 73.1208L146.565 71.2895C145.077 71.9428 143.43 72.2761 141.612 72.2761V74.2761ZM147.369 73.1208C149.153 72.3376 150.607 71.174 151.707 69.633L150.08 68.4705C149.197 69.7062 148.033 70.6448 146.565 71.2895L147.369 73.1208ZM151.707 69.633C152.837 68.0522 153.381 66.1758 153.381 64.054H151.381C151.381 65.8193 150.934 67.2748 150.08 68.4705L151.707 69.633ZM153.381 64.054V57.8067H151.381V64.054H153.381ZM151.543 57.2617C150.595 58.72 149.289 60.0149 147.602 61.1395L148.712 62.8036C150.595 61.5483 152.105 60.0665 153.22 58.3517L151.543 57.2617ZM147.594 61.1453C146.026 62.2139 144.222 62.7565 142.148 62.7565V64.7565C144.595 64.7565 146.797 64.109 148.72 62.7978L147.594 61.1453ZM142.148 62.7565C139.785 62.7565 137.644 62.1683 135.703 60.9965L134.669 62.7086C136.933 64.0753 139.433 64.7565 142.148 64.7565V62.7565ZM135.715 61.0036C133.766 59.7905 132.197 58.1156 131.005 55.9551L129.253 56.9213C130.6 59.362 132.402 61.2966 134.658 62.7014L135.715 61.0036ZM131.011 55.9668C129.87 53.8324 129.285 51.3414 129.285 48.4655H127.285C127.285 51.6187 127.929 54.4429 129.247 56.9096L131.011 55.9668ZM129.285 48.4655C129.285 45.297 129.876 42.6254 131.017 40.4163L129.241 39.4983C127.923 42.0489 127.285 45.0496 127.285 48.4655H129.285ZM131.011 40.4279C132.199 38.2002 133.798 36.5172 135.808 35.3478L134.802 33.6191C132.449 34.9883 130.597 36.9545 129.247 39.4867L131.011 40.4279ZM135.82 35.341C137.836 34.1309 140.096 33.52 142.624 33.52V31.52C139.756 31.52 137.137 32.2181 134.791 33.626L135.82 35.341ZM143.516 36.3394C141.2 36.3394 139.165 36.9212 137.463 38.1306L138.621 39.761C139.934 38.8285 141.548 38.3394 143.516 38.3394V36.3394ZM137.477 38.1205C135.822 39.2535 134.539 40.7575 133.633 42.6123L135.43 43.49C136.19 41.9336 137.248 40.7007 138.607 39.7711L137.477 38.1205ZM133.629 42.6212C132.768 44.4286 132.342 46.3813 132.342 48.4655H134.342C134.342 46.6625 134.709 45.0056 135.435 43.4811L133.629 42.6212ZM132.342 48.4655C132.342 50.513 132.77 52.413 133.637 54.1485L135.426 53.2541C134.707 51.8164 134.342 50.2258 134.342 48.4655H132.342ZM133.637 54.1485C134.506 55.8853 135.731 57.2894 137.309 58.3412L138.418 56.6771C137.14 55.825 136.144 54.6905 135.426 53.2541L133.637 54.1485ZM137.319 58.3481C138.963 59.4145 140.842 59.9371 142.921 59.9371V57.9371C141.192 57.9371 139.699 57.5078 138.408 56.6702L137.319 58.3481ZM142.921 59.9371C144.93 59.9371 146.752 59.4098 148.355 58.3412L147.245 56.6771C145.992 57.5125 144.561 57.9371 142.921 57.9371V59.9371ZM148.355 58.3412C149.94 57.2846 151.182 55.8374 152.086 54.0295L150.297 53.1351C149.535 54.6591 148.516 55.8298 147.245 56.6771L148.355 58.3412ZM152.086 54.0295C153 52.2013 153.423 50.1539 153.381 47.9111L151.381 47.9489C151.418 49.9106 151.049 51.6315 150.297 53.1351L152.086 54.0295ZM153.381 47.9196L153.322 42.2078L151.322 42.2286L151.381 47.9404L153.381 47.9196ZM153.105 41.596C151.812 39.9704 150.393 38.6909 148.839 37.7845L147.831 39.5121C149.134 40.2717 150.372 41.3721 151.539 42.8404L153.105 41.596ZM148.868 37.8017C147.302 36.8178 145.507 36.3394 143.516 36.3394V38.3394C145.174 38.3394 146.592 38.7336 147.803 39.495L148.868 37.8017ZM172.254 33.115H173.254V32.115H172.254V33.115ZM172.254 37.8154H171.254V40.6661L173.034 38.44L172.254 37.8154ZM174.693 35.4354L175.318 36.2163L175.327 36.2088L175.336 36.2011L174.693 35.4354ZM178.025 33.353L177.624 32.4368L177.613 32.4416L178.025 33.353ZM187.485 33.8885L187.005 34.7656L187.013 34.77L187.021 34.7743L187.485 33.8885ZM191.471 37.9343L190.593 38.4119L190.597 38.42L191.471 37.9343ZM192.959 62.864V63.864H193.959V62.864H192.959ZM188.08 62.864L187.08 62.8674L187.083 63.864H188.08V62.864ZM188.02 45.1931L187.02 45.1931L187.02 45.1965L188.02 45.1931ZM186.295 39.3028L185.523 39.9385L185.529 39.9452L185.534 39.9517L186.295 39.3028ZM176.359 39.0648L176.956 39.8673L176.959 39.8648L176.359 39.0648ZM172.254 43.1107L171.461 42.501L171.254 42.7705V43.1107H172.254ZM172.254 62.864V63.864H173.254V62.864H172.254ZM167.375 62.864H166.375V63.864H167.375V62.864ZM167.375 33.115V32.115H166.375V33.115H167.375ZM171.254 33.115V37.8154H173.254V33.115H171.254ZM173.034 38.44C173.613 37.7166 174.37 36.9744 175.318 36.2163L174.068 34.6546C173.033 35.4831 172.163 36.3275 171.473 37.1907L173.034 38.44ZM175.336 36.2011C176.255 35.4295 177.287 34.7836 178.436 34.2644L177.613 32.4416C176.304 33.0331 175.114 33.7754 174.05 34.6697L175.336 36.2011ZM178.426 34.2692C179.572 33.7676 180.745 33.52 181.952 33.52V31.52C180.461 31.52 179.016 31.8278 177.624 32.4368L178.426 34.2692ZM181.952 33.52C183.818 33.52 185.496 33.9392 187.005 34.7656L187.965 33.0114C186.143 32.0132 184.131 31.52 181.952 31.52V33.52ZM187.021 34.7743C188.493 35.5455 189.686 36.7426 190.593 38.4119L192.35 37.4568C191.274 35.4769 189.809 33.9768 187.949 33.0027L187.021 34.7743ZM190.597 38.42C191.483 40.0143 191.959 42.0945 191.959 44.7171H193.959C193.959 41.8659 193.443 39.4242 192.346 37.4487L190.597 38.42ZM191.959 44.7171V62.864H193.959V44.7171H191.959ZM192.959 61.864H188.08V63.864H192.959V61.864ZM189.08 62.8606L189.02 45.1897L187.02 45.1965L187.08 62.8674L189.08 62.8606ZM189.02 45.1931C189.02 42.4827 188.418 40.2503 187.056 38.6539L185.534 39.9517C186.473 41.0526 187.02 42.747 187.02 45.1931H189.02ZM187.067 38.6671C185.707 37.0157 183.65 36.2799 181.119 36.2799V38.2799C183.268 38.2799 184.662 38.8927 185.523 39.9385L187.067 38.6671ZM181.119 36.2799C179.267 36.2799 177.475 36.978 175.759 38.2648L176.959 39.8648C178.416 38.7717 179.798 38.2799 181.119 38.2799V36.2799ZM175.762 38.2623C174.14 39.4683 172.706 40.882 171.461 42.501L173.046 43.7204C174.181 42.2455 175.483 40.962 176.956 39.8673L175.762 38.2623ZM171.254 43.1107V62.864H173.254V43.1107H171.254ZM172.254 61.864H167.375V63.864H172.254V61.864ZM168.375 62.864V33.115H166.375V62.864H168.375ZM167.375 34.115H172.254V32.115H167.375V34.115ZM42.4884 93.0255H43.4884V92.0255H42.4884V93.0255ZM42.4884 135.864V136.864H43.4884V135.864H42.4884ZM37.6096 135.864H36.6096V136.864H37.6096V135.864ZM37.6096 130.807H38.6096V127.433L36.7712 130.262L37.6096 130.807ZM33.3852 134.972L32.8305 134.139L32.8219 134.145L33.3852 134.972ZM20.4147 134.853L19.8861 135.702L19.8978 135.709L20.4147 134.853ZM15.3574 129.438L14.4754 129.91L14.4818 129.921L15.3574 129.438ZM15.3574 112.957L14.4749 112.487L14.4689 112.498L15.3574 112.957ZM20.5337 107.483L21.0366 108.348L21.0482 108.341L20.5337 107.483ZM33.0283 106.769L32.5975 107.672L32.6097 107.678L32.6221 107.683L33.0283 106.769ZM37.6096 110.101L36.8622 110.766L38.6096 112.732V110.101H37.6096ZM37.6096 93.0255V92.0255H36.6096V93.0255H37.6096ZM23.2706 112.005L23.8353 112.831L23.8426 112.826L23.8498 112.82L23.2706 112.005ZM19.7602 116.051L18.8658 115.604L18.8615 115.613L18.8574 115.621L19.7602 116.051ZM19.7602 126.761L18.8614 127.199L18.8658 127.208L19.7602 126.761ZM23.0921 130.569L22.5374 131.401L22.5479 131.408L23.0921 130.569ZM36.4196 126.642L37.3141 127.089L37.3182 127.081L36.4196 126.642ZM37.6096 120.93L36.6096 120.94L36.6098 120.949L37.6096 120.93ZM37.5501 115.218L38.5501 115.208L38.5465 114.865L38.3329 114.596L37.5501 115.218ZM33.5637 111.648L33.0492 112.506L33.0599 112.512L33.5637 111.648ZM41.4884 93.0255V135.864H43.4884V93.0255H41.4884ZM42.4884 134.864H37.6096V136.864H42.4884V134.864ZM38.6096 135.864V130.807H36.6096V135.864H38.6096ZM36.7712 130.262C35.8232 131.72 34.5175 133.015 32.8305 134.139L33.9399 135.804C35.8229 134.548 37.3334 133.067 38.448 131.352L36.7712 130.262ZM32.8219 134.145C31.2546 135.214 29.4508 135.756 27.376 135.756V137.756C29.823 137.756 32.0254 137.109 33.9486 135.798L32.8219 134.145ZM27.376 135.756C25.0131 135.756 22.8724 135.168 20.9316 133.996L19.8978 135.709C22.1615 137.075 24.6616 137.756 27.376 137.756V135.756ZM20.9432 134.004C18.9949 132.791 17.4249 131.116 16.2329 128.955L14.4818 129.921C15.8284 132.362 17.63 134.297 19.8861 135.701L20.9432 134.004ZM16.2393 128.967C15.0985 126.832 14.5129 124.341 14.5129 121.465H12.5129C12.5129 124.619 13.157 127.443 14.4754 129.91L16.2393 128.967ZM14.5129 121.465C14.5129 118.297 15.1044 115.625 16.2458 113.416L14.4689 112.498C13.1511 115.049 12.5129 118.05 12.5129 121.465H14.5129ZM16.2397 113.428C17.4278 111.2 19.0267 109.517 21.0366 108.348L20.0308 106.619C17.6775 107.988 15.8255 109.955 14.475 112.487L16.2397 113.428ZM21.0482 108.341C23.0649 107.131 25.3246 106.52 27.8519 106.52V104.52C24.9848 104.52 22.3657 105.218 20.0192 106.626L21.0482 108.341ZM27.8519 106.52C29.3897 106.52 30.9687 106.895 32.5975 107.672L33.459 105.867C31.5973 104.978 29.7254 104.52 27.8519 104.52V106.52ZM32.6221 107.683C34.2798 108.42 35.6897 109.447 36.8622 110.766L38.357 109.437C36.9909 107.9 35.3466 106.706 33.4344 105.856L32.6221 107.683ZM38.6096 110.101V93.0255H36.6096V110.101H38.6096ZM37.6096 94.0255H42.4884V92.0255H37.6096V94.0255ZM28.7444 109.399C26.4289 109.399 24.3936 109.981 22.6914 111.19L23.8498 112.82C25.1621 111.888 26.7761 111.399 28.7444 111.399V109.399ZM22.7059 111.18C21.0555 112.309 19.7732 113.789 18.8658 115.604L20.6546 116.498C21.4132 114.981 22.4711 113.764 23.8353 112.831L22.7059 111.18ZM18.8574 115.621C17.9967 117.429 17.5703 119.381 17.5703 121.465H19.5703C19.5703 119.663 19.9371 118.006 20.6631 116.481L18.8574 115.621ZM17.5703 121.465C17.5703 123.513 17.998 125.429 18.8614 127.199L20.659 126.322C19.9358 124.84 19.5703 123.226 19.5703 121.465H17.5703ZM18.8658 127.208C19.7342 128.945 20.9596 130.349 22.5374 131.401L23.6468 129.737C22.3686 128.885 21.3728 127.75 20.6546 126.314L18.8658 127.208ZM22.5479 131.408C24.1919 132.474 26.0701 132.997 28.1494 132.997V130.997C26.4209 130.997 24.9276 130.567 23.6363 129.73L22.5479 131.408ZM28.1494 132.997C30.1583 132.997 31.9802 132.469 33.583 131.401L32.4736 129.737C31.2205 130.572 29.7897 130.997 28.1494 130.997V132.997ZM33.583 131.401C35.1679 130.344 36.4101 128.897 37.3141 127.089L35.5252 126.195C34.7632 127.719 33.7445 128.889 32.4736 129.737L33.583 131.401ZM37.3182 127.081C38.2279 125.218 38.6518 123.155 38.6094 120.911L36.6098 120.949C36.6468 122.91 36.2773 124.655 35.5211 126.203L37.3182 127.081ZM38.6095 120.92L38.5501 115.208L36.5502 115.229L36.6097 120.94L38.6095 120.92ZM38.3329 114.596C37.0408 112.97 35.6214 111.691 34.0676 110.785L33.0599 112.512C34.362 113.272 35.6001 114.372 36.7673 115.84L38.3329 114.596ZM34.0782 110.791C32.5155 109.853 30.7267 109.399 28.7444 109.399V111.399C30.4113 111.399 31.8354 111.778 33.0492 112.506L34.0782 110.791ZM76.9973 112.6L76.0869 113.014L76.09 113.021L76.0932 113.028L76.9973 112.6ZM78.5442 122.893V123.893H79.5442V122.893H78.5442ZM55.697 122.893V121.893H54.544L54.707 123.035L55.697 122.893ZM57.4224 127.475L56.5867 128.024L57.4224 127.475ZM60.9923 130.807L60.4987 131.676L60.5077 131.681L60.5168 131.686L60.9923 130.807ZM72.0589 130.39L72.5571 131.257L72.5639 131.253L72.5707 131.249L72.0589 130.39ZM76.7593 126.761L77.7592 126.772L77.7874 124.264L76.0414 126.065L76.7593 126.761ZM76.6998 132.056L77.4717 132.692L77.6957 132.42L77.6997 132.067L76.6998 132.056ZM74.2009 134.198L74.7556 135.03L74.7624 135.026L74.2009 134.198ZM70.4525 135.983L70.1363 135.034L70.1202 135.04L70.1043 135.046L70.4525 135.983ZM52.4841 128.962L51.6079 129.444L51.6127 129.453L51.6177 129.462L52.4841 128.962ZM52.3651 113.374L51.4767 112.915L52.3651 113.374ZM57.4224 107.662L56.8748 106.825L56.8677 106.83L57.4224 107.662ZM58.7909 112.779L59.5067 113.477L59.515 113.468L58.7909 112.779ZM55.816 118.729L54.83 118.561L54.6322 119.729H55.816V118.729ZM73.7249 118.729V119.729H74.8321L74.7197 118.627L73.7249 118.729ZM72.0589 113.969L71.2434 114.547L71.2495 114.556L71.2558 114.565L72.0589 113.969ZM68.846 111.232L68.3988 112.126L68.4101 112.132L68.4216 112.137L68.846 111.232ZM64.8597 106.52C67.7777 106.52 70.1191 107.126 71.9439 108.271L73.0069 106.577C70.7859 105.183 68.0501 104.52 64.8597 104.52V106.52ZM71.9439 108.271C73.8002 109.436 75.1761 111.01 76.0869 113.014L77.9076 112.186C76.8352 109.827 75.1965 107.951 73.0069 106.577L71.9439 108.271ZM76.0932 113.028C77.0533 115.059 77.5442 117.369 77.5442 119.978H79.5442C79.5442 117.113 79.0038 114.505 77.9013 112.173L76.0932 113.028ZM77.5442 119.978V122.893H79.5442V119.978H77.5442ZM78.5442 121.893H55.697V123.893H78.5442V121.893ZM54.707 123.035C54.9656 124.844 55.5926 126.511 56.5867 128.024L58.2581 126.926C57.4277 125.662 56.9044 124.274 56.6869 122.752L54.707 123.035ZM56.5867 128.024C57.5875 129.547 58.8955 130.766 60.4987 131.676L61.4859 129.937C60.1538 129.181 59.082 128.179 58.2581 126.926L56.5867 128.024ZM60.5168 131.686C62.15 132.569 64.0034 132.997 66.0496 132.997V130.997C64.288 130.997 62.7699 130.631 61.4678 129.927L60.5168 131.686ZM66.0496 132.997C68.3671 132.997 70.5418 132.415 72.5571 131.257L71.5608 129.523C69.8475 130.507 68.0161 130.997 66.0496 130.997V132.997ZM72.5707 131.249C74.4967 130.102 76.1363 128.84 77.4772 127.457L76.0414 126.065C74.8436 127.3 73.3497 128.457 71.5471 129.531L72.5707 131.249ZM75.7593 126.75L75.6998 132.045L77.6997 132.067L77.7592 126.772L75.7593 126.75ZM75.9278 131.42C75.4564 131.993 74.7085 132.645 73.6394 133.371L74.7624 135.026C75.9144 134.244 76.8325 133.468 77.4717 132.692L75.9278 131.42ZM73.6462 133.366C72.6604 134.023 71.4938 134.582 70.1363 135.034L70.7687 136.932C72.2671 136.432 73.5994 135.801 74.7556 135.03L73.6462 133.366ZM70.1043 135.046C68.8324 135.518 67.4831 135.756 66.0496 135.756V137.756C67.7101 137.756 69.296 137.479 70.8007 136.92L70.1043 135.046ZM66.0496 135.756C63.1999 135.756 60.7063 135.084 58.5383 133.761L57.4965 135.468C60.0091 137.001 62.8702 137.756 66.0496 137.756V135.756ZM58.5383 133.761C56.3388 132.419 54.6142 130.656 53.3505 128.463L51.6177 129.462C53.0513 131.949 55.0155 133.954 57.4965 135.468L58.5383 133.761ZM53.3603 128.48C52.1356 126.254 51.5207 123.822 51.5207 121.168H49.5207C49.5207 124.146 50.2147 126.911 51.6079 129.444L53.3603 128.48ZM51.5207 121.168C51.5207 118.503 52.101 116.063 53.2535 113.833L51.4767 112.915C50.17 115.444 49.5207 118.2 49.5207 121.168H51.5207ZM53.2535 113.833C54.4086 111.597 55.9821 109.824 57.9771 108.494L56.8677 106.83C54.5789 108.356 52.7808 110.391 51.4767 112.915L53.2535 113.833ZM57.9701 108.499C59.9782 107.184 62.2644 106.52 64.8597 106.52V104.52C61.9018 104.52 59.2299 105.284 56.8748 106.825L57.9701 108.499ZM64.8597 109.28C62.1478 109.28 59.8562 110.21 58.0667 112.089L59.515 113.468C60.8988 112.015 62.653 111.28 64.8597 111.28V109.28ZM58.0751 112.08C56.34 113.859 55.2591 116.03 54.83 118.561L56.8019 118.896C57.1662 116.746 58.0686 114.951 59.5067 113.477L58.0751 112.08ZM55.816 119.729H73.7249V117.729H55.816V119.729ZM74.7197 118.627C74.5081 116.553 73.9074 114.782 72.862 113.373L71.2558 114.565C72.0351 115.615 72.545 117.017 72.73 118.83L74.7197 118.627ZM72.8744 113.39C71.9096 112.031 70.7079 111 69.2705 110.326L68.4216 112.137C69.5227 112.653 70.4629 113.448 71.2434 114.547L72.8744 113.39ZM69.2933 110.337C67.8883 109.635 66.4067 109.28 64.8597 109.28V111.28C66.0892 111.28 67.2652 111.559 68.3988 112.126L69.2933 110.337ZM112.815 106.115L113.72 106.54L114.39 105.115H112.815V106.115ZM98.833 135.864V136.864H99.468L99.738 136.289L98.833 135.864ZM95.7986 135.864L94.8867 136.274L95.152 136.864H95.7986V135.864ZM82.4116 106.115V105.115H80.865L81.4997 106.525L82.4116 106.115ZM88.2424 106.115L89.1675 105.735L88.913 105.115H88.2424V106.115ZM97.2266 128.01L96.3014 128.39L97.1886 130.552L98.14 128.417L97.2266 128.01ZM106.984 106.115V105.115H106.335L106.071 105.708L106.984 106.115ZM111.91 105.69L97.928 135.439L99.738 136.289L113.72 106.54L111.91 105.69ZM98.833 134.864H95.7986V136.864H98.833V134.864ZM96.7105 135.454L83.3235 105.705L81.4997 106.525L94.8867 136.274L96.7105 135.454ZM82.4116 107.115H88.2424V105.115H82.4116V107.115ZM87.3172 106.495L96.3014 128.39L98.1517 127.631L89.1675 105.735L87.3172 106.495ZM98.14 128.417L107.898 106.522L106.071 105.708L96.3132 127.603L98.14 128.417ZM106.984 107.115H112.815V105.115H106.984V107.115ZM142.564 112.6L141.654 113.014L141.657 113.021L141.66 113.028L142.564 112.6ZM144.111 122.893V123.893H145.111V122.893H144.111ZM121.264 122.893V121.893H120.111L120.274 123.035L121.264 122.893ZM122.989 127.475L122.153 128.024L122.989 127.475ZM126.559 130.807L126.065 131.676L126.074 131.681L126.084 131.686L126.559 130.807ZM137.626 130.39L138.124 131.257L138.131 131.253L138.138 131.249L137.626 130.39ZM142.326 126.761L143.326 126.772L143.354 124.264L141.608 126.065L142.326 126.761ZM142.267 132.056L143.038 132.692L143.263 132.42L143.266 132.067L142.267 132.056ZM139.768 134.198L140.322 135.03L140.329 135.026L139.768 134.198ZM136.019 135.983L135.703 135.034L135.687 135.04L135.671 135.046L136.019 135.983ZM118.051 128.962L117.175 129.444L117.179 129.453L117.184 129.462L118.051 128.962ZM117.932 113.374L117.043 112.915L117.932 113.374ZM122.989 107.662L122.442 106.825L122.434 106.83L122.989 107.662ZM124.358 112.779L125.073 113.477L125.082 113.468L124.358 112.779ZM121.383 118.729L120.397 118.561L120.199 119.729H121.383V118.729ZM139.292 118.729V119.729H140.399L140.286 118.627L139.292 118.729ZM137.626 113.969L136.81 114.547L136.816 114.556L136.823 114.565L137.626 113.969ZM134.413 111.232L133.966 112.126L133.977 112.132L133.988 112.137L134.413 111.232ZM130.426 106.52C133.344 106.52 135.686 107.126 137.511 108.271L138.574 106.577C136.353 105.183 133.617 104.52 130.426 104.52V106.52ZM137.511 108.271C139.367 109.436 140.743 111.01 141.654 113.014L143.474 112.186C142.402 109.827 140.763 107.951 138.574 106.577L137.511 108.271ZM141.66 113.028C142.62 115.059 143.111 117.369 143.111 119.978H145.111C145.111 117.113 144.571 114.505 143.468 112.173L141.66 113.028ZM143.111 119.978V122.893H145.111V119.978H143.111ZM144.111 121.893H121.264V123.893H144.111V121.893ZM120.274 123.035C120.532 124.844 121.159 126.511 122.153 128.024L123.825 126.926C122.994 125.662 122.471 124.274 122.254 122.752L120.274 123.035ZM122.153 128.024C123.154 129.547 124.462 130.766 126.065 131.676L127.053 129.937C125.721 129.181 124.649 128.179 123.825 126.926L122.153 128.024ZM126.084 131.686C127.717 132.569 129.57 132.997 131.616 132.997V130.997C129.855 130.997 128.337 130.631 127.035 129.927L126.084 131.686ZM131.616 132.997C133.934 132.997 136.109 132.415 138.124 131.257L137.128 129.523C135.414 130.507 133.583 130.997 131.616 130.997V132.997ZM138.138 131.249C140.063 130.102 141.703 128.84 143.044 127.457L141.608 126.065C140.41 127.3 138.916 128.457 137.114 129.531L138.138 131.249ZM141.326 126.75L141.267 132.045L143.266 132.067L143.326 126.772L141.326 126.75ZM141.495 131.42C141.023 131.993 140.275 132.645 139.206 133.371L140.329 135.026C141.481 134.244 142.399 133.468 143.038 132.692L141.495 131.42ZM139.213 133.366C138.227 134.023 137.061 134.582 135.703 135.034L136.335 136.932C137.834 136.432 139.166 135.801 140.322 135.03L139.213 133.366ZM135.671 135.046C134.399 135.518 133.05 135.756 131.616 135.756V137.756C133.277 137.756 134.863 137.479 136.367 136.92L135.671 135.046ZM131.616 135.756C128.767 135.756 126.273 135.084 124.105 133.761L123.063 135.468C125.576 137.001 128.437 137.756 131.616 137.756V135.756ZM124.105 133.761C121.906 132.419 120.181 130.656 118.917 128.463L117.184 129.462C118.618 131.949 120.582 133.954 123.063 135.468L124.105 133.761ZM118.927 128.48C117.702 126.254 117.087 123.822 117.087 121.168H115.087C115.087 124.146 115.781 126.911 117.175 129.444L118.927 128.48ZM117.087 121.168C117.087 118.503 117.668 116.063 118.82 113.833L117.043 112.915C115.737 115.444 115.087 118.2 115.087 121.168H117.087ZM118.82 113.833C119.975 111.597 121.549 109.824 123.544 108.494L122.434 106.83C120.146 108.356 118.348 110.391 117.043 112.915L118.82 113.833ZM123.537 108.499C125.545 107.184 127.831 106.52 130.426 106.52V104.52C127.469 104.52 124.797 105.284 122.442 106.825L123.537 108.499ZM130.426 109.28C127.715 109.28 125.423 110.21 123.634 112.089L125.082 113.468C126.466 112.015 128.22 111.28 130.426 111.28V109.28ZM123.642 112.08C121.907 113.859 120.826 116.03 120.397 118.561L122.369 118.896C122.733 116.746 123.635 114.951 125.073 113.477L123.642 112.08ZM121.383 119.729H139.292V117.729H121.383V119.729ZM140.286 118.627C140.075 116.553 139.474 114.782 138.429 113.373L136.823 114.565C137.602 115.615 138.112 117.017 138.297 118.83L140.286 118.627ZM138.441 113.39C137.476 112.031 136.275 111 134.837 110.326L133.988 112.137C135.09 112.653 136.03 113.448 136.81 114.547L138.441 113.39ZM134.86 110.337C133.455 109.635 131.974 109.28 130.426 109.28V111.28C131.656 111.28 132.832 111.559 133.966 112.126L134.86 110.337ZM157.022 93.0255H158.022V92.0255H157.022V93.0255ZM157.022 135.864V136.864H158.022V135.864H157.022ZM152.143 135.864H151.143V136.864H152.143V135.864ZM152.143 93.0255V92.0255H151.143V93.0255H152.143ZM156.022 93.0255V135.864H158.022V93.0255H156.022ZM157.022 134.864H152.143V136.864H157.022V134.864ZM153.143 135.864V93.0255H151.143V135.864H153.143ZM152.143 94.0255H157.022V92.0255H152.143V94.0255ZM194.089 113.374L193.213 113.856L193.219 113.867L194.089 113.374ZM194.089 128.962L193.219 128.469L193.217 128.474L194.089 128.962ZM167.018 128.962L166.141 129.444L166.146 129.453L166.151 129.462L167.018 128.962ZM167.018 113.374L166.148 112.881L166.141 112.892L167.018 113.374ZM175.05 111.827L175.58 112.675L175.587 112.67L175.595 112.665L175.05 111.827ZM171.361 115.813L170.475 115.349L170.471 115.357L171.361 115.813ZM171.361 126.523L170.467 126.97L170.473 126.983L170.48 126.996L171.361 126.523ZM175.05 130.509L174.505 131.348L174.512 131.352L174.52 131.357L175.05 130.509ZM186.117 130.509L186.656 131.351L186.662 131.348L186.117 130.509ZM189.746 126.523L188.86 126.059L188.856 126.067L189.746 126.523ZM189.746 115.813L188.851 116.26L188.858 116.273L188.865 116.286L189.746 115.813ZM186.117 111.827L185.562 112.659L185.574 112.667L185.587 112.675L186.117 111.827ZM180.583 106.52C183.433 106.52 185.927 107.193 188.095 108.516L189.136 106.808C186.624 105.275 183.763 104.52 180.583 104.52V106.52ZM188.095 108.516C190.287 109.854 191.989 111.63 193.213 113.856L194.965 112.892C193.572 110.358 191.624 108.326 189.136 106.808L188.095 108.516ZM193.219 113.867C194.48 116.092 195.112 118.519 195.112 121.168H197.112C197.112 118.184 196.396 115.416 194.959 112.881L193.219 113.867ZM195.112 121.168C195.112 123.817 194.48 126.244 193.219 128.469L194.959 129.455C196.396 126.92 197.112 124.152 197.112 121.168H195.112ZM193.217 128.474C191.993 130.661 190.292 132.42 188.095 133.761L189.136 135.468C191.62 133.953 193.567 131.944 194.962 129.45L193.217 128.474ZM188.095 133.761C185.927 135.084 183.433 135.756 180.583 135.756V137.756C183.763 137.756 186.624 137.001 189.136 135.468L188.095 133.761ZM180.583 135.756C177.734 135.756 175.24 135.084 173.072 133.761L172.03 135.468C174.543 137.001 177.404 137.756 180.583 137.756V135.756ZM173.072 133.761C170.872 132.419 169.148 130.656 167.884 128.463L166.151 129.462C167.585 131.949 169.549 133.954 172.03 135.468L173.072 133.761ZM167.894 128.48C166.669 126.254 166.054 123.822 166.054 121.168H164.054C164.054 124.146 164.748 126.911 166.141 129.444L167.894 128.48ZM166.054 121.168C166.054 118.514 166.669 116.082 167.894 113.856L166.141 112.892C164.748 115.425 164.054 118.19 164.054 121.168H166.054ZM167.888 113.867C169.152 111.635 170.876 109.855 173.072 108.516L172.03 106.808C169.545 108.325 167.58 110.353 166.148 112.881L167.888 113.867ZM173.072 108.516C175.24 107.193 177.734 106.52 180.583 106.52V104.52C177.404 104.52 174.543 105.275 172.03 106.808L173.072 108.516ZM180.583 109.28C178.31 109.28 176.271 109.84 174.505 110.988L175.595 112.665C177.002 111.751 178.652 111.28 180.583 111.28V109.28ZM174.52 110.979C172.782 112.065 171.43 113.527 170.475 115.349L172.247 116.277C173.038 114.768 174.145 113.572 175.58 112.675L174.52 110.979ZM170.471 115.357C169.561 117.134 169.112 119.076 169.112 121.168H171.112C171.112 119.373 171.495 117.745 172.251 116.269L170.471 115.357ZM169.112 121.168C169.112 123.224 169.563 125.162 170.467 126.97L172.255 126.076C171.494 124.552 171.112 122.92 171.112 121.168H169.112ZM170.48 126.996C171.434 128.774 172.781 130.227 174.505 131.348L175.595 129.671C174.146 128.729 173.033 127.524 172.242 126.05L170.48 126.996ZM174.52 131.357C176.285 132.46 178.317 132.997 180.583 132.997V130.997C178.645 130.997 176.989 130.542 175.58 129.661L174.52 131.357ZM180.583 132.997C182.884 132.997 184.923 132.462 186.656 131.351L185.577 129.667C184.216 130.54 182.566 130.997 180.583 130.997V132.997ZM186.662 131.348C188.389 130.225 189.72 128.766 190.636 126.979L188.856 126.067C188.105 127.532 187.017 128.731 185.572 129.671L186.662 131.348ZM190.632 126.987C191.58 125.176 192.055 123.231 192.055 121.168H190.055C190.055 122.912 189.657 124.538 188.86 126.059L190.632 126.987ZM192.055 121.168C192.055 119.068 191.582 117.12 190.627 115.34L188.865 116.286C189.655 117.759 190.055 119.38 190.055 121.168H192.055ZM190.64 115.366C189.725 113.535 188.388 112.068 186.647 110.979L185.587 112.675C187.018 113.569 188.101 114.76 188.851 116.26L190.64 115.366ZM186.671 110.995C184.936 109.838 182.892 109.28 180.583 109.28V111.28C182.559 111.28 184.203 111.753 185.562 112.659L186.671 110.995ZM226.218 107.424L225.694 108.276L225.704 108.281L225.713 108.287L226.218 107.424ZM231.216 112.66L230.338 113.138L230.343 113.147L230.348 113.156L231.216 112.66ZM231.216 129.081L230.327 128.623L230.325 128.628L231.216 129.081ZM226.099 134.734L225.573 133.883L225.566 133.887L226.099 134.734ZM213.545 135.388L213.082 136.274L213.09 136.278L213.545 135.388ZM209.023 131.878L209.771 131.213L208.023 129.247V131.878H209.023ZM209.023 150.144V151.144H210.023V150.144H209.023ZM204.144 150.144H203.144V151.144H204.144V150.144ZM204.144 106.115V105.115H203.144V106.115H204.144ZM209.023 106.115H210.023V105.115H209.023V106.115ZM209.023 111.172H208.023V114.546L209.862 111.717L209.023 111.172ZM213.188 107.186L213.711 108.038L213.716 108.035L213.188 107.186ZM213.605 111.648L213.077 110.799L213.066 110.806L213.605 111.648ZM210.213 115.456L209.323 115L209.319 115.009L210.213 115.456ZM209.023 121.049H208.023L208.023 121.059L209.023 121.049ZM209.083 126.761L208.083 126.771L208.086 127.123L208.31 127.395L209.083 126.761ZM213.069 130.569L212.488 131.382L212.496 131.388L212.504 131.393L213.069 130.569ZM226.813 126.047L225.907 125.624L225.903 125.633L226.813 126.047ZM226.873 115.337L225.983 115.794L225.988 115.803L226.873 115.337ZM219.257 106.52C221.663 106.52 223.799 107.11 225.694 108.276L226.742 106.572C224.512 105.2 222.008 104.52 219.257 104.52V106.52ZM225.713 108.287C227.649 109.419 229.19 111.027 230.338 113.138L232.094 112.182C230.783 109.77 228.992 107.888 226.723 106.561L225.713 108.287ZM230.348 113.156C231.516 115.201 232.12 117.642 232.12 120.514H234.12C234.12 117.356 233.454 114.561 232.084 112.164L230.348 113.156ZM232.12 120.514C232.12 123.634 231.512 126.328 230.327 128.623L232.105 129.54C233.459 126.916 234.12 123.898 234.12 120.514H232.12ZM230.325 128.628C229.173 130.894 227.59 132.636 225.573 133.883L226.625 135.584C228.972 134.133 230.8 132.107 232.107 129.534L230.325 128.628ZM225.566 133.887C223.597 135.127 221.345 135.756 218.781 135.756V137.756C221.69 137.756 224.318 137.037 226.632 135.58L225.566 133.887ZM218.781 135.756C217.259 135.756 215.669 135.35 214 134.498L213.09 136.278C214.991 137.25 216.892 137.756 218.781 137.756V135.756ZM214.008 134.502C212.367 133.644 210.957 132.548 209.771 131.213L208.276 132.542C209.628 134.063 211.233 135.308 213.082 136.274L214.008 134.502ZM208.023 131.878V150.144H210.023V131.878H208.023ZM209.023 149.144H204.144V151.144H209.023V149.144ZM205.144 150.144V106.115H203.144V150.144H205.144ZM204.144 107.115H209.023V105.115H204.144V107.115ZM208.023 106.115V111.172H210.023V106.115H208.023ZM209.862 111.717C210.806 110.265 212.082 109.038 213.711 108.038L212.665 106.334C210.804 107.476 209.304 108.906 208.185 110.627L209.862 111.717ZM213.716 108.035C215.331 107.031 217.168 106.52 219.257 106.52V104.52C216.824 104.52 214.615 105.12 212.66 106.337L213.716 108.035ZM218.483 109.28C216.518 109.28 214.708 109.785 213.077 110.799L214.133 112.498C215.436 111.687 216.879 111.28 218.483 111.28V109.28ZM213.066 110.806C211.477 111.821 210.23 113.229 209.323 115L211.103 115.912C211.862 114.431 212.876 113.3 214.143 112.491L213.066 110.806ZM209.319 115.009C208.443 116.76 208.023 118.784 208.023 121.049H210.023C210.023 119.031 210.397 117.325 211.108 115.903L209.319 115.009ZM208.023 121.059L208.083 126.771L210.083 126.75L210.023 121.039L208.023 121.059ZM208.31 127.395C209.625 128.999 211.017 130.332 212.488 131.382L213.65 129.755C212.345 128.822 211.079 127.617 209.856 126.126L208.31 127.395ZM212.504 131.393C214.072 132.469 215.88 132.997 217.888 132.997V130.997C216.248 130.997 214.842 130.572 213.635 129.744L212.504 131.393ZM217.888 132.997C220.212 132.997 222.252 132.391 223.955 131.136L222.769 129.526C221.458 130.492 219.849 130.997 217.888 130.997V132.997ZM223.955 131.136C225.604 129.921 226.861 128.357 227.724 126.461L225.903 125.633C225.178 127.227 224.136 128.519 222.769 129.526L223.955 131.136ZM227.719 126.47C228.612 124.557 229.063 122.569 229.063 120.514H227.063C227.063 122.266 226.68 123.967 225.907 125.624L227.719 126.47ZM229.063 120.514C229.063 118.431 228.637 116.541 227.758 114.871L225.988 115.803C226.695 117.147 227.063 118.709 227.063 120.514H229.063ZM227.762 114.881C226.891 113.181 225.66 111.816 224.079 110.806L223.002 112.491C224.277 113.305 225.268 114.4 225.983 115.794L227.762 114.881ZM224.079 110.806C222.468 109.776 220.589 109.28 218.483 109.28V111.28C220.265 111.28 221.758 111.696 223.002 112.491L224.079 110.806ZM42.4884 166.025H43.4884V165.025H42.4884V166.025ZM42.4884 208.864V209.864H43.4884V208.864H42.4884ZM37.6096 208.864H36.6096V209.864H37.6096V208.864ZM37.6096 203.807H38.6096V200.433L36.7712 203.262L37.6096 203.807ZM33.3852 207.972L32.8305 207.139L32.8219 207.145L33.3852 207.972ZM20.4147 207.853L19.8861 208.702L19.8978 208.709L20.4147 207.853ZM15.3574 202.438L14.4754 202.91L14.4818 202.921L15.3574 202.438ZM15.3574 185.957L14.4749 185.487L14.4689 185.498L15.3574 185.957ZM20.5337 180.483L21.0366 181.348L21.0482 181.341L20.5337 180.483ZM33.0283 179.769L32.5975 180.672L32.6097 180.678L32.6221 180.683L33.0283 179.769ZM37.6096 183.101L36.8622 183.766L38.6096 185.732V183.101H37.6096ZM37.6096 166.025V165.025H36.6096V166.025H37.6096ZM23.2706 185.005L23.8353 185.831L23.8426 185.826L23.8498 185.82L23.2706 185.005ZM19.7602 189.051L18.8658 188.604L18.8615 188.613L18.8574 188.621L19.7602 189.051ZM19.7602 199.761L18.8614 200.199L18.8658 200.208L19.7602 199.761ZM23.0921 203.569L22.5374 204.401L22.5479 204.408L23.0921 203.569ZM36.4196 199.642L37.3141 200.089L37.3182 200.081L36.4196 199.642ZM37.6096 193.93L36.6096 193.94L36.6098 193.949L37.6096 193.93ZM37.5501 188.218L38.5501 188.208L38.5465 187.865L38.3329 187.596L37.5501 188.218ZM33.5637 184.648L33.0492 185.506L33.0599 185.512L33.5637 184.648ZM41.4884 166.025V208.864H43.4884V166.025H41.4884ZM42.4884 207.864H37.6096V209.864H42.4884V207.864ZM38.6096 208.864V203.807H36.6096V208.864H38.6096ZM36.7712 203.262C35.8232 204.72 34.5175 206.015 32.8305 207.139L33.9399 208.804C35.8229 207.548 37.3334 206.067 38.448 204.352L36.7712 203.262ZM32.8219 207.145C31.2546 208.214 29.4508 208.756 27.376 208.756V210.756C29.823 210.756 32.0254 210.109 33.9486 208.798L32.8219 207.145ZM27.376 208.756C25.0131 208.756 22.8724 208.168 20.9316 206.996L19.8978 208.709C22.1615 210.075 24.6616 210.756 27.376 210.756V208.756ZM20.9432 207.004C18.9949 205.791 17.4249 204.116 16.2329 201.955L14.4818 202.921C15.8284 205.362 17.63 207.297 19.8861 208.701L20.9432 207.004ZM16.2393 201.967C15.0985 199.832 14.5129 197.341 14.5129 194.465H12.5129C12.5129 197.619 13.157 200.443 14.4754 202.91L16.2393 201.967ZM14.5129 194.465C14.5129 191.297 15.1044 188.625 16.2458 186.416L14.4689 185.498C13.1511 188.049 12.5129 191.05 12.5129 194.465H14.5129ZM16.2397 186.428C17.4278 184.2 19.0267 182.517 21.0366 181.348L20.0308 179.619C17.6775 180.988 15.8255 182.955 14.475 185.487L16.2397 186.428ZM21.0482 181.341C23.0649 180.131 25.3246 179.52 27.8519 179.52V177.52C24.9848 177.52 22.3657 178.218 20.0192 179.626L21.0482 181.341ZM27.8519 179.52C29.3897 179.52 30.9687 179.895 32.5975 180.672L33.459 178.867C31.5973 177.978 29.7254 177.52 27.8519 177.52V179.52ZM32.6221 180.683C34.2798 181.42 35.6897 182.447 36.8622 183.766L38.357 182.437C36.9909 180.9 35.3466 179.706 33.4344 178.856L32.6221 180.683ZM38.6096 183.101V166.025H36.6096V183.101H38.6096ZM37.6096 167.025H42.4884V165.025H37.6096V167.025ZM28.7444 182.399C26.4289 182.399 24.3936 182.981 22.6914 184.19L23.8498 185.82C25.1621 184.888 26.7761 184.399 28.7444 184.399V182.399ZM22.7059 184.18C21.0555 185.309 19.7732 186.789 18.8658 188.604L20.6546 189.498C21.4132 187.981 22.4711 186.764 23.8353 185.831L22.7059 184.18ZM18.8574 188.621C17.9967 190.429 17.5703 192.381 17.5703 194.465H19.5703C19.5703 192.663 19.9371 191.006 20.6631 189.481L18.8574 188.621ZM17.5703 194.465C17.5703 196.513 17.998 198.429 18.8614 200.199L20.659 199.322C19.9358 197.84 19.5703 196.226 19.5703 194.465H17.5703ZM18.8658 200.208C19.7342 201.945 20.9596 203.349 22.5374 204.401L23.6468 202.737C22.3686 201.885 21.3728 200.75 20.6546 199.314L18.8658 200.208ZM22.5479 204.408C24.1919 205.474 26.0701 205.997 28.1494 205.997V203.997C26.4209 203.997 24.9276 203.567 23.6363 202.73L22.5479 204.408ZM28.1494 205.997C30.1583 205.997 31.9802 205.469 33.583 204.401L32.4736 202.737C31.2205 203.572 29.7897 203.997 28.1494 203.997V205.997ZM33.583 204.401C35.1679 203.344 36.4101 201.897 37.3141 200.089L35.5252 199.195C34.7632 200.719 33.7445 201.889 32.4736 202.737L33.583 204.401ZM37.3182 200.081C38.2279 198.218 38.6518 196.155 38.6094 193.911L36.6098 193.949C36.6468 195.91 36.2773 197.655 35.5211 199.203L37.3182 200.081ZM38.6095 193.92L38.5501 188.208L36.5502 188.229L36.6097 193.94L38.6095 193.92ZM38.3329 187.596C37.0408 185.97 35.6214 184.691 34.0676 183.785L33.0599 185.512C34.362 186.272 35.6001 187.372 36.7673 188.84L38.3329 187.596ZM34.0782 183.791C32.5155 182.853 30.7267 182.399 28.7444 182.399V184.399C30.4113 184.399 31.8354 184.778 33.0492 185.506L34.0782 183.791ZM76.9973 185.6L76.0869 186.014L76.09 186.021L76.0932 186.028L76.9973 185.6ZM78.5442 195.893V196.893H79.5442V195.893H78.5442ZM55.697 195.893V194.893H54.544L54.707 196.035L55.697 195.893ZM57.4224 200.475L56.5867 201.024L57.4224 200.475ZM60.9923 203.807L60.4987 204.676L60.5077 204.681L60.5168 204.686L60.9923 203.807ZM72.0589 203.39L72.5571 204.257L72.5639 204.253L72.5707 204.249L72.0589 203.39ZM76.7593 199.761L77.7592 199.772L77.7874 197.264L76.0414 199.065L76.7593 199.761ZM76.6998 205.056L77.4717 205.692L77.6957 205.42L77.6997 205.067L76.6998 205.056ZM74.2009 207.198L74.7556 208.03L74.7624 208.026L74.2009 207.198ZM70.4525 208.983L70.1363 208.034L70.1202 208.04L70.1043 208.046L70.4525 208.983ZM52.4841 201.962L51.6079 202.444L51.6127 202.453L51.6177 202.462L52.4841 201.962ZM52.3651 186.374L51.4767 185.915L52.3651 186.374ZM57.4224 180.662L56.8748 179.825L56.8677 179.83L57.4224 180.662ZM58.7909 185.779L59.5067 186.477L59.515 186.468L58.7909 185.779ZM55.816 191.729L54.83 191.561L54.6322 192.729H55.816V191.729ZM73.7249 191.729V192.729H74.8321L74.7197 191.627L73.7249 191.729ZM72.0589 186.969L71.2434 187.547L71.2495 187.556L71.2558 187.565L72.0589 186.969ZM68.846 184.232L68.3988 185.126L68.4101 185.132L68.4216 185.137L68.846 184.232ZM64.8597 179.52C67.7777 179.52 70.1191 180.126 71.9439 181.271L73.0069 179.577C70.7859 178.183 68.0501 177.52 64.8597 177.52V179.52ZM71.9439 181.271C73.8002 182.436 75.1761 184.01 76.0869 186.014L77.9076 185.186C76.8352 182.827 75.1965 180.951 73.0069 179.577L71.9439 181.271ZM76.0932 186.028C77.0533 188.059 77.5442 190.369 77.5442 192.978H79.5442C79.5442 190.113 79.0038 187.505 77.9013 185.173L76.0932 186.028ZM77.5442 192.978V195.893H79.5442V192.978H77.5442ZM78.5442 194.893H55.697V196.893H78.5442V194.893ZM54.707 196.035C54.9656 197.844 55.5926 199.511 56.5867 201.024L58.2581 199.926C57.4277 198.662 56.9044 197.274 56.6869 195.752L54.707 196.035ZM56.5867 201.024C57.5875 202.547 58.8955 203.766 60.4987 204.676L61.4859 202.937C60.1538 202.181 59.082 201.179 58.2581 199.926L56.5867 201.024ZM60.5168 204.686C62.15 205.569 64.0034 205.997 66.0496 205.997V203.997C64.288 203.997 62.7699 203.631 61.4678 202.927L60.5168 204.686ZM66.0496 205.997C68.3671 205.997 70.5418 205.415 72.5571 204.257L71.5608 202.523C69.8475 203.507 68.0161 203.997 66.0496 203.997V205.997ZM72.5707 204.249C74.4967 203.102 76.1363 201.84 77.4772 200.457L76.0414 199.065C74.8436 200.3 73.3497 201.457 71.5471 202.531L72.5707 204.249ZM75.7593 199.75L75.6998 205.045L77.6997 205.067L77.7592 199.772L75.7593 199.75ZM75.9278 204.42C75.4564 204.993 74.7085 205.645 73.6394 206.371L74.7624 208.026C75.9144 207.244 76.8325 206.468 77.4717 205.692L75.9278 204.42ZM73.6462 206.366C72.6604 207.023 71.4938 207.582 70.1363 208.034L70.7687 209.932C72.2671 209.432 73.5994 208.801 74.7556 208.03L73.6462 206.366ZM70.1043 208.046C68.8324 208.518 67.4831 208.756 66.0496 208.756V210.756C67.7101 210.756 69.296 210.479 70.8007 209.92L70.1043 208.046ZM66.0496 208.756C63.1999 208.756 60.7063 208.084 58.5383 206.761L57.4965 208.468C60.0091 210.001 62.8702 210.756 66.0496 210.756V208.756ZM58.5383 206.761C56.3388 205.419 54.6142 203.656 53.3505 201.463L51.6177 202.462C53.0513 204.949 55.0155 206.954 57.4965 208.468L58.5383 206.761ZM53.3603 201.48C52.1356 199.254 51.5207 196.822 51.5207 194.168H49.5207C49.5207 197.146 50.2147 199.911 51.6079 202.444L53.3603 201.48ZM51.5207 194.168C51.5207 191.503 52.101 189.063 53.2535 186.833L51.4767 185.915C50.17 188.444 49.5207 191.2 49.5207 194.168H51.5207ZM53.2535 186.833C54.4086 184.597 55.9821 182.824 57.9771 181.494L56.8677 179.83C54.5789 181.356 52.7808 183.391 51.4767 185.915L53.2535 186.833ZM57.9701 181.499C59.9782 180.184 62.2644 179.52 64.8597 179.52V177.52C61.9018 177.52 59.2299 178.284 56.8748 179.825L57.9701 181.499ZM64.8597 182.28C62.1478 182.28 59.8562 183.21 58.0667 185.089L59.515 186.468C60.8988 185.015 62.653 184.28 64.8597 184.28V182.28ZM58.0751 185.08C56.34 186.859 55.2591 189.03 54.83 191.561L56.8019 191.896C57.1662 189.746 58.0686 187.951 59.5067 186.477L58.0751 185.08ZM55.816 192.729H73.7249V190.729H55.816V192.729ZM74.7197 191.627C74.5081 189.553 73.9074 187.782 72.862 186.373L71.2558 187.565C72.0351 188.615 72.545 190.017 72.73 191.83L74.7197 191.627ZM72.8744 186.39C71.9096 185.031 70.7079 184 69.2705 183.326L68.4216 185.137C69.5227 185.653 70.4629 186.448 71.2434 187.547L72.8744 186.39ZM69.2933 183.337C67.8883 182.635 66.4067 182.28 64.8597 182.28V184.28C66.0892 184.28 67.2652 184.559 68.3988 185.126L69.2933 183.337ZM91.4553 166.025H92.4553V165.025H91.4553V166.025ZM91.4553 208.864V209.864H92.4553V208.864H91.4553ZM86.5764 208.864H85.5764V209.864H86.5764V208.864ZM86.5764 166.025V165.025H85.5764V166.025H86.5764ZM90.4553 166.025V208.864H92.4553V166.025H90.4553ZM91.4553 207.864H86.5764V209.864H91.4553V207.864ZM87.5764 208.864V166.025H85.5764V208.864H87.5764ZM86.5764 167.025H91.4553V165.025H86.5764V167.025ZM109.186 166.085L108.444 166.756L108.461 166.774L108.479 166.792L109.186 166.085ZM109.186 171.678L108.462 170.988L108.453 170.997L108.444 171.007L109.186 171.678ZM103.414 171.678L102.673 172.349L102.681 172.358L102.69 172.367L103.414 171.678ZM103.414 166.085L102.69 165.395L102.689 165.396L103.414 166.085ZM109.364 179.115H110.364V178.115H109.364V179.115ZM109.364 208.864V209.864H110.364V208.864H109.364ZM104.485 208.864H103.485V209.864H104.485V208.864ZM104.485 183.696H105.485V182.696H104.485V183.696ZM99.785 183.696H98.785V184.696H99.785V183.696ZM99.785 179.115V178.115H98.785V179.115H99.785ZM106.33 165.835C107.205 165.835 107.885 166.138 108.444 166.756L109.927 165.414C108.979 164.366 107.755 163.835 106.33 163.835V165.835ZM108.479 166.792C109.094 167.408 109.376 168.089 109.376 168.881H111.376C111.376 167.531 110.864 166.349 109.893 165.378L108.479 166.792ZM109.376 168.881C109.376 169.625 109.1 170.318 108.462 170.988L109.91 172.367C110.858 171.372 111.376 170.2 111.376 168.881H109.376ZM108.444 171.007C107.885 171.625 107.205 171.927 106.33 171.927V173.927C107.755 173.927 108.979 173.397 109.927 172.349L108.444 171.007ZM106.33 171.927C105.453 171.927 104.743 171.623 104.138 170.988L102.69 172.367C103.672 173.399 104.906 173.927 106.33 173.927V171.927ZM104.156 171.007C103.553 170.34 103.284 169.642 103.284 168.881H101.284C101.284 170.184 101.769 171.35 102.673 172.349L104.156 171.007ZM103.284 168.881C103.284 168.073 103.558 167.386 104.139 166.774L102.689 165.396C101.763 166.371 101.284 167.548 101.284 168.881H103.284ZM104.138 166.775C104.743 166.14 105.453 165.835 106.33 165.835V163.835C104.906 163.835 103.672 164.364 102.69 165.395L104.138 166.775ZM108.364 179.115V208.864H110.364V179.115H108.364ZM109.364 207.864H104.485V209.864H109.364V207.864ZM105.485 208.864V183.696H103.485V208.864H105.485ZM104.485 182.696H99.785V184.696H104.485V182.696ZM100.785 183.696V179.115H98.785V183.696H100.785ZM99.785 180.115H109.364V178.115H99.785V180.115ZM146.134 179.115L147.039 179.54L147.709 178.115H146.134V179.115ZM132.152 208.864V209.864H132.787L133.057 209.289L132.152 208.864ZM129.117 208.864L128.206 209.274L128.471 209.864H129.117V208.864ZM115.73 179.115V178.115H114.184L114.819 179.525L115.73 179.115ZM121.561 179.115L122.486 178.735L122.232 178.115H121.561V179.115ZM130.545 201.01L129.62 201.39L130.507 203.552L131.459 201.417L130.545 201.01ZM140.303 179.115V178.115H139.654L139.39 178.708L140.303 179.115ZM145.229 178.69L131.247 208.439L133.057 209.289L147.039 179.54L145.229 178.69ZM132.152 207.864H129.117V209.864H132.152V207.864ZM130.029 208.454L116.642 178.705L114.819 179.525L128.206 209.274L130.029 208.454ZM115.73 180.115H121.561V178.115H115.73V180.115ZM120.636 179.495L129.62 201.39L131.471 200.631L122.486 178.735L120.636 179.495ZM131.459 201.417L141.217 179.522L139.39 178.708L129.632 200.603L131.459 201.417ZM140.303 180.115H146.134V178.115H140.303V180.115ZM175.883 185.6L174.973 186.014L174.976 186.021L174.979 186.028L175.883 185.6ZM177.43 195.893V196.893H178.43V195.893H177.43ZM154.583 195.893V194.893H153.43L153.593 196.035L154.583 195.893ZM156.308 200.475L155.472 201.024L156.308 200.475ZM159.878 203.807L159.384 204.676L159.393 204.681L159.402 204.686L159.878 203.807ZM170.945 203.39L171.443 204.257L171.45 204.253L171.456 204.249L170.945 203.39ZM175.645 199.761L176.645 199.772L176.673 197.264L174.927 199.065L175.645 199.761ZM175.585 205.056L176.357 205.692L176.581 205.42L176.585 205.067L175.585 205.056ZM173.086 207.198L173.641 208.03L173.648 208.026L173.086 207.198ZM169.338 208.983L169.022 208.034L169.006 208.04L168.99 208.046L169.338 208.983ZM151.37 201.962L150.494 202.444L150.498 202.453L150.503 202.462L151.37 201.962ZM151.251 186.374L150.362 185.915L151.251 186.374ZM156.308 180.662L155.76 179.825L155.753 179.83L156.308 180.662ZM157.677 185.779L158.392 186.477L158.401 186.468L157.677 185.779ZM154.702 191.729L153.716 191.561L153.518 192.729H154.702V191.729ZM172.611 191.729V192.729H173.718L173.605 191.627L172.611 191.729ZM170.945 186.969L170.129 187.547L170.135 187.556L170.141 187.565L170.945 186.969ZM167.732 184.232L167.284 185.126L167.296 185.132L167.307 185.137L167.732 184.232ZM163.745 179.52C166.663 179.52 169.005 180.126 170.83 181.271L171.893 179.577C169.672 178.183 166.936 177.52 163.745 177.52V179.52ZM170.83 181.271C172.686 182.436 174.062 184.01 174.973 186.014L176.793 185.186C175.721 182.827 174.082 180.951 171.893 179.577L170.83 181.271ZM174.979 186.028C175.939 188.059 176.43 190.369 176.43 192.978H178.43C178.43 190.113 177.889 187.505 176.787 185.173L174.979 186.028ZM176.43 192.978V195.893H178.43V192.978H176.43ZM177.43 194.893H154.583V196.893H177.43V194.893ZM153.593 196.035C153.851 197.844 154.478 199.511 155.472 201.024L157.144 199.926C156.313 198.662 155.79 197.274 155.573 195.752L153.593 196.035ZM155.472 201.024C156.473 202.547 157.781 203.766 159.384 204.676L160.372 202.937C159.039 202.181 157.968 201.179 157.144 199.926L155.472 201.024ZM159.402 204.686C161.036 205.569 162.889 205.997 164.935 205.997V203.997C163.174 203.997 161.655 203.631 160.353 202.927L159.402 204.686ZM164.935 205.997C167.253 205.997 169.427 205.415 171.443 204.257L170.446 202.523C168.733 203.507 166.902 203.997 164.935 203.997V205.997ZM171.456 204.249C173.382 203.102 175.022 201.84 176.363 200.457L174.927 199.065C173.729 200.3 172.235 201.457 170.433 202.531L171.456 204.249ZM174.645 199.75L174.585 205.045L176.585 205.067L176.645 199.772L174.645 199.75ZM174.813 204.42C174.342 204.993 173.594 205.645 172.525 206.371L173.648 208.026C174.8 207.244 175.718 206.468 176.357 205.692L174.813 204.42ZM172.532 206.366C171.546 207.023 170.379 207.582 169.022 208.034L169.654 209.932C171.153 209.432 172.485 208.801 173.641 208.03L172.532 206.366ZM168.99 208.046C167.718 208.518 166.369 208.756 164.935 208.756V210.756C166.596 210.756 168.182 210.479 169.686 209.92L168.99 208.046ZM164.935 208.756C162.086 208.756 159.592 208.084 157.424 206.761L156.382 208.468C158.895 210.001 161.756 210.756 164.935 210.756V208.756ZM157.424 206.761C155.224 205.419 153.5 203.656 152.236 201.463L150.503 202.462C151.937 204.949 153.901 206.954 156.382 208.468L157.424 206.761ZM152.246 201.48C151.021 199.254 150.406 196.822 150.406 194.168H148.406C148.406 197.146 149.1 199.911 150.494 202.444L152.246 201.48ZM150.406 194.168C150.406 191.503 150.987 189.063 152.139 186.833L150.362 185.915C149.056 188.444 148.406 191.2 148.406 194.168H150.406ZM152.139 186.833C153.294 184.597 154.868 182.824 156.863 181.494L155.753 179.83C153.465 181.356 151.666 183.391 150.362 185.915L152.139 186.833ZM156.856 181.499C158.864 180.184 161.15 179.52 163.745 179.52V177.52C160.787 177.52 158.116 178.284 155.76 179.825L156.856 181.499ZM163.745 182.28C161.033 182.28 158.742 183.21 156.952 185.089L158.401 186.468C159.784 185.015 161.539 184.28 163.745 184.28V182.28ZM156.961 185.08C155.226 186.859 154.145 189.03 153.716 191.561L155.688 191.896C156.052 189.746 156.954 187.951 158.392 186.477L156.961 185.08ZM154.702 192.729H172.611V190.729H154.702V192.729ZM173.605 191.627C173.394 189.553 172.793 187.782 171.748 186.373L170.141 187.565C170.921 188.615 171.431 190.017 171.616 191.83L173.605 191.627ZM171.76 186.39C170.795 185.031 169.594 184 168.156 183.326L167.307 185.137C168.408 185.653 169.349 186.448 170.129 187.547L171.76 186.39ZM168.179 183.337C166.774 182.635 165.292 182.28 163.745 182.28V184.28C164.975 184.28 166.151 184.559 167.284 185.126L168.179 183.337ZM190.341 179.115H191.341V178.115H190.341V179.115ZM190.341 185.065H189.341V188.782L191.206 185.567L190.341 185.065ZM202.597 179.115H203.597V178.459L202.996 178.198L202.597 179.115ZM202.597 184.767L202.087 185.627L203.597 186.524V184.767H202.597ZM193.851 185.779L193.104 185.114L193.099 185.12L193.094 185.126L193.851 185.779ZM190.341 190.896L189.468 190.407L189.341 190.635V190.896H190.341ZM190.341 208.864V209.864H191.341V208.864H190.341ZM185.462 208.864H184.462V209.864H185.462V208.864ZM185.462 179.115V178.115H184.462V179.115H185.462ZM189.341 179.115V185.065H191.341V179.115H189.341ZM191.206 185.567C192.296 183.686 193.596 182.21 195.096 181.112L193.915 179.498C192.163 180.78 190.686 182.477 189.476 184.563L191.206 185.567ZM195.096 181.112C196.583 180.024 198.047 179.52 199.504 179.52V177.52C197.549 177.52 195.681 178.206 193.915 179.498L195.096 181.112ZM199.504 179.52C200.538 179.52 201.43 179.698 202.199 180.032L202.996 178.198C201.94 177.739 200.77 177.52 199.504 177.52V179.52ZM201.597 179.115V184.767H203.597V179.115H201.597ZM203.108 183.907C201.71 183.077 200.266 182.637 198.79 182.637V184.637C199.852 184.637 200.947 184.95 202.087 185.627L203.108 183.907ZM198.79 182.637C196.5 182.637 194.575 183.459 193.104 185.114L194.599 186.443C195.666 185.243 197.033 184.637 198.79 184.637V182.637ZM193.094 185.126C191.812 186.614 190.605 188.377 189.468 190.407L191.213 191.384C192.298 189.448 193.431 187.799 194.609 186.431L193.094 185.126ZM189.341 190.896V208.864H191.341V190.896H189.341ZM190.341 207.864H185.462V209.864H190.341V207.864ZM186.462 208.864V179.115H184.462V208.864H186.462ZM185.462 180.115H190.341V178.115H185.462V180.115Z"/>
<path d="M21.1813 17.0221C25.6635 17.0221 29.4515 17.9344 32.5454 19.759C35.679 21.5836 38.0589 24.0627 39.6851 27.1962C41.3511 30.2901 42.1841 33.8005 42.1841 37.7274C42.1841 41.6542 41.3511 45.1845 39.6851 48.318C38.0589 51.4119 35.679 53.8712 32.5454 55.6958C29.4515 57.5204 25.6635 58.4327 21.1813 58.4327C18.4444 58.4327 15.9256 58.2938 13.625 58.0162C11.3244 57.7385 8.96436 57.3815 6.54478 56.9452V18.5095C8.96436 18.0732 11.3244 17.7162 13.625 17.4386C15.9256 17.1609 18.4444 17.0221 21.1813 17.0221ZM21.1813 22.0794C19.7533 22.0794 18.2262 22.1389 16.5999 22.2579C14.9737 22.3372 13.4069 22.4761 11.8996 22.6744V52.7804C13.4069 52.939 14.9737 53.0779 16.5999 53.1969C18.2262 53.3158 19.7533 53.3753 21.1813 53.3753C24.3942 53.3753 27.1509 52.701 29.4515 51.3524C31.7918 49.9641 33.5767 48.0999 34.8063 45.7596C36.0756 43.3797 36.7103 40.7023 36.7103 37.7274C36.7103 34.7525 36.0756 32.0949 34.8063 29.7546C33.5767 27.3747 31.7918 25.5105 29.4515 24.1618C27.1509 22.7736 24.3942 22.0794 21.1813 22.0794ZM62.4729 27.4937C65.5271 27.4937 68.0657 28.1284 70.0886 29.3977C72.1115 30.667 73.6188 32.3924 74.6105 34.574C75.6418 36.7556 76.1574 39.2148 76.1574 41.9517V44.8671H53.3102C53.5482 46.5331 54.1233 48.0602 55.0356 49.4485C55.9479 50.8368 57.1379 51.9474 58.6055 52.7804C60.0731 53.5737 61.7589 53.9703 63.6628 53.9703C65.8048 53.9703 67.8079 53.4348 69.6721 52.3639C71.5364 51.2532 73.1032 50.0435 74.3725 48.7345L74.313 54.0298C73.7577 54.7041 72.9247 55.4181 71.8141 56.1717C70.7431 56.8857 69.4936 57.4807 68.0657 57.9567C66.6774 58.4723 65.2098 58.7302 63.6628 58.7302C60.6483 58.7302 57.9709 58.0162 55.6306 56.5882C53.2904 55.1603 51.4459 53.2762 50.0973 50.9359C48.7883 48.556 48.1339 45.9579 48.1339 43.1417C48.1339 40.3255 48.7487 37.7274 49.9783 35.3475C51.2079 32.9675 52.8937 31.0636 55.0356 29.6357C57.2172 28.2077 59.6963 27.4937 62.4729 27.4937ZM62.4729 32.2536C60.0136 32.2536 57.9907 33.0865 56.4041 34.7525C54.8175 36.3788 53.8258 38.362 53.4292 40.7023H71.3381C71.1397 38.7587 70.5844 37.1721 69.6721 35.9424C68.7995 34.7128 67.7285 33.8005 66.4592 33.2055C65.1899 32.5709 63.8612 32.2536 62.4729 32.2536ZM93.0548 27.4937C94.8001 27.4937 96.4264 27.7515 97.9337 28.2672C99.441 28.7432 100.532 29.239 101.206 29.7546V34.9905C100.373 34.3558 99.2426 33.741 97.8147 33.146C96.3867 32.5511 94.9191 32.2536 93.4118 32.2536C91.5476 32.2536 90.1394 32.6899 89.1875 33.5625C88.2752 34.4352 87.819 35.3475 87.819 36.2994C87.819 37.0531 88.0768 37.8265 88.5925 38.6198C89.1478 39.3735 90.0998 39.9883 91.4484 40.4643L96.4462 42.2492C98.3898 42.9235 99.8376 43.8953 100.79 45.1646C101.742 46.4339 102.218 47.9214 102.218 49.627C102.218 51.2929 101.742 52.82 100.79 54.2083C99.8773 55.5966 98.5881 56.7072 96.9222 57.5402C95.2959 58.3335 93.4118 58.7302 91.2699 58.7302C90.1196 58.7302 88.9098 58.5715 87.6405 58.2542C86.4109 57.9765 85.3003 57.6394 84.3086 57.2427C83.317 56.8064 82.5832 56.4296 82.1072 56.1123V50.8764C82.6625 51.2731 83.436 51.7292 84.4276 52.2449C85.4589 52.7209 86.5497 53.1374 87.7 53.4943C88.8503 53.8117 89.9213 53.9703 90.9129 53.9703C92.7772 53.9703 94.2448 53.5538 95.3158 52.7209C96.4264 51.8879 96.9817 50.8566 96.9817 49.627C96.9817 48.675 96.6049 47.9214 95.8512 47.366C95.1373 46.8107 94.0861 46.2753 92.6978 45.7596L88.295 44.1532C85.9944 43.2805 84.4673 42.1897 83.7137 40.8808C82.96 39.5321 82.5832 38.005 82.5832 36.2994C82.5832 33.7608 83.5352 31.6586 85.4391 29.9926C87.343 28.3267 89.8816 27.4937 93.0548 27.4937ZM114.415 13.8092C115.565 13.8092 116.517 14.2257 117.271 15.0586C118.064 15.852 118.46 16.7841 118.46 17.8551C118.46 18.8864 118.064 19.8185 117.271 20.6515C116.517 21.4844 115.565 21.9009 114.415 21.9009C113.264 21.9009 112.293 21.4844 111.499 20.6515C110.746 19.8185 110.369 18.8864 110.369 17.8551C110.369 16.7841 110.746 15.852 111.499 15.0586C112.293 14.2257 113.264 13.8092 114.415 13.8092ZM117.449 28.0887V57.8377H112.57V32.67H107.87V28.0887H117.449ZM140.237 27.4937C141.942 27.4937 143.668 27.9102 145.413 28.7432C147.198 29.5365 148.725 30.6471 149.994 32.0751V28.0887H154.873V57.2427C154.873 60.7729 154.159 63.7082 152.731 66.0484C151.303 68.3887 149.399 70.1339 147.019 71.2842C144.64 72.4345 142.041 73.0097 139.225 73.0097C137.401 73.0097 135.834 72.7915 134.525 72.3552C133.256 71.9585 132.165 71.4429 131.253 70.8083C130.34 70.2133 129.507 69.6381 128.754 69.0828V63.847C129.349 64.2833 130.122 64.8386 131.074 65.5129C132.066 66.2269 133.236 66.8616 134.584 67.4169C135.973 67.9722 137.52 68.2498 139.225 68.2498C141.169 68.2498 142.954 67.8929 144.58 67.1789C146.206 66.4649 147.515 65.4138 148.507 64.0255C149.499 62.6372 149.994 60.9713 149.994 59.0277V52.7804C148.963 54.367 147.555 55.7553 145.77 56.9452C144.025 58.1352 142.022 58.7302 139.761 58.7302C137.222 58.7302 134.902 58.0955 132.799 56.8262C130.697 55.5173 129.011 53.7125 127.742 51.4119C126.513 49.1113 125.898 46.4537 125.898 43.4392C125.898 40.147 126.513 37.3109 127.742 34.931C129.011 32.5511 130.737 30.7264 132.918 29.4572C135.1 28.1482 137.539 27.4937 140.237 27.4937ZM141.129 32.3131C138.987 32.3131 137.163 32.8485 135.655 33.9195C134.148 34.9508 132.978 36.3193 132.145 38.0249C131.352 39.6908 130.955 41.4956 130.955 43.4392C130.955 45.3431 131.352 47.0884 132.145 48.675C132.938 50.2616 134.049 51.5309 135.477 52.4829C136.945 53.4348 138.63 53.9108 140.534 53.9108C142.359 53.9108 143.985 53.4348 145.413 52.4829C146.841 51.5309 147.971 50.222 148.804 48.556C149.637 46.8901 150.034 45.006 149.994 42.9037L149.935 37.1919C148.705 35.6449 147.376 34.455 145.949 33.622C144.56 32.7494 142.954 32.3131 141.129 32.3131ZM169.867 28.0887V32.789C170.501 31.9957 171.315 31.2024 172.306 30.4091C173.298 29.5762 174.408 28.882 175.638 28.3267C176.907 27.7714 178.216 27.4937 179.565 27.4937C181.588 27.4937 183.432 27.9499 185.098 28.8622C186.764 29.7348 188.093 31.0834 189.085 32.908C190.076 34.693 190.572 36.9539 190.572 39.6908V57.8377H185.693L185.634 40.1668C185.634 37.5885 185.059 35.6251 183.908 34.2765C182.798 32.9279 181.072 32.2536 178.732 32.2536C177.145 32.2536 175.559 32.8485 173.972 34.0385C172.425 35.1888 171.057 36.5374 169.867 38.0844V57.8377H164.988V28.0887H169.867ZM21.1813 90.0221C25.6635 90.0221 29.4515 90.9344 32.5454 92.759C35.679 94.5836 38.0589 97.0627 39.6851 100.196C41.3511 103.29 42.1841 106.801 42.1841 110.727C42.1841 114.654 41.3511 118.184 39.6851 121.318C38.0589 124.412 35.679 126.871 32.5454 128.696C29.4515 130.52 25.6635 131.433 21.1813 131.433C18.4444 131.433 15.9256 131.294 13.625 131.016C11.3244 130.739 8.96436 130.382 6.54478 129.945V91.5095C8.96436 91.0732 11.3244 90.7162 13.625 90.4386C15.9256 90.1609 18.4444 90.0221 21.1813 90.0221ZM21.1813 95.0794C19.7533 95.0794 18.2262 95.1389 16.5999 95.2579C14.9737 95.3372 13.4069 95.4761 11.8996 95.6744V125.78C13.4069 125.939 14.9737 126.078 16.5999 126.197C18.2262 126.316 19.7533 126.375 21.1813 126.375C24.3942 126.375 27.1509 125.701 29.4515 124.352C31.7918 122.964 33.5767 121.1 34.8063 118.76C36.0756 116.38 36.7103 113.702 36.7103 110.727C36.7103 107.752 36.0756 105.095 34.8063 102.755C33.5767 100.375 31.7918 98.5105 29.4515 97.1618C27.1509 95.7736 24.3942 95.0794 21.1813 95.0794ZM62.4729 100.494C65.5271 100.494 68.0657 101.128 70.0886 102.398C72.1115 103.667 73.6188 105.392 74.6105 107.574C75.6418 109.756 76.1574 112.215 76.1574 114.952V117.867H53.3102C53.5482 119.533 54.1233 121.06 55.0356 122.448C55.9479 123.837 57.1379 124.947 58.6055 125.78C60.0731 126.574 61.7589 126.97 63.6628 126.97C65.8048 126.97 67.8079 126.435 69.6721 125.364C71.5364 124.253 73.1032 123.043 74.3725 121.735L74.313 127.03C73.7577 127.704 72.9247 128.418 71.8141 129.172C70.7431 129.886 69.4936 130.481 68.0657 130.957C66.6774 131.472 65.2098 131.73 63.6628 131.73C60.6483 131.73 57.9709 131.016 55.6306 129.588C53.2904 128.16 51.4459 126.276 50.0973 123.936C48.7883 121.556 48.1339 118.958 48.1339 116.142C48.1339 113.325 48.7487 110.727 49.9783 108.347C51.2079 105.968 52.8937 104.064 55.0356 102.636C57.2172 101.208 59.6963 100.494 62.4729 100.494ZM62.4729 105.254C60.0136 105.254 57.9907 106.087 56.4041 107.752C54.8175 109.379 53.8258 111.362 53.4292 113.702H71.3381C71.1397 111.759 70.5844 110.172 69.6721 108.942C68.7995 107.713 67.7285 106.801 66.4592 106.206C65.1899 105.571 63.8612 105.254 62.4729 105.254ZM110.428 101.089L96.4462 130.838H93.4118L80.0248 101.089H85.8556L94.8398 122.984L104.597 101.089H110.428ZM128.04 100.494C131.094 100.494 133.632 101.128 135.655 102.398C137.678 103.667 139.186 105.392 140.177 107.574C141.209 109.756 141.724 112.215 141.724 114.952V117.867H118.877C119.115 119.533 119.69 121.06 120.602 122.448C121.515 123.837 122.705 124.947 124.172 125.78C125.64 126.574 127.326 126.97 129.23 126.97C131.372 126.97 133.375 126.435 135.239 125.364C137.103 124.253 138.67 123.043 139.939 121.735L139.88 127.03C139.324 127.704 138.491 128.418 137.381 129.172C136.31 129.886 135.06 130.481 133.632 130.957C132.244 131.472 130.777 131.73 129.23 131.73C126.215 131.73 123.538 131.016 121.197 129.588C118.857 128.16 117.013 126.276 115.664 123.936C114.355 121.556 113.701 118.958 113.701 116.142C113.701 113.325 114.315 110.727 115.545 108.347C116.775 105.968 118.46 104.064 120.602 102.636C122.784 101.208 125.263 100.494 128.04 100.494ZM128.04 105.254C125.58 105.254 123.557 106.087 121.971 107.752C120.384 109.379 119.393 111.362 118.996 113.702H136.905C136.707 111.759 136.151 110.172 135.239 108.942C134.366 107.713 133.295 106.801 132.026 106.206C130.757 105.571 129.428 105.254 128.04 105.254ZM154.635 87.9992V130.838H149.756V87.9992H154.635ZM178.196 100.494C181.211 100.494 183.888 101.208 186.229 102.636C188.569 104.064 190.394 105.968 191.702 108.347C193.051 110.727 193.725 113.325 193.725 116.142C193.725 118.958 193.051 121.556 191.702 123.936C190.394 126.276 188.569 128.16 186.229 129.588C183.888 131.016 181.211 131.73 178.196 131.73C175.182 131.73 172.504 131.016 170.164 129.588C167.824 128.16 165.98 126.276 164.631 123.936C163.322 121.556 162.667 118.958 162.667 116.142C162.667 113.325 163.322 110.727 164.631 108.347C165.98 105.968 167.824 104.064 170.164 102.636C172.504 101.208 175.182 100.494 178.196 100.494ZM178.196 105.254C176.094 105.254 174.25 105.769 172.663 106.801C171.077 107.792 169.847 109.121 168.974 110.787C168.141 112.413 167.725 114.198 167.725 116.142C167.725 118.046 168.141 119.831 168.974 121.497C169.847 123.123 171.077 124.452 172.663 125.483C174.25 126.475 176.094 126.97 178.196 126.97C180.338 126.97 182.183 126.475 183.73 125.483C185.316 124.452 186.526 123.123 187.359 121.497C188.232 119.831 188.668 118.046 188.668 116.142C188.668 114.198 188.232 112.413 187.359 110.787C186.526 109.121 185.316 107.792 183.73 106.801C182.183 105.769 180.338 105.254 178.196 105.254ZM216.87 100.494C219.448 100.494 221.769 101.128 223.831 102.398C225.934 103.627 227.6 105.373 228.829 107.633C230.098 109.855 230.733 112.473 230.733 115.487C230.733 118.74 230.098 121.596 228.829 124.055C227.6 126.475 225.894 128.359 223.712 129.707C221.57 131.056 219.131 131.73 216.394 131.73C214.689 131.73 212.943 131.274 211.158 130.362C209.413 129.449 207.906 128.279 206.636 126.851V145.117H201.758V101.089H206.636V106.146C207.668 104.559 209.056 103.231 210.801 102.16C212.586 101.049 214.609 100.494 216.87 100.494ZM216.097 105.254C214.312 105.254 212.685 105.71 211.218 106.622C209.79 107.534 208.659 108.804 207.826 110.43C207.033 112.016 206.636 113.881 206.636 116.023L206.696 121.735C207.965 123.281 209.294 124.551 210.682 125.542C212.071 126.494 213.677 126.97 215.502 126.97C217.644 126.97 219.468 126.415 220.975 125.304C222.483 124.194 223.633 122.766 224.426 121.021C225.259 119.236 225.676 117.391 225.676 115.487C225.676 113.544 225.279 111.818 224.486 110.311C223.693 108.764 222.582 107.534 221.154 106.622C219.726 105.71 218.04 105.254 216.097 105.254ZM21.1813 163.022C25.6635 163.022 29.4515 163.934 32.5454 165.759C35.679 167.584 38.0589 170.063 39.6851 173.196C41.3511 176.29 42.1841 179.801 42.1841 183.727C42.1841 187.654 41.3511 191.184 39.6851 194.318C38.0589 197.412 35.679 199.871 32.5454 201.696C29.4515 203.52 25.6635 204.433 21.1813 204.433C18.4444 204.433 15.9256 204.294 13.625 204.016C11.3244 203.739 8.96436 203.382 6.54478 202.945V164.51C8.96436 164.073 11.3244 163.716 13.625 163.439C15.9256 163.161 18.4444 163.022 21.1813 163.022ZM21.1813 168.079C19.7533 168.079 18.2262 168.139 16.5999 168.258C14.9737 168.337 13.4069 168.476 11.8996 168.674V198.78C13.4069 198.939 14.9737 199.078 16.5999 199.197C18.2262 199.316 19.7533 199.375 21.1813 199.375C24.3942 199.375 27.1509 198.701 29.4515 197.352C31.7918 195.964 33.5767 194.1 34.8063 191.76C36.0756 189.38 36.7103 186.702 36.7103 183.727C36.7103 180.752 36.0756 178.095 34.8063 175.755C33.5767 173.375 31.7918 171.51 29.4515 170.162C27.1509 168.774 24.3942 168.079 21.1813 168.079ZM62.4729 173.494C65.5271 173.494 68.0657 174.128 70.0886 175.398C72.1115 176.667 73.6188 178.392 74.6105 180.574C75.6418 182.756 76.1574 185.215 76.1574 187.952V190.867H53.3102C53.5482 192.533 54.1233 194.06 55.0356 195.448C55.9479 196.837 57.1379 197.947 58.6055 198.78C60.0731 199.574 61.7589 199.97 63.6628 199.97C65.8048 199.97 67.8079 199.435 69.6721 198.364C71.5364 197.253 73.1032 196.043 74.3725 194.735L74.313 200.03C73.7577 200.704 72.9247 201.418 71.8141 202.172C70.7431 202.886 69.4936 203.481 68.0657 203.957C66.6774 204.472 65.2098 204.73 63.6628 204.73C60.6483 204.73 57.9709 204.016 55.6306 202.588C53.2904 201.16 51.4459 199.276 50.0973 196.936C48.7883 194.556 48.1339 191.958 48.1339 189.142C48.1339 186.325 48.7487 183.727 49.9783 181.347C51.2079 178.968 52.8937 177.064 55.0356 175.636C57.2172 174.208 59.6963 173.494 62.4729 173.494ZM62.4729 178.254C60.0136 178.254 57.9907 179.087 56.4041 180.752C54.8175 182.379 53.8258 184.362 53.4292 186.702H71.3381C71.1397 184.759 70.5844 183.172 69.6721 181.942C68.7995 180.713 67.7285 179.801 66.4592 179.206C65.1899 178.571 63.8612 178.254 62.4729 178.254ZM89.0685 160.999V203.838H84.1896V160.999H89.0685ZM103.943 159.809C105.093 159.809 106.045 160.226 106.799 161.059C107.592 161.852 107.989 162.784 107.989 163.855C107.989 164.886 107.592 165.818 106.799 166.651C106.045 167.484 105.093 167.901 103.943 167.901C102.793 167.901 101.821 167.484 101.028 166.651C100.274 165.818 99.8971 164.886 99.8971 163.855C99.8971 162.784 100.274 161.852 101.028 161.059C101.821 160.226 102.793 159.809 103.943 159.809ZM106.977 174.089V203.838H102.099V178.67H97.3982V174.089H106.977ZM143.747 174.089L129.765 203.838H126.731L113.344 174.089H119.174L128.159 195.984L137.916 174.089H143.747ZM161.359 173.494C164.413 173.494 166.951 174.128 168.974 175.398C170.997 176.667 172.504 178.392 173.496 180.574C174.527 182.756 175.043 185.215 175.043 187.952V190.867H152.196C152.434 192.533 153.009 194.06 153.921 195.448C154.834 196.837 156.024 197.947 157.491 198.78C158.959 199.574 160.645 199.97 162.548 199.97C164.69 199.97 166.693 199.435 168.558 198.364C170.422 197.253 171.989 196.043 173.258 194.735L173.199 200.03C172.643 200.704 171.81 201.418 170.7 202.172C169.629 202.886 168.379 203.481 166.951 203.957C165.563 204.472 164.095 204.73 162.548 204.73C159.534 204.73 156.856 204.016 154.516 202.588C152.176 201.16 150.332 199.276 148.983 196.936C147.674 194.556 147.02 191.958 147.02 189.142C147.02 186.325 147.634 183.727 148.864 181.347C150.094 178.968 151.779 177.064 153.921 175.636C156.103 174.208 158.582 173.494 161.359 173.494ZM161.359 178.254C158.899 178.254 156.876 179.087 155.29 180.752C153.703 182.379 152.711 184.362 152.315 186.702H170.224C170.025 184.759 169.47 183.172 168.558 181.942C167.685 180.713 166.614 179.801 165.345 179.206C164.076 178.571 162.747 178.254 161.359 178.254ZM187.954 174.089V180.039C189.104 178.055 190.493 176.469 192.119 175.279C193.745 174.089 195.411 173.494 197.117 173.494C198.267 173.494 199.298 173.692 200.211 174.089V179.741C198.941 178.987 197.672 178.611 196.403 178.611C194.38 178.611 192.734 179.325 191.464 180.752C190.235 182.18 189.065 183.886 187.954 185.869V203.838H183.075V174.089H187.954Z" fill="white"/>
</svg>
