<svg width="70" height="70" viewBox="0 0 70 70" fill="none" xmlns="http://www.w3.org/2000/svg">
<path d="M62.9648 36.316C62.5032 35.847 62.0166 35.3768 61.5052 34.9055C61.8619 34.5695 62.2081 34.2347 62.5438 33.901C68.8585 27.587 71.5259 21.252 69.0552 17.4475C66.6867 13.797 59.6403 12.7085 50.8156 14.2345C49.9474 14.3862 49.0832 14.5565 48.2229 14.7455C48.0576 14.2415 47.8832 13.7398 47.6996 13.2405C44.7056 5.215 39.8703 -0.00349824 34.9287 1.75947e-06C30.1918 1.75947e-06 25.6122 4.8895 22.689 12.453C22.4005 13.1997 22.1343 13.951 21.8904 14.707C21.3159 14.581 20.7389 14.4643 20.1592 14.357C10.8506 12.6595 3.35569 13.7795 0.888866 17.591C-1.47567 21.2415 0.995093 27.216 6.90053 33.243C7.48806 33.838 8.09132 34.4213 8.71033 34.993C7.97854 35.658 7.29003 36.3265 6.6448 36.9915C0.880999 42.9345 -1.44813 48.8075 0.912473 52.444C3.35176 56.203 10.7404 57.4315 19.7383 55.8565C20.4674 55.7282 21.1927 55.5835 21.914 55.4225C22.1762 56.2415 22.4661 57.0547 22.7834 57.862C25.6949 65.2715 30.2469 70 34.9681 70C39.8467 70 44.7331 64.9145 47.6957 57.1935C47.9317 56.5845 48.1481 55.951 48.3606 55.3C49.2917 55.5053 50.2294 55.6873 51.1736 55.846C59.841 57.3055 66.7221 56.161 69.0788 52.521C71.5141 48.7585 69.0001 42.4515 62.9648 36.316ZM3.80028 19.082C5.31893 16.737 11.4447 15.82 19.4825 17.29C19.9966 17.3833 20.5199 17.4883 21.0523 17.605C20.2666 20.6933 19.712 23.8245 19.392 26.978C16.4934 28.7912 13.7297 30.7694 11.1181 32.9C10.5437 32.3703 9.98374 31.8278 9.43818 31.2725C4.37469 26.1135 2.37605 21.2835 3.80028 19.082ZM19.093 39.13C17.0865 37.7755 15.2177 36.3895 13.522 34.9965C15.2138 33.6105 17.0826 32.2315 19.0891 30.8805C19.0157 32.2548 18.9803 33.6303 18.9829 35.007C18.9829 36.3837 19.0196 37.758 19.093 39.13ZM19.093 52.92C15.6828 53.5956 12.162 53.7072 8.70639 53.249C7.75906 53.1831 6.83699 52.945 5.99719 52.5495C5.15738 52.154 4.41771 51.6094 3.82388 50.9495C2.38785 48.7445 4.26059 44.0265 9.19032 38.9445C9.80932 38.3075 10.4493 37.6868 11.1103 37.0825C13.723 39.2262 16.4923 41.2139 19.3999 43.0325C19.723 46.2259 20.2829 49.3968 21.0759 52.5245C20.4202 52.6715 19.7579 52.8045 19.0891 52.9235L19.093 52.92ZM47.0268 24.7835C45.7075 24.0438 44.3725 23.3287 43.0217 22.638C41.6892 21.9567 40.3424 21.2998 38.9811 20.6675C41.3142 19.796 43.6079 19.0505 45.8229 18.445C46.3438 20.5385 46.7456 22.654 47.0268 24.7835ZM25.8719 13.4225C28.3741 6.9475 32.0803 2.9925 34.9366 2.9925C37.9779 2.989 41.9279 7.2555 44.5128 14.182C44.6806 14.6347 44.838 15.0897 44.9849 15.547C41.5917 16.4825 38.2717 17.6167 35.0468 18.942C31.8325 17.6004 28.5201 16.4533 25.1322 15.5085C25.3604 14.8085 25.607 14.1132 25.8719 13.4225ZM24.2982 18.4065C26.608 19.0532 28.8797 19.8032 31.1046 20.6535C28.3453 21.9182 25.6594 23.296 23.047 24.787C23.3618 22.554 23.7828 20.4155 24.2982 18.4065ZM23.051 45.2165C24.3546 45.9608 25.6778 46.676 27.0207 47.362C28.3899 48.062 29.7761 48.734 31.1793 49.378C28.9384 50.2577 26.6482 51.0346 24.3178 51.7055C23.7764 49.5634 23.3536 47.399 23.051 45.22V45.2165ZM44.5167 56.2275C43.47 59.1921 41.8189 61.96 39.646 64.393C39.1095 65.0905 38.4179 65.6826 37.614 66.1329C36.8101 66.5832 35.9109 66.8821 34.972 67.011C32.1039 67.011 28.4489 63.2135 25.9624 56.875C25.6686 56.126 25.3985 55.37 25.1519 54.607C28.5559 53.6302 31.8815 52.4491 35.1058 51.072C38.3581 52.4081 41.7056 53.5527 45.1265 54.4985C44.9377 55.0795 44.7344 55.6558 44.5167 56.2275ZM45.9409 51.5935C43.7023 50.9775 41.3771 50.218 39.0086 49.3325C40.3437 48.7095 41.6879 48.0503 43.0413 47.355C44.4315 46.641 45.7849 45.9095 47.1016 45.1605C46.8386 47.3211 46.4512 49.4682 45.9409 51.5935ZM47.6996 34.993C47.6996 37.1187 47.6248 39.242 47.4753 41.363C45.5357 42.532 43.4899 43.673 41.3614 44.765C39.2368 45.8535 37.1398 46.8545 35.0782 47.761C32.9091 46.837 30.7819 45.8407 28.6968 44.772C26.6247 43.7103 24.5998 42.5798 22.6221 41.3805C22.4385 39.2572 22.3467 37.1315 22.3467 35.0035C22.3467 32.8778 22.4359 30.7533 22.6143 28.63C26.5693 26.2279 30.7227 24.095 35.0389 22.2495C37.1792 23.1758 39.2814 24.1687 41.3456 25.228C43.4177 26.2873 45.4505 27.4062 47.4439 28.5845C47.6143 30.7172 47.6996 32.8533 47.6996 34.993ZM51.4608 17.1675C59.0226 15.862 64.7195 16.7405 66.1477 18.942C67.6703 21.287 65.4907 26.46 60.0337 31.913C59.7321 32.214 59.42 32.5162 59.0974 32.8195C56.4396 30.6821 53.6214 28.7082 50.6621 26.9115C50.3641 23.7928 49.8318 20.6954 49.0687 17.64C49.8818 17.4627 50.6792 17.3052 51.4608 17.1675ZM50.9494 30.765C52.9462 32.0616 54.8662 33.4494 56.7014 34.923C54.8747 36.4202 52.9613 37.8315 50.969 39.151C51.0294 37.765 51.0595 36.379 51.0595 34.993C51.0595 33.5837 51.0228 32.1743 50.9494 30.765ZM66.1713 51.0265C64.7392 53.235 59.2154 54.1555 51.7992 52.9095C50.9494 52.7672 50.0786 52.5968 49.1868 52.3985C49.9314 49.3036 50.4401 46.1674 50.7094 43.0115C53.6633 41.1845 56.4725 39.179 59.117 37.009C59.5813 37.436 60.0219 37.8607 60.439 38.283C62.8037 40.5705 64.6749 43.2258 65.9588 46.116C66.3698 46.8781 66.6007 47.7071 66.6372 48.5517C66.6738 49.3963 66.5152 50.2386 66.1713 51.0265ZM31.4744 29.533C30.2709 30.1512 29.3006 31.073 28.686 32.1817C28.0713 33.2905 27.8401 34.5365 28.0215 35.7622C28.2029 36.9879 28.7887 38.1382 29.7049 39.0677C30.6212 39.9972 31.8266 40.6642 33.1689 40.9842C34.5112 41.3043 35.9301 41.2631 37.246 40.8658C38.562 40.4686 39.716 39.7331 40.5622 38.7524C41.4083 37.7718 41.9086 36.5899 41.9997 35.3563C42.0908 34.1227 41.7687 32.8928 41.0742 31.822C40.6129 31.1109 39.9986 30.4876 39.2665 29.9877C38.5344 29.4877 37.6987 29.121 36.8073 28.9085C35.9158 28.6959 34.986 28.6417 34.071 28.7488C33.156 28.856 32.2736 29.1224 31.4744 29.533Z" fill="#CC00FF"/>
</svg>
