<svg width="60" height="60" viewBox="0 0 60 60" fill="none" xmlns="http://www.w3.org/2000/svg">
<path d="M51.9276 43.1248C52.2806 42.4907 52.5 41.7763 52.5 41.1347V18.8649C52.5 18.2234 52.2808 17.5091 51.9276 16.875L30 30L51.9276 43.1248Z" fill="#7F3A86"/>
<path d="M31.9491 55.7687L50.5521 44.6338C51.0879 44.313 51.5751 43.7591 51.9281 43.125L30.0006 30L8.07312 43.125C8.42622 43.7591 8.91342 44.3132 9.44916 44.6338L28.0521 55.7687C29.1236 56.4103 30.8775 56.4103 31.9491 55.7687Z" fill="#662579"/>
<path d="M51.9276 16.8749C51.5745 16.2407 51.0872 15.6868 50.5515 15.366L31.9485 4.23116C30.8769 3.58961 29.1231 3.58961 28.0515 4.23116L9.44854 15.366C8.37677 16.0074 7.5 17.582 7.5 18.8649V41.1349C7.5 41.7763 7.71926 42.4909 8.07249 43.125L30 30L51.9276 16.8749Z" fill="#9A5196"/>
<path d="M30.0722 45C21.7614 45 15 38.271 15 30C15 21.729 21.7614 15 30.0722 15C35.3359 15 40.2514 17.7669 42.9731 22.2409L36.5184 26.1122C35.1547 23.88 32.6998 22.5 30.0722 22.5C25.9166 22.5 22.5362 25.8645 22.5362 30C22.5362 34.1355 25.9166 37.5 30.0722 37.5C32.6929 37.5 35.1414 36.1277 36.5076 33.906L42.9759 37.7548C40.2547 42.2314 35.3376 45 30.0722 45Z" fill="white"/>
<path fill-rule="evenodd" clip-rule="evenodd" d="M46.8752 24.375V26.2451H43.1248V24.375H41.2502V26.2451H39.375V28.125H41.2502V31.8653H39.375V33.75H41.2502V35.625H43.1248L43.125 33.75H46.8752V35.625H48.7498V33.75H50.625V31.875H48.7498V28.125H50.625V26.2451H48.7498V24.375H46.8752ZM46.8752 31.875V28.125H43.1248V31.8653L46.8752 31.875Z" fill="white"/>
</svg>
