<svg width="60" height="60" viewBox="0 0 60 60" fill="none" xmlns="http://www.w3.org/2000/svg">
<path d="M23.2516 44.0587C23.2516 44.0587 21.2872 45.2009 24.6498 45.589C28.7245 46.0531 30.8089 45.987 35.2997 45.1369C35.2997 45.1369 36.4799 45.877 38.1302 46.5191C28.0624 50.8339 15.3442 46.2691 23.2516 44.0587ZM22.0214 38.4277C22.0214 38.4277 19.817 40.06 23.1836 40.4081C27.5363 40.8561 30.9749 40.8941 36.924 39.7479C36.924 39.7479 37.7461 40.5821 39.0404 41.0382C26.8682 44.5968 13.3098 41.3182 22.0214 38.4277ZM32.3932 28.876C34.8736 31.7325 31.7411 34.303 31.7411 34.303C31.7411 34.303 38.0402 31.0524 35.1477 26.9797C32.4452 23.183 30.3748 21.2967 41.5908 14.7915C41.5908 14.7915 23.9857 19.1863 32.3932 28.876ZM45.7076 48.2234C45.7076 48.2234 47.1618 49.4217 44.1053 50.3478C38.2942 52.1081 19.919 52.6402 14.8141 50.4179C12.9797 49.6197 16.4204 48.5115 17.5025 48.2795C18.6308 48.0354 19.2769 48.0795 19.2769 48.0795C17.2365 46.6412 6.08652 50.902 13.6139 52.1222C34.1415 55.4508 51.0325 50.6259 45.7076 48.2234ZM24.1957 32.5947C24.1957 32.5947 14.8481 34.8151 20.8851 35.6212C23.4336 35.9633 28.5145 35.8853 33.2493 35.4892C37.118 35.1631 41.0027 34.469 41.0027 34.469C41.0027 34.469 39.6385 35.0531 38.6523 35.7272C29.1606 38.2237 10.8254 37.0614 16.1043 34.509C20.5691 32.3506 24.1957 32.5947 24.1957 32.5947ZM40.9647 41.9663C50.6144 36.9534 46.1516 32.1346 43.0391 32.7827C42.2749 32.9407 41.9349 33.0788 41.9349 33.0788C41.9349 33.0788 42.2189 32.6347 42.759 32.4426C48.9181 30.2763 53.657 38.8298 40.7707 42.2184C40.7707 42.2184 40.9207 42.0844 40.9647 41.9663ZM35.1457 4.28564C35.1457 4.28564 40.4886 9.63059 30.0768 17.8501C21.7273 24.4432 28.1724 28.2039 30.0728 32.4987C25.1999 28.1019 21.6233 24.2312 24.0217 20.6285C27.5443 15.3396 37.3021 12.7772 35.1457 4.28564ZM25.1439 55.5527C34.4056 56.1449 48.6281 55.2247 48.9641 50.8419C48.9641 50.8419 48.316 52.5042 41.3108 53.8224C33.4054 55.3107 23.6556 55.1367 17.8746 54.1825C17.8746 54.1825 19.0568 55.1627 25.1439 55.5527Z" fill="white"/>
</svg>
