<svg width="72" height="72" viewBox="0 0 72 72" fill="none" xmlns="http://www.w3.org/2000/svg">
<path d="M47.6667 23.8333C42.558 23.8333 38.4167 27.9746 38.4167 33.0833V35.9999C38.4167 41.1086 42.558 45.2499 47.6667 45.2499H50.5833C51.9178 45.2499 53 46.3319 53 47.6666V50.5833C53 51.9177 51.9178 52.9999 50.5833 52.9999H41.8333C39.9463 52.9999 38.4167 54.5299 38.4167 56.4166C38.4167 58.3033 39.9463 59.8333 41.8333 59.8333H50.5833C55.6918 59.8333 59.8333 55.6917 59.8333 50.5833V47.6666C59.8333 42.5579 55.6918 38.4166 50.5833 38.4166H47.6667C46.332 38.4166 45.25 37.3346 45.25 35.9999V33.0833C45.25 31.7486 46.332 30.6666 47.6667 30.6666H56.4167C58.3034 30.6666 59.8333 29.1369 59.8333 27.2499C59.8333 25.3629 58.3034 23.8333 56.4167 23.8333H47.6667ZM36.5 27.2499C36.5 25.363 34.9703 23.8333 33.0833 23.8333C31.1964 23.8333 29.6667 25.363 29.6667 27.2499V50.5833C29.6667 51.9177 28.5846 52.9999 27.25 52.9999H21.4167C19.5297 52.9999 18 54.5299 18 56.4166C18 58.3033 19.5297 59.8333 21.4167 59.8333H27.25C32.3587 59.8333 36.5 55.6917 36.5 50.5833V27.2499Z" stroke="#CC00FF"/>
<path d="M15.5833 0.5C7.25305 0.5 0.5 7.25305 0.5 15.5833V56.4167C0.5 64.7469 7.25305 71.5 15.5833 71.5H56.4167C64.7469 71.5 71.5 64.7469 71.5 56.4167V15.5833C71.5 7.25305 64.7469 0.5 56.4167 0.5H15.5833ZM7.33333 15.5833C7.33333 11.027 11.027 7.33333 15.5833 7.33333H56.4167C60.9729 7.33333 64.6667 11.027 64.6667 15.5833V56.4167C64.6667 60.9729 60.9729 64.6667 56.4167 64.6667H15.5833C11.027 64.6667 7.33333 60.9729 7.33333 56.4167V15.5833Z" stroke="#CC00FF"/>
</svg>
