<svg width="60" height="60" viewBox="0 0 60 60" fill="none" xmlns="http://www.w3.org/2000/svg">
<g clip-path="url(#clip0_401_4)">
<path d="M35.3287 0.117188C34.8948 0.117188 34.492 0.210161 34.1201 0.334119C34.9103 0.86095 35.3442 1.55823 35.5611 2.34848C35.5767 2.45695 35.6076 2.53443 35.6231 2.64289C35.6387 2.73586 35.6541 2.82883 35.6541 2.9218C35.7161 4.28537 35.2977 4.45581 35.0033 5.26156C34.5539 6.29973 34.6779 7.41538 35.2202 8.3141C35.2667 8.42256 35.3287 8.54652 35.4062 8.65498C34.8173 4.73472 38.0868 4.14591 38.6911 2.9218C38.7376 1.85264 37.8544 1.13986 37.1571 0.64402C36.4908 0.241149 35.8865 0.117188 35.3287 0.117188ZM40.2561 1.00041C40.1941 1.35679 40.2406 1.26382 40.2252 1.44977C40.2096 1.57372 40.2096 1.72868 40.1942 1.85264C40.1632 1.9766 40.1322 2.10056 40.0857 2.22452C40.0548 2.34848 40.0083 2.47244 39.9618 2.5964C39.8998 2.72037 39.8533 2.82883 39.7913 2.95279C39.7448 3.0148 39.7138 3.07675 39.6674 3.13873C39.6364 3.18522 39.6054 3.2317 39.5744 3.27819C39.4969 3.38666 39.4194 3.49512 39.342 3.58809C39.249 3.68106 39.1715 3.78952 39.063 3.867C39.063 3.88252 39.063 3.88252 39.063 3.88252C38.9701 3.95999 38.8771 4.05296 38.7686 4.13044C38.4432 4.37836 38.0714 4.5643 37.7305 4.79673C37.622 4.8742 37.5135 4.93619 37.4206 5.02915C37.3121 5.10663 37.2191 5.1841 37.1262 5.27707C37.0177 5.37004 36.9402 5.46302 36.8473 5.57148C36.7698 5.66446 36.6768 5.77292 36.6148 5.88139C36.5374 5.98985 36.4599 6.09832 36.3979 6.20678C36.3359 6.33074 36.2894 6.43921 36.2274 6.56317C36.181 6.68712 36.1345 6.79559 36.1035 6.91955C36.057 7.05901 36.026 7.18297 35.995 7.30693C35.9795 7.36894 35.9795 7.44639 35.9641 7.50837C35.9485 7.57037 35.9485 7.63233 35.9331 7.69431C35.9331 7.81827 35.9176 7.95773 35.9176 8.08168C35.9176 8.17466 35.9176 8.26763 35.9331 8.3606C35.9331 8.48456 35.9486 8.60852 35.9796 8.74797C35.9951 8.87193 36.0261 8.99589 36.0571 9.11986C36.1035 9.24382 36.1345 9.36778 36.181 9.49174C36.212 9.56922 36.2585 9.64669 36.2895 9.70867L32.7256 8.32961C32.1213 8.15916 31.5325 8.00421 30.9282 7.86476C30.6028 7.78728 30.2774 7.7098 29.952 7.63233C29.0223 7.44639 28.0771 7.30694 27.1319 7.21397C27.1009 7.21397 27.0854 7.19845 27.0544 7.19845C26.1247 7.10548 25.2105 7.05899 24.2808 7.05899C23.599 7.05899 22.9172 7.08996 22.2509 7.13647C21.3057 7.19847 20.3605 7.32241 19.4153 7.47736C19.1829 7.50832 18.9505 7.55484 18.718 7.60132C18.2377 7.69429 17.7728 7.80276 17.3235 7.91122C17.0911 7.97323 16.8586 8.03518 16.6262 8.09716C16.3938 8.19013 16.1769 8.2986 15.9599 8.39157C15.7895 8.46904 15.619 8.54652 15.4486 8.624C15.4176 8.63952 15.3866 8.63952 15.3711 8.65497C15.2162 8.73244 15.0767 8.79441 14.9372 8.8719C14.8908 8.88741 14.8598 8.90286 14.8288 8.91838C14.6583 8.99585 14.4879 9.08883 14.3484 9.1663C14.24 9.21279 14.1315 9.27477 14.0385 9.32126C13.992 9.35222 13.9301 9.38326 13.8991 9.39873C13.7596 9.4762 13.6202 9.55367 13.4962 9.63116C13.3567 9.70863 13.2328 9.7861 13.1243 9.86358C13.0159 9.94106 12.9074 10.003 12.8144 10.0805C12.7989 10.096 12.7834 10.096 12.7679 10.1115C12.675 10.1735 12.5665 10.2509 12.4735 10.3284C12.4735 10.3284 12.458 10.3439 12.4426 10.3594C12.3651 10.4214 12.2876 10.4833 12.2101 10.5453C12.1792 10.5608 12.1481 10.5918 12.1172 10.6073C12.0397 10.6693 11.9622 10.7468 11.8847 10.8088C11.8692 10.8397 11.8383 10.8552 11.8227 10.8708C11.7298 10.9637 11.6368 11.0412 11.5438 11.1342C11.5283 11.1342 11.5283 11.1497 11.5129 11.1651C11.4199 11.2426 11.3269 11.3356 11.2339 11.4286C11.2184 11.4441 11.2184 11.4595 11.203 11.4595C11.1255 11.537 11.048 11.6145 10.9705 11.7074C10.9396 11.7384 10.8931 11.7695 10.8621 11.8004C10.7846 11.8934 10.6916 11.9864 10.5987 12.0793C10.5831 12.1103 10.5522 12.1258 10.5367 12.1568C10.4127 12.2808 10.3042 12.4047 10.1803 12.5287C10.1648 12.5442 10.1493 12.5597 10.1338 12.5752C9.88586 12.8386 9.62245 13.102 9.34354 13.3344C9.06463 13.5824 8.77022 13.8148 8.47581 14.0162C8.16591 14.2332 7.87151 14.4191 7.54611 14.605C7.23621 14.7755 6.91081 14.9304 6.56992 15.0699C6.24452 15.2093 5.90363 15.3333 5.56274 15.4418C4.91194 15.5812 4.24565 15.8446 3.67233 15.8911C3.54838 15.8911 3.40892 15.9221 3.28496 15.9376C3.1455 15.9686 3.02154 15.9996 2.89758 16.0306C2.77362 16.0771 2.64966 16.1235 2.5257 16.17C2.40174 16.2165 2.27778 16.2785 2.15382 16.3405C2.04535 16.418 1.92139 16.4799 1.81292 16.5574C1.70446 16.6349 1.59599 16.7279 1.50302 16.8208C1.39456 16.8983 1.28609 17.0068 1.19312 17.0997C1.10015 17.2082 1.00718 17.3012 0.929704 17.4096C0.852231 17.5336 0.759259 17.6421 0.697276 17.766C0.619802 17.8745 0.542329 17.9985 0.480346 18.1224C0.41834 18.2619 0.356386 18.3858 0.309901 18.5253C0.263415 18.6492 0.21693 18.7887 0.170444 18.9282C0.139478 19.0521 0.108439 19.1761 0.0929705 19.3C0.0929705 19.3156 0.0774515 19.331 0.0774515 19.3465C0.0464853 19.486 0.0464853 19.6719 0.0309658 19.7649C0.0154468 19.8734 0 19.9663 0 20.0748C0 20.1368 0 20.2143 0.0155189 20.2762C0.0310379 20.3847 0.0464846 20.4777 0.077524 20.5707C0.10849 20.6636 0.139529 20.7566 0.185986 20.8496C0.185986 20.8651 0.185986 20.8651 0.185986 20.8651C0.232471 20.958 0.294454 21.051 0.35643 21.144C0.418436 21.237 0.480397 21.3299 0.55787 21.4229C0.635344 21.5004 0.728315 21.5933 0.821286 21.6708C0.914258 21.7638 1.00723 21.8413 1.11569 21.9187C1.48758 22.2441 1.58055 22.3526 2.06089 22.6005C2.13837 22.647 2.21585 22.678 2.30882 22.7245C2.32434 22.7245 2.33979 22.74 2.3553 22.74C2.3553 22.771 2.3553 22.7865 2.37083 22.8175C2.38635 22.9414 2.41731 23.0654 2.4483 23.1894C2.47927 23.3288 2.52578 23.4528 2.57227 23.5612C2.61875 23.6542 2.64974 23.7472 2.69623 23.8402C2.71174 23.8711 2.72719 23.9022 2.74271 23.9176C2.80472 24.0416 2.86667 24.1501 2.92865 24.2585C3.00613 24.367 3.0836 24.4755 3.16107 24.5839C3.23855 24.6769 3.33152 24.7854 3.42449 24.8783C3.51746 24.9713 3.61043 25.0488 3.7189 25.1417C3.7189 25.1417 3.73442 25.1573 3.74987 25.1573C3.84284 25.2348 3.93581 25.3122 4.02878 25.3742C4.13724 25.4517 4.24571 25.5137 4.36967 25.5756C4.47814 25.6377 4.6021 25.6996 4.72606 25.7461C4.81903 25.7926 4.92749 25.8236 5.03596 25.8546C5.05148 25.8701 5.06693 25.8701 5.09797 25.8855C5.15997 25.9011 5.23741 25.9165 5.2994 25.932C5.25291 26.7687 5.23739 27.559 5.3614 27.8379C5.50085 28.1478 6.18264 27.2026 6.86443 26.118C6.77146 27.1871 6.70947 28.4422 6.86443 28.8141C7.03487 29.2015 7.96458 27.9929 8.77032 26.6603C19.7563 24.1191 29.7817 31.7117 30.8353 42.4343C30.6339 40.7608 28.573 39.8311 27.6279 40.0635C27.163 41.2102 26.3727 42.6822 25.1022 43.5964C25.2106 42.5737 25.1642 41.5201 24.9472 40.4974C24.6063 41.9229 23.94 43.2555 23.0258 44.4022C21.5538 44.5106 20.0817 43.7978 19.307 42.7287C19.245 42.6822 19.2295 42.5892 19.183 42.5273C19.1365 42.4188 19.09 42.3103 19.0591 42.2019C19.0126 42.0934 18.9816 41.9849 18.9661 41.8765C18.9506 41.768 18.9506 41.6595 18.9506 41.5356C18.9506 41.4581 18.9506 41.3806 18.9506 41.3031C18.9661 41.1947 18.9971 41.0862 19.028 40.9777C19.059 40.8693 19.09 40.7608 19.1365 40.6523C19.1985 40.5439 19.245 40.4354 19.3225 40.327C19.5859 39.5832 19.5859 38.9789 19.1055 38.6225C19.0126 38.5605 18.9196 38.514 18.8111 38.4675C18.7491 38.452 18.6717 38.421 18.6097 38.4055C18.5632 38.39 18.5322 38.3746 18.4857 38.359C18.3772 38.3281 18.2688 38.297 18.1603 38.2816C18.0518 38.2506 17.9434 38.2351 17.8349 38.2351C17.7265 38.2195 17.6025 38.2041 17.494 38.2041C17.4166 38.2041 17.3391 38.2196 17.2616 38.2196C17.1376 38.2196 17.0292 38.2352 16.9207 38.2661C16.8122 38.2817 16.7038 38.2971 16.5953 38.3281C16.4868 38.3591 16.3784 38.3901 16.2699 38.4366C16.1615 38.4831 16.0685 38.5296 15.96 38.576C15.867 38.6225 15.7741 38.6845 15.6656 38.731C12.0552 41.0863 14.2091 46.6025 16.6728 48.1985C15.7431 48.3689 14.7979 48.5704 14.5345 48.7718C14.5189 48.7873 14.5035 48.8028 14.5035 48.8028C15.1698 49.2057 15.8671 49.5465 16.5953 49.8409C17.587 50.1663 18.6407 50.4608 19.1055 50.5847V50.6002C20.3916 50.8636 21.6932 50.9566 23.0103 50.8791C29.8746 50.3988 35.4994 45.1769 36.522 38.2971C36.553 38.4366 36.584 38.5605 36.615 38.7C36.6615 38.9789 36.7235 39.2733 36.7545 39.5677C36.7545 39.5677 36.7545 39.5677 36.7545 39.5833C36.7854 39.7227 36.8009 39.8622 36.8165 39.9861C36.8165 40.0171 36.8165 40.0326 36.8165 40.0481C36.832 40.1876 36.8474 40.3271 36.8474 40.451C36.8629 40.6215 36.8784 40.7919 36.8784 40.9624C36.8784 41.0398 36.8784 41.1173 36.8784 41.2103C36.8784 41.2878 36.8939 41.3807 36.8939 41.4582C36.8939 41.5512 36.8784 41.6441 36.8784 41.7371C36.8784 41.8146 36.8784 41.8921 36.8784 41.954C36.8784 42.0625 36.8629 42.1555 36.8629 42.2639C36.8629 42.3259 36.8629 42.3879 36.8473 42.4654C36.8473 42.5738 36.8318 42.6823 36.8318 42.8063C36.8163 42.8527 36.8163 42.8992 36.8163 42.9457C36.8008 43.0697 36.7853 43.1782 36.7698 43.3021C36.7698 43.3486 36.7698 43.3951 36.7543 43.4416C36.7387 43.5965 36.7078 43.736 36.6923 43.8909V43.9065V43.922C36.6613 44.0614 36.6303 44.2164 36.5993 44.3558C36.5993 44.3713 36.5993 44.3868 36.5993 44.4023C36.5683 44.5418 36.5373 44.6812 36.5063 44.8207C36.5063 44.8362 36.4908 44.8672 36.4908 44.8827C36.4599 45.0221 36.4288 45.1616 36.3824 45.3011C36.3824 45.3166 36.3824 45.332 36.3824 45.3475C36.3359 45.5025 36.2894 45.6419 36.2584 45.7814C36.2429 45.7969 36.2429 45.8124 36.2429 45.8124C36.1964 45.9673 36.1499 46.1223 36.1034 46.2772C36.0414 46.4322 35.995 46.5716 35.933 46.7266C35.871 46.8815 35.8245 47.0365 35.7625 47.1759C35.7005 47.3309 35.6386 47.4704 35.5766 47.6253H35.5611C35.4991 47.7648 35.4371 47.9197 35.3596 48.0592C35.3441 48.1056 35.3287 48.1366 35.3131 48.1676C35.2976 48.1832 35.2976 48.1986 35.2822 48.2141C34.275 50.244 32.7875 52.0259 30.9281 53.4205C30.8041 53.4979 30.6801 53.5909 30.5562 53.6839C30.5252 53.7148 30.4787 53.7304 30.4477 53.7613C30.3392 53.8388 30.2308 53.9163 30.1068 53.9938L30.1533 54.0868H30.1688C30.3857 54.0558 30.6027 54.0247 30.8196 53.9938H30.8351C31.238 53.9318 31.6409 53.8543 32.0437 53.7769C32.1522 53.7613 32.2762 53.7304 32.3846 53.6994C32.4621 53.6838 32.5241 53.6684 32.6016 53.6529C32.71 53.6373 32.8185 53.6064 32.927 53.5909C33.0199 53.5599 33.1129 53.5444 33.2059 53.5134C34.7554 53.1415 36.2584 52.6302 37.6994 52.0259C35.2357 55.3883 31.9353 58.1 28.077 59.8819C29.8589 59.7579 31.6409 59.4635 33.3608 58.9677C39.6053 57.1238 44.8582 52.9246 48.0037 47.2689C47.3684 50.8483 45.9428 54.2572 43.8355 57.2322C45.3385 56.2405 46.7176 55.0939 47.9727 53.7923C51.4436 50.1665 53.7214 45.5644 54.4961 40.6215C55.023 43.0697 55.1779 45.5954 54.9455 48.0901C66.1329 32.4866 55.8752 16.3097 51.5831 12.0485C51.5675 12.0176 51.5521 12.0021 51.5521 11.9711C51.5365 11.9866 51.5365 11.9866 51.5365 12.002C51.5365 11.9865 51.5365 11.9865 51.521 11.9711C51.521 12.157 51.5055 12.3429 51.4901 12.5289C51.4436 12.8853 51.3971 13.2262 51.3351 13.5671C51.2576 13.908 51.1647 14.2488 51.0717 14.5897C50.9632 14.9151 50.8393 15.256 50.6998 15.5814C50.5604 15.8913 50.4054 16.2167 50.235 16.5266C50.0645 16.821 49.8786 17.1309 49.6771 17.4098C49.4757 17.7043 49.2588 17.9832 49.0418 18.2466C48.8094 18.5255 48.5615 18.7734 48.3136 19.0213C48.1586 19.1608 48.0192 19.2847 47.8642 19.4087C47.7402 19.5172 47.6318 19.6101 47.5078 19.7186C47.2289 19.9355 46.95 20.137 46.6401 20.3229C46.3457 20.5089 46.0358 20.6948 45.7259 20.8498C45.4005 21.0047 45.0751 21.1442 44.7497 21.2836C44.4243 21.4076 44.0834 21.516 43.7425 21.609C43.4016 21.702 43.0452 21.7795 42.7043 21.8414C42.348 21.9034 41.9916 21.9344 41.6507 21.9654C41.4028 21.9809 41.1548 21.9964 40.9069 21.9964C40.5505 21.9964 40.1941 21.9654 39.8533 21.9344C39.4969 21.9034 39.1405 21.8569 38.7996 21.7794C38.4432 21.7174 38.1023 21.6245 37.7614 21.516H37.7459C38.0868 21.485 38.4277 21.454 38.7686 21.392C39.125 21.33 39.4659 21.2526 39.8067 21.1596C40.1476 21.0666 40.4885 20.9582 40.8139 20.8342C41.1548 20.7102 41.4802 20.5553 41.7901 20.4003C42.1155 20.2454 42.4099 20.0749 42.7198 19.889C43.0142 19.6876 43.3086 19.4861 43.5875 19.2692C43.8665 19.0523 44.1299 18.8198 44.3778 18.5719C44.6412 18.3395 44.8736 18.0761 45.1061 17.8127C45.3385 17.5338 45.5554 17.2548 45.7569 16.9759C45.7878 16.9294 45.8189 16.8675 45.8498 16.821C46.0048 16.5731 46.1597 16.3251 46.2992 16.0772C46.4696 15.7673 46.6246 15.4574 46.764 15.132C46.9035 14.8066 47.0275 14.4812 47.1359 14.1403C47.2444 13.8149 47.3219 13.474 47.3993 13.1332C47.4614 12.7768 47.5233 12.4359 47.5543 12.095C47.5853 11.7386 47.6163 11.3822 47.6163 11.0413C47.6163 10.7934 47.6008 10.5455 47.5853 10.2976C47.5544 9.94116 47.5079 9.60027 47.4614 9.25938C47.3994 8.90299 47.3219 8.5621 47.2289 8.2212C47.1205 7.89581 47.012 7.55492 46.8881 7.22952C46.7641 6.90412 46.6091 6.57872 46.4542 6.26882C46.2837 5.95892 46.1133 5.64902 45.9274 5.35462C45.7259 5.06021 45.5245 4.7813 45.3075 4.50238C45.0751 4.23897 44.8427 3.97555 44.5948 3.71214C44.4708 3.58818 44.3314 3.44872 44.1919 3.32476C43.4946 2.78243 42.7664 2.27109 42.0381 1.80624C41.9296 1.74424 41.8367 1.69777 41.7282 1.65128C41.2168 1.32589 40.7365 1.15535 40.2561 1.00041Z" fill="#E0234E"/>
</g>
<defs>
<clipPath id="clip0_401_4">
<rect width="60" height="60" fill="white"/>
</clipPath>
</defs>
</svg>
