<svg width="72" height="71" viewBox="0 0 72 71" fill="none" xmlns="http://www.w3.org/2000/svg">
<path d="M35.6202 71C35.3829 71 35.1614 70.8967 34.9556 70.7159L32.8513 68.6746C32.5348 68.3902 32.693 68.287 32.788 68.2353C33.2152 68.0028 33.2943 67.9509 33.7373 67.5378C33.7848 67.4859 33.8482 67.5118 33.8956 67.5635L35.5095 69.1397C35.5728 69.1913 35.6519 69.1913 35.6993 69.1397L42.0126 63.1707C42.0759 63.119 42.1076 63.0155 42.1076 62.8865V50.9744C42.1076 50.845 42.0759 50.7419 42.0126 50.69L35.6993 44.747C35.636 44.6951 35.5569 44.6951 35.5095 44.747L29.1962 50.69C29.133 50.7417 29.1012 50.8709 29.1012 50.9742V62.8863C29.1012 62.9898 29.133 63.1188 29.1962 63.1707L30.9209 64.7985C31.8545 65.5736 32.4399 64.6693 32.4399 63.7649V52.0078C32.4399 51.8529 32.519 51.6977 32.6298 51.6977H33.4367C33.5317 51.6977 33.6266 51.8269 33.6266 52.0078V63.7649C33.6266 65.8062 32.9461 66.9949 31.7595 66.9949C31.3956 66.9949 31.1108 66.9949 30.3038 66.3488L28.6424 64.7985C28.231 64.4111 27.9779 63.6874 27.9779 62.9122V51.0001C27.9779 50.225 28.231 49.5013 28.6424 49.1138L34.9556 43.1448C35.3513 42.7831 35.8893 42.7831 36.2848 43.1448L42.598 49.1138C43.0094 49.5013 43.2627 50.225 43.2627 51.0001V62.9122C43.2627 63.6874 43.0094 64.4111 42.598 64.7985L36.2848 70.7675C36.0791 70.9227 35.8418 71 35.6203 71H35.6202ZM37.5664 62.8089C34.7975 62.8089 34.2278 60.7417 34.2278 58.9847C34.2278 58.8295 34.307 58.6746 34.4177 58.6746H35.2405C35.3354 58.6746 35.4145 58.7779 35.4145 58.933C35.5412 60.3024 35.9051 60.9743 37.5823 60.9743C38.9113 60.9743 39.4811 60.4833 39.4811 59.3205C39.4811 58.6486 39.3227 58.1579 37.25 57.8219C35.5253 57.5375 34.4494 56.9175 34.4494 54.6695C34.4494 52.5763 35.5254 51.336 37.3291 51.336C39.3544 51.336 40.3513 52.4731 40.4779 54.9534C40.4779 55.0312 40.462 55.1086 40.4304 55.1861C40.3987 55.2378 40.3513 55.2894 40.3038 55.2894H39.481C39.4019 55.2894 39.3227 55.1861 39.307 55.0569C39.1171 53.6359 38.6266 53.1706 37.3291 53.1706C35.8734 53.1706 35.6993 53.9976 35.6993 54.6176C35.6993 55.367 35.9051 55.5995 37.867 56.0129C39.8133 56.4265 40.7311 57.0208 40.7311 59.2429C40.7152 61.5169 39.576 62.8089 37.5664 62.8089Z" fill="#CC00FF"/>
<path d="M9.2526 16.6036L9.25383 16.6048L15.9608 22.9078C16.3486 23.2657 16.5315 23.8594 16.5317 24.4106L9.2526 16.6036ZM9.2526 16.6036C9.05848 16.4224 8.84055 16.3377 8.64794 16.2982L8.59825 16.288H8.54752H8.48413C8.16344 16.288 7.91705 16.4746 7.77883 16.6038L7.77783 16.6048L1.07081 22.9079C0.682728 23.2659 0.5 23.8597 0.5 24.411L0.5 24.4115L0.515881 41.3618H1.01588L0.515881 41.3623L0.515881 41.3621C0.515911 41.532 0.544371 41.705 0.600139 41.8619C0.650939 42.0048 0.737817 42.1713 0.883217 42.299C1.01732 42.428 1.20361 42.5273 1.42524 42.5273C1.64987 42.5273 1.84007 42.4251 1.97403 42.2812L5.94273 38.5776C5.94319 38.5772 5.94365 38.5768 5.94411 38.5764C6.3326 38.2185 6.51589 37.6243 6.51589 37.0725V29.1396C6.51589 28.7619 6.64862 28.4783 6.76543 28.3711L6.76547 28.3711L6.77097 28.3659L8.46392 26.7638L8.47076 26.7573L8.47736 26.7506C8.49765 26.7299 8.51035 26.724 8.51392 26.7225C8.51756 26.721 8.52232 26.7195 8.53164 26.7195C8.53725 26.7195 8.54058 26.7201 8.54214 26.7204C8.54308 26.7212 8.54503 26.7229 8.54785 26.7262L8.56476 26.7459L8.58361 26.7638L10.2766 28.3659L10.2765 28.366L10.2821 28.3711C10.3989 28.4783 10.5316 28.7617 10.5316 29.1396V37.0725C10.5316 37.6243 10.7149 38.2185 11.1034 38.5764C11.1039 38.5768 11.1043 38.5772 11.1048 38.5776L15.0827 42.2898C15.2188 42.4247 15.409 42.5273 15.6361 42.5273C15.8579 42.5273 16.0445 42.4294 16.18 42.2991C16.3255 42.1715 16.4124 42.0049 16.4632 41.862C16.5191 41.705 16.5475 41.5318 16.5475 41.3618V41.3613L16.5317 24.411L9.2526 16.6036ZM47.5416 0.712139L47.5334 0.719825L47.5255 0.727873C47.2906 0.967872 47.1772 1.30912 47.1772 1.64596V18.1008L45.9152 16.9149L45.9133 16.913C45.7162 16.7297 45.4601 16.6048 45.1693 16.6048C44.8785 16.6048 44.6224 16.7297 44.4253 16.913L44.4226 16.9156L37.7187 23.2417C37.7177 23.2426 37.7168 23.2434 37.7159 23.2443C37.3284 23.6023 37.1455 24.1957 37.1455 24.7468V37.3824C37.1455 37.9335 37.3283 38.5272 37.7159 38.8852C37.7168 38.886 37.7178 38.8869 37.7187 38.8877L44.4226 45.2139L44.4253 45.2164C44.6224 45.3997 44.8785 45.5247 45.1693 45.5247C45.4601 45.5247 45.7161 45.3997 45.9133 45.2164L45.916 45.2139L52.6199 38.8877C52.6208 38.8869 52.6217 38.886 52.6227 38.8852C53.0102 38.5272 53.1931 37.9337 53.1931 37.3824V5.88383C53.1931 5.30965 53.0116 4.71292 52.6201 4.35294L52.6182 4.35124L48.6151 0.70786L48.472 0.577636H48.4155C48.1375 0.447728 47.7976 0.473206 47.5416 0.712139ZM47.1614 28.9022V33.2013L45.1693 35.086L43.1772 33.2013V28.9022L45.1693 27.0173L47.1614 28.9022ZM70.9542 23.0719L70.9543 23.0718L70.9481 23.066L64.2867 16.7611L64.2834 16.7581C64.0863 16.5748 63.8303 16.4499 63.5396 16.4499C63.2488 16.4499 62.9928 16.5748 62.7956 16.7581L62.7929 16.7606L56.0891 23.0865C56.0882 23.0873 56.0873 23.0882 56.0864 23.089C55.6985 23.4471 55.5159 24.0407 55.5159 24.5919V37.2275C55.5159 37.779 55.6989 38.3733 56.0876 38.7312C56.0881 38.7317 56.0886 38.7322 56.0891 38.7327L62.7479 44.9318L62.7505 44.9342C62.9499 45.1173 63.2044 45.2402 63.4901 45.2402C63.7746 45.2402 64.027 45.1183 64.2221 44.9304L68.2434 41.2737C68.3945 41.1451 68.484 40.9746 68.5359 40.8286C68.5918 40.6716 68.6202 40.4984 68.6202 40.3284C68.6202 40.1585 68.5918 39.9853 68.5359 39.8282C68.4844 39.6835 68.3959 39.5146 68.2471 39.3864L61.5275 33.0752C61.5081 33.0522 61.4684 32.9815 61.4684 32.8608V28.9073C61.4684 28.8448 61.4795 28.7855 61.4949 28.7422C61.5002 28.7272 61.5051 28.7168 61.5084 28.7107L61.5151 28.7043L63.4842 26.8669L65.4409 28.693C65.4607 28.7166 65.5 28.7871 65.5 28.9073V32.0081C65.5 32.1781 65.5284 32.3513 65.5843 32.5082C65.635 32.651 65.7219 32.8176 65.8675 32.9452C66.003 33.0755 66.1895 33.1733 66.4113 33.1733C66.6396 33.1733 66.8306 33.0697 66.9669 32.9337L70.9425 29.1462C70.9437 29.1451 70.945 29.1439 70.9462 29.1428C71.3411 28.7774 71.5 28.1765 71.5 27.6408V24.566C71.5 24.0129 71.3164 23.4266 70.9542 23.0719Z" stroke="#CC00FF"/>
<path d="M63.4367 28.1835C63.4602 28.1582 63.4877 28.1448 63.5158 28.1448C63.5439 28.1448 63.5714 28.1582 63.5949 28.1835L64.8766 29.3979C64.9241 29.4494 64.9557 29.5269 64.9557 29.6304V32.0594C64.9557 32.1627 64.9241 32.2402 64.8766 32.2919L63.5949 33.5063C63.5714 33.5316 63.5439 33.545 63.5158 33.545C63.4877 33.545 63.4602 33.5316 63.4367 33.5063L62.155 32.2919C62.1075 32.2402 62.0759 32.1627 62.0759 32.0594V29.6304C62.0759 29.5269 62.1075 29.4494 62.155 29.3979L63.4367 28.1835Z" fill="#CC00FF"/>
<path d="M27.25 17.1761C27.127 17.0618 26.988 17.0017 26.8465 17.0017C26.7051 17.0017 26.566 17.0618 26.4431 17.1761L19.7817 23.4548C19.5285 23.6873 19.3861 24.1266 19.3861 24.5916V37.1758C19.3861 37.6408 19.5443 38.0801 19.7817 38.3126L26.4431 44.5917C26.566 44.706 26.7051 44.7661 26.8465 44.7661C26.988 44.7661 27.127 44.706 27.25 44.5917L33.9115 38.3126C34.1646 38.0801 34.3071 37.6408 34.3071 37.1758V24.5919C34.3071 24.1268 34.1487 23.6875 33.9115 23.455L27.25 17.1761Z" fill="white"/>
<path d="M27.25 17.1761C27.127 17.0618 26.988 17.0017 26.8465 17.0017C26.7051 17.0017 26.566 17.0618 26.4431 17.1761L19.7817 23.4548C19.5285 23.6873 19.3861 24.1266 19.3861 24.5916V37.1758C19.3861 37.6408 19.5443 38.0801 19.7817 38.3126L26.4431 44.5917C26.566 44.706 26.7051 44.7661 26.8465 44.7661C26.988 44.7661 27.127 44.706 27.25 44.5917L33.9115 38.3126C34.1646 38.0801 34.3071 37.6408 34.3071 37.1758V24.5919C34.3071 24.1268 34.1487 23.6875 33.9115 23.455L27.25 17.1761Z" fill="url(#paint0_linear_85_57)"/>
<path d="M33.9272 23.4547L27.2342 17.1759C27.1685 17.1216 27.0995 17.0783 27.0285 17.0466L19.5285 38.0287C19.5906 38.1526 19.6656 38.2575 19.7501 38.3388L26.4431 44.6179C26.633 44.7988 26.8545 44.8504 27.0601 44.7469L34.1013 23.7134C34.0538 23.6101 33.9905 23.5323 33.9272 23.455V23.4547Z" fill="url(#paint1_linear_85_57)"/>
<path fill-rule="evenodd" clip-rule="evenodd" d="M26.2216 14.876L26.1267 14.9536H26.2532L26.2216 14.876Z" fill="url(#paint2_linear_85_57)"/>
<path fill-rule="evenodd" clip-rule="evenodd" d="M33.9431 38.3128C34.133 38.1319 34.2753 37.8218 34.3387 37.486L26.9967 17.0208C26.8068 16.9692 26.6011 16.9949 26.4272 17.1758L19.7816 23.4292L26.9492 44.7727C27.0534 44.7449 27.1547 44.6927 27.2498 44.6178L33.9429 38.313L33.9431 38.3128Z" fill="url(#paint3_linear_85_57)"/>
<path fill-rule="evenodd" clip-rule="evenodd" d="M34.5604 38.106L34.5127 37.9768V38.1577L34.5603 38.106H34.5604Z" fill="url(#paint4_linear_85_57)"/>
<path fill-rule="evenodd" clip-rule="evenodd" d="M33.9431 38.3127L27.2659 44.5918C27.1716 44.6703 27.07 44.7226 26.9652 44.7467L27.0919 45.1344L34.4969 38.132V37.9769L34.307 37.46C34.2753 37.8217 34.133 38.1318 33.9431 38.3127Z" fill="url(#paint5_linear_85_57)"/>
<path fill-rule="evenodd" clip-rule="evenodd" d="M33.9431 38.3127L27.2659 44.5918C27.1716 44.6703 27.07 44.7226 26.9652 44.7467L27.0919 45.1344L34.4969 38.132V37.9769L34.307 37.46C34.2753 37.8217 34.133 38.1318 33.9431 38.3127Z" fill="url(#paint6_linear_85_57)"/>
<defs>
<linearGradient id="paint0_linear_85_57" x1="29.5604" y1="21.8569" x2="16.408" y2="34.5118" gradientUnits="userSpaceOnUse">
<stop stop-color="#CC00FF"/>
<stop offset="0.3288" stop-color="#CC00FF"/>
<stop offset="0.6352" stop-color="#CC00FF"/>
<stop offset="0.9319" stop-color="#CC00FF"/>
<stop offset="1" stop-color="#CC00FF"/>
</linearGradient>
<linearGradient id="paint1_linear_85_57" x1="25.8352" y1="32.3577" x2="47.1589" y2="25.2636" gradientUnits="userSpaceOnUse">
<stop offset="0.1376" stop-color="#CC00FF"/>
<stop offset="0.4032" stop-color="#A500CE"/>
<stop offset="0.7136" stop-color="#500064"/>
<stop offset="0.9081" stop-color="#3F004F"/>
</linearGradient>
<linearGradient id="paint2_linear_85_57" x1="20.5433" y1="14.8864" x2="32.8665" y2="14.8864" gradientUnits="userSpaceOnUse">
<stop offset="0.09192" stop-color="#CC00FF"/>
<stop offset="0.2864" stop-color="#CC00FF"/>
<stop offset="0.5968" stop-color="#CC00FF"/>
<stop offset="0.8624" stop-color="#CC00FF"/>
</linearGradient>
<linearGradient id="paint3_linear_85_57" x1="19.1427" y1="30.8842" x2="34.5569" y2="30.8842" gradientUnits="userSpaceOnUse">
<stop offset="0.09192" stop-color="#CC00FF"/>
<stop offset="0.2864" stop-color="#CC00FF"/>
<stop offset="0.5968" stop-color="#CC00FF"/>
<stop offset="0.8624" stop-color="#CC00FF"/>
</linearGradient>
<linearGradient id="paint4_linear_85_57" x1="29.879" y1="38.0423" x2="34.5261" y2="38.0423" gradientUnits="userSpaceOnUse">
<stop offset="0.09192" stop-color="#6CC04A"/>
<stop offset="0.2864" stop-color="#66B848"/>
<stop offset="0.5968" stop-color="#54A044"/>
<stop offset="0.8624" stop-color="#41873F"/>
</linearGradient>
<linearGradient id="paint5_linear_85_57" x1="19.1428" y1="41.3183" x2="34.5569" y2="41.3183" gradientUnits="userSpaceOnUse">
<stop offset="0.09192" stop-color="#6CC04A"/>
<stop offset="0.2864" stop-color="#66B848"/>
<stop offset="0.5968" stop-color="#54A044"/>
<stop offset="0.8624" stop-color="#41873F"/>
</linearGradient>
<linearGradient id="paint6_linear_85_57" x1="36.8025" y1="21.2616" x2="26.9644" y2="52.8286" gradientUnits="userSpaceOnUse">
<stop stop-color="#CC00FF"/>
<stop offset="0.3288" stop-color="#CC00FF"/>
<stop offset="0.6352" stop-color="#CC00FF"/>
<stop offset="0.755208" stop-color="#CC00FF"/>
<stop offset="1" stop-color="#CC00FF"/>
</linearGradient>
</defs>
</svg>
