<svg width="61" height="61" viewBox="0 0 61 61" fill="none" xmlns="http://www.w3.org/2000/svg">
<path d="M35.3183 30.4766C35.3183 27.7871 33.0696 25.6064 30.2953 25.6064C27.5215 25.6064 25.2724 27.7871 25.2724 30.4766C25.2724 33.1664 27.5215 35.3469 30.2953 35.3469C33.0696 35.3469 35.3183 33.1664 35.3183 30.4766Z" fill="#53C1DE"/>
<path fill-rule="evenodd" clip-rule="evenodd" d="M46.6086 21.4349C47.6693 17.2557 49.0026 9.50575 44.3023 6.87828C39.624 4.26226 33.5361 9.27503 30.3214 12.2839C27.1161 9.30501 20.8572 4.31367 16.1609 6.94949C11.4844 9.57428 12.9265 17.1957 14.0108 21.4012C9.64843 22.6025 2.17035 25.19 2.17035 30.4765C2.17035 35.7481 9.64065 38.5632 13.9772 39.7634C12.8889 43.9921 11.519 51.5047 16.2015 54.1237C20.9153 56.759 27.1547 51.8864 30.3992 48.8446C33.6345 51.8712 39.664 56.7757 44.3432 54.1494C49.0371 51.5148 47.8146 43.8687 46.7303 39.6389C50.934 38.4361 58.4203 35.6823 58.4203 30.4765C58.4203 25.2408 50.9022 22.6323 46.6086 21.4349ZM46.0757 37.3973C45.3638 35.2122 44.4028 32.8885 43.2274 30.4882C44.3494 28.1444 45.273 25.8507 45.9651 23.6797C49.1127 24.5645 56.0175 26.5867 56.0175 30.4765C56.0175 34.403 49.3915 36.4443 46.0757 37.3973ZM43.1391 52.133C39.6478 54.0923 34.4618 49.4022 32.0725 47.1734C33.6576 45.4925 35.2416 43.5384 36.7875 41.3684C39.507 41.1346 42.076 40.7521 44.4058 40.2299C45.169 43.2219 46.6457 50.1648 43.1391 52.133ZM17.4021 52.105C13.9105 50.153 15.5064 43.4491 16.307 40.3342C18.611 40.8284 21.1615 41.1839 23.8873 41.3982C25.4434 43.5215 27.0733 45.4732 28.7158 47.1824C26.6865 49.0857 20.91 54.0661 17.4021 52.105ZM4.57314 30.4765C4.57314 26.5355 11.4367 24.5279 14.656 23.6454C15.3601 25.8652 16.2834 28.1862 17.3977 30.5334C16.2689 32.9154 15.3324 35.2732 14.6219 37.5192C11.5523 36.6672 4.57314 34.42 4.57314 30.4765ZM17.3648 8.96586C20.8707 6.99828 26.3104 11.7902 28.6377 13.947C27.0036 15.6484 25.3887 17.5853 23.8459 19.6964C21.2005 19.9342 18.668 20.3159 16.3399 20.8274C15.4664 17.4356 13.8627 10.9313 17.3648 8.96586ZM38.5065 22.2288C40.3013 22.4484 42.0208 22.7405 43.6354 23.0979C43.1507 24.6042 42.5466 26.1794 41.835 27.7942C40.8036 25.8967 39.6964 24.0372 38.5065 22.2288ZM30.3222 15.6119C31.4305 16.776 32.5405 18.076 33.6325 19.4864C31.4175 19.3848 29.199 19.3844 26.9841 19.4849C28.077 18.0876 29.1966 16.7896 30.3222 15.6119ZM18.7763 27.7925C18.0765 26.1834 17.4778 24.6012 16.9889 23.0733C18.5938 22.7251 20.3053 22.4405 22.0885 22.2245C20.8952 24.029 19.7899 25.8877 18.7763 27.7925ZM22.1397 38.8949C20.2977 38.6956 18.5602 38.4254 16.9558 38.0868C17.4524 36.532 18.0643 34.9158 18.779 33.272C19.8066 35.1967 20.9288 37.0734 22.1397 38.8949ZM30.3887 45.5058C29.2499 44.3142 28.1138 42.9963 27.0043 41.5788C29.2318 41.6635 31.4637 41.6637 33.691 41.5674C32.5956 43.0107 31.4895 44.3305 30.3887 45.5058ZM41.8579 33.1884C42.6098 34.85 43.2435 36.4574 43.747 37.9859C42.1159 38.3468 40.3551 38.6375 38.4998 38.8533C39.6985 37.0105 40.8233 35.1222 41.8579 33.1884ZM35.4465 39.1357C32.0393 39.3717 28.6108 39.3691 25.2025 39.155C23.2658 36.412 21.5417 33.5274 20.0535 30.5326C21.5346 27.544 23.2461 24.665 25.1736 21.9264C28.5844 21.6764 32.0162 21.6757 35.427 21.9279C37.338 24.6663 39.0469 27.5379 40.5623 30.4994C39.0649 33.4865 37.3444 36.3714 35.4465 39.1357ZM43.1022 8.8966C46.609 10.8577 45.048 17.8228 44.2819 20.8516C41.9483 20.3294 39.414 19.9409 36.7609 19.6994C35.2152 17.5656 33.6137 15.6252 32.0061 13.9458C34.3632 11.7425 39.6293 6.95464 43.1022 8.8966Z" fill="#53C1DE"/>
</svg>
