<svg width="72" height="72" viewBox="0 0 72 72" fill="none" xmlns="http://www.w3.org/2000/svg">
<path d="M71.5 24.3594V23.4725L70.7412 23.9316C67.1977 26.0755 62.3265 27.7142 56.1007 28.8281C49.8746 29.9421 43.1748 30.5 36 30.5C28.8252 30.5 22.1254 29.9421 15.8993 28.8281C9.67351 27.7142 4.80229 26.0755 1.25883 23.9316L0.5 23.4725V24.3594V31C0.5 33.1167 2.33271 34.9067 5.47365 36.4488C8.66391 38.0152 12.9703 39.243 18.372 40.1455C23.7808 41.0491 29.6572 41.5 36 41.5C42.3428 41.5 48.2192 41.0491 53.628 40.1455C59.0297 39.243 63.3361 38.0152 66.5264 36.4488C69.6673 34.9067 71.5 33.1167 71.5 31V24.3594ZM71.5 54.3594V53.4725L70.7412 53.9316C67.1977 56.0755 62.3265 57.7142 56.1007 58.8281C49.8746 59.9421 43.1748 60.5 36 60.5C28.8252 60.5 22.1254 59.9421 15.8993 58.8281C9.67351 57.7142 4.80229 56.0755 1.25883 53.9316L0.5 53.4725V54.3594V61C0.5 63.1167 2.33271 64.9067 5.47365 66.4488C8.66391 68.0152 12.9703 69.243 18.372 70.1455C23.7808 71.0491 29.6572 71.5 36 71.5C42.3428 71.5 48.2192 71.0491 53.628 70.1455C59.0297 69.243 63.3361 68.0152 66.5264 66.4488C69.6673 64.9067 71.5 63.1167 71.5 61V54.3594ZM71.5 39.3594V38.4725L70.7412 38.9316C67.1977 41.0755 62.3265 42.7142 56.1007 43.8281C49.8746 44.9421 43.1748 45.5 36 45.5C28.8252 45.5 22.1254 44.9421 15.8993 43.8281C9.67351 42.7142 4.80229 41.0755 1.25883 38.9316L0.5 38.4725V39.3594V46C0.5 48.1167 2.33271 49.9067 5.47365 51.4488C8.66391 53.0152 12.9703 54.243 18.372 55.1455C23.7808 56.0491 29.6572 56.5 36 56.5C42.3428 56.5 48.2192 56.0491 53.628 55.1455C59.0297 54.243 63.3361 53.0152 66.5264 51.4488C69.6673 49.9067 71.5 48.1167 71.5 46V39.3594ZM53.628 1.85449C48.2192 0.950856 42.3428 0.5 36 0.5C29.6572 0.5 23.7808 0.950856 18.372 1.85449C12.9703 2.75696 8.66391 3.98481 5.47365 5.55118C2.33271 7.09333 0.5 8.88326 0.5 11V16C0.5 18.1167 2.33271 19.9067 5.47365 21.4488C8.66391 23.0152 12.9703 24.243 18.372 25.1455C23.7808 26.0491 29.6572 26.5 36 26.5C42.3428 26.5 48.2192 26.0491 53.628 25.1455C59.0297 24.243 63.3361 23.0152 66.5264 21.4488C69.6673 19.9067 71.5 18.1167 71.5 16V11C71.5 8.88326 69.6673 7.09333 66.5264 5.55118C63.3361 3.98481 59.0297 2.75696 53.628 1.85449Z" stroke="#CC00FF"/>
</svg>
