<svg width="72" height="72" viewBox="0 0 72 72" fill="none" xmlns="http://www.w3.org/2000/svg">
<mask id="path-1-outside-1_85_49" maskUnits="userSpaceOnUse" x="0" y="0" width="72" height="72" fill="black">
<rect fill="white" width="72" height="72"/>
<path d="M69.5417 71H2.45833C2.07156 71 1.70063 70.8464 1.42714 70.5729C1.15365 70.2994 1 69.9284 1 69.5417V2.45833C1 2.07156 1.15365 1.70063 1.42714 1.42714C1.70063 1.15365 2.07156 1 2.45833 1H69.5417C69.9284 1 70.2994 1.15365 70.5729 1.42714C70.8464 1.70063 71 2.07156 71 2.45833V69.5417C71 69.9284 70.8464 70.2994 70.5729 70.5729C70.2994 70.8464 69.9284 71 69.5417 71ZM3.91667 68.0833H68.0833V3.91667H3.91667V68.0833ZM53.9813 65.4992C52.939 65.5122 51.8973 65.442 50.8663 65.2892C47.8621 64.7496 45.0008 63.2504 43.2158 61.2729C40.4975 58.2717 41.0867 57.3092 41.3083 56.9475C41.5329 56.6063 41.7838 56.4283 42.44 56.0521L42.4488 56.0462C42.7492 55.8771 43.8692 55.2296 44.9279 54.6142L46.8587 53.4971C47.1775 53.3112 47.555 53.2535 47.9147 53.3358C48.2744 53.4182 48.5893 53.6343 48.7954 53.9404L49.2008 54.5383C49.6733 55.2558 50.7321 56.2446 51.2162 56.5013C52.9225 57.4025 55.1946 57.1779 56.09 56.3787C56.212 56.2835 56.3108 56.1619 56.379 56.0229C56.4472 55.884 56.483 55.7314 56.4838 55.5767C56.4808 54.9292 56.4517 54.8913 56.2358 54.5762C55.9208 54.1242 54.8008 53.5117 52.2458 52.4004C48.6233 50.84 46.9696 49.8104 45.4442 48.1683C44.4537 47.0507 43.7182 45.7311 43.2887 44.3008C42.9446 43.0262 42.8746 40.4333 43.1254 39.2463C43.9567 35.3467 46.9579 32.5438 51.1579 31.7475C52.5433 31.485 55.4804 31.5667 56.8688 31.9138C58.7402 32.3585 60.4411 33.3397 61.7629 34.7371C61.7921 34.7721 63.5042 36.6213 63.7346 37.5488C64.0117 38.5871 64.0642 38.7796 58.4292 42.2796C57.5921 42.8396 56.7083 42.4838 55.8421 41.1946C55.1625 40.2088 54.62 39.9987 53.7975 39.9404C53.1471 39.8908 52.625 40.0192 52.3363 40.2933C52.1292 40.4888 52.0242 40.7863 52.0271 41.18C52.0147 41.3613 52.0447 41.5431 52.1146 41.7108L52.1671 41.81C52.3858 42.265 52.9342 42.685 55.32 43.7146C60.4154 45.9079 62.6321 47.3983 64.0933 49.615C65.7821 52.1758 66.1612 56.0812 65.0179 59.1117C63.7608 62.4163 60.7275 64.63 56.475 65.3475C55.6488 65.4608 54.8151 65.5115 53.9813 65.4992ZM44.5312 58.2133C44.8229 58.6275 45.1496 59.065 45.3771 59.3158C46.745 60.8325 48.9879 61.9904 51.3796 62.4162C52.4704 62.6117 55.0021 62.6408 55.9821 62.4688C59.1817 61.9263 61.4188 60.3688 62.2938 58.0733C63.1017 55.9354 62.8304 52.9867 61.6608 51.2162C60.5583 49.5421 58.6654 48.3229 54.165 46.3862C51.54 45.2488 50.3004 44.54 49.5975 43.1808L49.5771 43.14C49.271 42.5696 49.1107 41.9324 49.1104 41.285C49.1075 39.9696 49.5333 38.9196 50.3442 38.1583C51.2454 37.3125 52.5113 36.91 54.0046 37.0208C55.6671 37.1375 56.9008 37.7938 57.9508 39.1267C58.8112 38.5725 59.6921 37.9833 60.3425 37.54C60.1237 37.2664 59.8951 37.0008 59.6571 36.7438C58.7217 35.7425 57.5076 35.0445 56.1717 34.74C55.2121 34.4979 52.6717 34.4279 51.7063 34.6058C48.6554 35.1863 46.5671 37.0967 45.9838 39.8442C45.8321 40.5675 45.8904 42.7229 46.0829 43.4433C46.3892 44.4729 46.9171 45.4208 47.6113 46.2054C48.81 47.4946 50.1692 48.3229 53.4067 49.7171C56.7958 51.19 57.9158 51.8754 58.6362 52.9079C59.2167 53.7508 59.4004 54.3662 59.4004 55.4454C59.4033 56.7288 58.8958 57.8225 58.0092 58.5721C56.1338 60.2579 52.5375 60.4913 49.86 59.0767C49.0521 58.6508 47.9233 57.6358 47.1679 56.685L46.395 57.1313L44.5312 58.2133ZM32.0596 65.1433H25.8821C25.4953 65.1433 25.1244 64.9897 24.8509 64.7162C24.5774 64.4427 24.4238 64.0718 24.4238 63.685V40.3342H17.1554C16.7686 40.3342 16.3977 40.1805 16.1242 39.907C15.8507 39.6335 15.6971 39.2626 15.6971 38.8758V36.1808C15.6971 33.2175 15.6971 32.745 16.2513 32.3192C16.2866 32.2864 16.3258 32.258 16.3679 32.2346L16.4204 32.1996L16.4233 32.2054C17.0883 31.8817 19.1067 31.8933 29.0175 31.9021L40.7454 31.9342C41.1287 31.9349 41.4962 32.0865 41.7686 32.3561C42.041 32.6258 42.1962 32.9918 42.2008 33.375L42.2533 38.8671C42.2549 39.0594 42.2183 39.2502 42.1456 39.4283C42.073 39.6064 41.9658 39.7684 41.8302 39.9048C41.6946 40.0412 41.5333 40.1494 41.3556 40.2231C41.1779 40.2968 40.9874 40.3346 40.795 40.3342H33.5179V63.685C33.5179 64.0718 33.3643 64.4427 33.0908 64.7162C32.8173 64.9897 32.4464 65.1433 32.0596 65.1433ZM27.3404 62.2267H30.6013V38.8758C30.6013 38.4891 30.7549 38.1181 31.0284 37.8446C31.3019 37.5711 31.6728 37.4175 32.0596 37.4175H39.3221L39.2987 34.845L29.0117 34.8158C25.5486 34.8028 22.0855 34.8096 18.6225 34.8363L18.6167 36.1808V37.4175H25.885C26.2718 37.4175 26.6427 37.5711 26.9162 37.8446C27.1897 38.1181 27.3433 38.4891 27.3433 38.8758V62.2267H27.3404Z"/>
</mask>
<path d="M69.5417 71H2.45833C2.07156 71 1.70063 70.8464 1.42714 70.5729C1.15365 70.2994 1 69.9284 1 69.5417V2.45833C1 2.07156 1.15365 1.70063 1.42714 1.42714C1.70063 1.15365 2.07156 1 2.45833 1H69.5417C69.9284 1 70.2994 1.15365 70.5729 1.42714C70.8464 1.70063 71 2.07156 71 2.45833V69.5417C71 69.9284 70.8464 70.2994 70.5729 70.5729C70.2994 70.8464 69.9284 71 69.5417 71ZM3.91667 68.0833H68.0833V3.91667H3.91667V68.0833ZM53.9813 65.4992C52.939 65.5122 51.8973 65.442 50.8663 65.2892C47.8621 64.7496 45.0008 63.2504 43.2158 61.2729C40.4975 58.2717 41.0867 57.3092 41.3083 56.9475C41.5329 56.6063 41.7838 56.4283 42.44 56.0521L42.4488 56.0462C42.7492 55.8771 43.8692 55.2296 44.9279 54.6142L46.8587 53.4971C47.1775 53.3112 47.555 53.2535 47.9147 53.3358C48.2744 53.4182 48.5893 53.6343 48.7954 53.9404L49.2008 54.5383C49.6733 55.2558 50.7321 56.2446 51.2162 56.5013C52.9225 57.4025 55.1946 57.1779 56.09 56.3787C56.212 56.2835 56.3108 56.1619 56.379 56.0229C56.4472 55.884 56.483 55.7314 56.4838 55.5767C56.4808 54.9292 56.4517 54.8913 56.2358 54.5762C55.9208 54.1242 54.8008 53.5117 52.2458 52.4004C48.6233 50.84 46.9696 49.8104 45.4442 48.1683C44.4537 47.0507 43.7182 45.7311 43.2887 44.3008C42.9446 43.0262 42.8746 40.4333 43.1254 39.2463C43.9567 35.3467 46.9579 32.5438 51.1579 31.7475C52.5433 31.485 55.4804 31.5667 56.8688 31.9138C58.7402 32.3585 60.4411 33.3397 61.7629 34.7371C61.7921 34.7721 63.5042 36.6213 63.7346 37.5488C64.0117 38.5871 64.0642 38.7796 58.4292 42.2796C57.5921 42.8396 56.7083 42.4838 55.8421 41.1946C55.1625 40.2088 54.62 39.9987 53.7975 39.9404C53.1471 39.8908 52.625 40.0192 52.3363 40.2933C52.1292 40.4888 52.0242 40.7863 52.0271 41.18C52.0147 41.3613 52.0447 41.5431 52.1146 41.7108L52.1671 41.81C52.3858 42.265 52.9342 42.685 55.32 43.7146C60.4154 45.9079 62.6321 47.3983 64.0933 49.615C65.7821 52.1758 66.1612 56.0812 65.0179 59.1117C63.7608 62.4163 60.7275 64.63 56.475 65.3475C55.6488 65.4608 54.8151 65.5115 53.9813 65.4992ZM44.5312 58.2133C44.8229 58.6275 45.1496 59.065 45.3771 59.3158C46.745 60.8325 48.9879 61.9904 51.3796 62.4162C52.4704 62.6117 55.0021 62.6408 55.9821 62.4688C59.1817 61.9263 61.4188 60.3688 62.2938 58.0733C63.1017 55.9354 62.8304 52.9867 61.6608 51.2162C60.5583 49.5421 58.6654 48.3229 54.165 46.3862C51.54 45.2488 50.3004 44.54 49.5975 43.1808L49.5771 43.14C49.271 42.5696 49.1107 41.9324 49.1104 41.285C49.1075 39.9696 49.5333 38.9196 50.3442 38.1583C51.2454 37.3125 52.5113 36.91 54.0046 37.0208C55.6671 37.1375 56.9008 37.7938 57.9508 39.1267C58.8112 38.5725 59.6921 37.9833 60.3425 37.54C60.1237 37.2664 59.8951 37.0008 59.6571 36.7438C58.7217 35.7425 57.5076 35.0445 56.1717 34.74C55.2121 34.4979 52.6717 34.4279 51.7063 34.6058C48.6554 35.1863 46.5671 37.0967 45.9838 39.8442C45.8321 40.5675 45.8904 42.7229 46.0829 43.4433C46.3892 44.4729 46.9171 45.4208 47.6113 46.2054C48.81 47.4946 50.1692 48.3229 53.4067 49.7171C56.7958 51.19 57.9158 51.8754 58.6362 52.9079C59.2167 53.7508 59.4004 54.3662 59.4004 55.4454C59.4033 56.7288 58.8958 57.8225 58.0092 58.5721C56.1338 60.2579 52.5375 60.4913 49.86 59.0767C49.0521 58.6508 47.9233 57.6358 47.1679 56.685L46.395 57.1313L44.5312 58.2133ZM32.0596 65.1433H25.8821C25.4953 65.1433 25.1244 64.9897 24.8509 64.7162C24.5774 64.4427 24.4238 64.0718 24.4238 63.685V40.3342H17.1554C16.7686 40.3342 16.3977 40.1805 16.1242 39.907C15.8507 39.6335 15.6971 39.2626 15.6971 38.8758V36.1808C15.6971 33.2175 15.6971 32.745 16.2513 32.3192C16.2866 32.2864 16.3258 32.258 16.3679 32.2346L16.4204 32.1996L16.4233 32.2054C17.0883 31.8817 19.1067 31.8933 29.0175 31.9021L40.7454 31.9342C41.1287 31.9349 41.4962 32.0865 41.7686 32.3561C42.041 32.6258 42.1962 32.9918 42.2008 33.375L42.2533 38.8671C42.2549 39.0594 42.2183 39.2502 42.1456 39.4283C42.073 39.6064 41.9658 39.7684 41.8302 39.9048C41.6946 40.0412 41.5333 40.1494 41.3556 40.2231C41.1779 40.2968 40.9874 40.3346 40.795 40.3342H33.5179V63.685C33.5179 64.0718 33.3643 64.4427 33.0908 64.7162C32.8173 64.9897 32.4464 65.1433 32.0596 65.1433ZM27.3404 62.2267H30.6013V38.8758C30.6013 38.4891 30.7549 38.1181 31.0284 37.8446C31.3019 37.5711 31.6728 37.4175 32.0596 37.4175H39.3221L39.2987 34.845L29.0117 34.8158C25.5486 34.8028 22.0855 34.8096 18.6225 34.8363L18.6167 36.1808V37.4175H25.885C26.2718 37.4175 26.6427 37.5711 26.9162 37.8446C27.1897 38.1181 27.3433 38.4891 27.3433 38.8758V62.2267H27.3404Z" stroke="#CC00FF" stroke-width="2" mask="url(#path-1-outside-1_85_49)"/>
</svg>
