<svg width="67" height="50" viewBox="0 0 67 50" fill="none" xmlns="http://www.w3.org/2000/svg">
<path d="M7.29167 48.9219H59.7917C63.0833 48.9219 65.7604 46.2447 65.7604 42.9531V7.40625C65.7604 4.11464 63.0833 1.4375 59.7917 1.4375H7.29167C4.00006 1.4375 1.32292 4.11464 1.32292 7.40625V42.9531C1.32292 46.2447 4.00006 48.9219 7.29167 48.9219ZM4.51042 7.40625C4.51042 5.87278 5.7582 4.625 7.29167 4.625H59.7917C61.3251 4.625 62.5729 5.87278 62.5729 7.40625V42.9531C62.5729 44.4866 61.3251 45.7344 59.7917 45.7344H7.29167C5.7582 45.7344 4.51042 44.4866 4.51042 42.9531V7.40625Z" stroke="#CC00FF"/>
<path d="M2.66891 9.88172L2.66911 9.88184L31.3827 26.3889C32.0156 26.8308 32.769 27.0682 33.5413 27.0688H33.542C34.3144 27.0682 35.0677 26.8308 35.7006 26.3889L64.4142 9.88184L64.4204 9.87829L64.4265 9.87456C64.7802 9.65757 65.0354 9.3112 65.1378 8.90905C65.2402 8.5069 65.1818 8.08067 64.9749 7.72091C64.7681 7.36115 64.4291 7.09622 64.03 6.98242C63.631 6.86861 63.2032 6.91489 62.8378 7.11143L62.8315 7.11479L62.8254 7.11833L34.0439 23.6646L34.0314 23.6718L34.0193 23.6796L33.9165 23.7469L33.9046 23.7547L33.8932 23.7631C33.7913 23.8384 33.668 23.879 33.5414 23.879C33.4148 23.879 33.2915 23.8384 33.1896 23.7631L33.1666 23.7462L33.1418 23.7319L4.25807 7.11838L4.25807 7.11838L4.25718 7.11787C3.89075 6.90811 3.45613 6.8521 3.0485 6.96211C2.64086 7.07211 2.29343 7.33917 2.08228 7.7048L2.08228 7.7048L2.0817 7.7058C1.8712 8.07225 1.8148 8.50729 1.92491 8.9153C2.03502 9.32332 2.30262 9.67092 2.66891 9.88172Z" stroke="#CC00FF"/>
</svg>
