<svg width="60" height="60" viewBox="0 0 60 60" fill="none" xmlns="http://www.w3.org/2000/svg">
<path fill-rule="evenodd" clip-rule="evenodd" d="M30.5117 1.25002C16.4008 1.23566 4.36569 11.4654 2.10634 25.3942C-0.153002 39.3232 8.03149 52.8327 21.4235 57.2795C22.8706 57.5442 23.3823 56.6442 23.3823 55.8852C23.3823 55.1265 23.3823 53.397 23.3823 50.997C15.3529 52.7442 13.6588 47.1322 13.6588 47.1322C13.1261 45.393 11.9945 43.8987 10.4647 42.9147C7.87056 41.15 10.6765 41.15 10.6765 41.15C12.519 41.4102 14.1394 42.5035 15.0706 44.1147C15.8592 45.5447 17.1848 46.6015 18.7545 47.052C20.3241 47.5022 22.0085 47.309 23.4353 46.5147C23.546 45.063 24.1719 43.6985 25.2 42.6677C18.8117 41.9442 12.1059 39.4735 12.1059 28.55C12.062 25.6965 13.1172 22.9353 15.0529 20.8382C14.1908 18.3571 14.2915 15.6427 15.3353 13.2324C15.3353 13.2324 17.7529 12.4559 23.2412 16.1794C27.954 14.8855 32.9282 14.8855 37.6412 16.1794C43.1295 12.4559 45.5295 13.2324 45.5295 13.2324C46.5877 15.6172 46.7135 18.3121 45.8822 20.7853C47.818 22.8823 48.8732 25.6435 48.8295 28.497C48.8295 39.5442 42.106 41.9617 35.7 42.6147C37.0897 44.0117 37.8045 45.9435 37.6587 47.9087C37.6587 51.756 37.6587 54.8617 37.6587 55.797C37.6587 56.7322 38.1705 57.456 39.6352 57.1735C52.8682 52.6117 60.8922 39.182 58.6385 25.3672C56.3847 11.5527 44.5085 1.36947 30.5117 1.25002Z" fill="#758CA3"/>
</svg>
