<svg width="63" height="64" viewBox="0 0 63 64" fill="none" xmlns="http://www.w3.org/2000/svg">
<path d="M46.1833 1.375H16.9C8.07265 1.375 0.916666 8.53098 0.916666 17.3583V46.6417C0.916666 55.469 8.07265 62.625 16.9 62.625H46.1833C55.0107 62.625 62.1667 55.469 62.1667 46.6417V17.3583C62.1667 8.53098 55.0107 1.375 46.1833 1.375Z" stroke="#CC00FF" stroke-linecap="round" stroke-linejoin="round"/>
<path d="M31.5417 48.0416C40.4012 48.0416 47.5833 40.8595 47.5833 31.9999C47.5833 23.1404 40.4012 15.9583 31.5417 15.9583C22.6821 15.9583 15.5 23.1404 15.5 31.9999C15.5 40.8595 22.6821 48.0416 31.5417 48.0416Z" stroke="#CC00FF" stroke-linecap="round" stroke-linejoin="round"/>
<path d="M49.0417 13.0417C49.8471 13.0417 50.5 12.3887 50.5 11.5833C50.5 10.7779 49.8471 10.125 49.0417 10.125C48.2363 10.125 47.5833 10.7779 47.5833 11.5833C47.5833 12.3887 48.2363 13.0417 49.0417 13.0417Z" stroke="#CC00FF" stroke-linecap="round" stroke-linejoin="round"/>
</svg>
