<svg width="60" height="60" viewBox="0 0 60 60" fill="none" xmlns="http://www.w3.org/2000/svg">
<g clip-path="url(#clip0_405_26)">
<path fill-rule="evenodd" clip-rule="evenodd" d="M60 57.2727H46.7392V38.0978C46.7392 33.0788 44.6649 29.6525 40.1035 29.6525C36.6146 29.6525 34.6742 31.9647 33.7711 34.193C33.4325 34.9928 33.4854 36.107 33.4854 37.2212V57.2727H20.3481C20.3481 57.2727 20.5174 23.3063 20.3481 20.2187H33.4854V26.0341C34.2615 23.4914 38.4595 19.8625 45.1587 19.8625C53.4701 19.8625 60 25.1923 60 36.6693V57.2727ZM7.06254 15.5839H6.9779C2.7446 15.5839 0 12.7513 0 9.16083C0 5.50048 2.82573 2.72729 7.14369 2.72729C11.4581 2.72729 14.111 5.49353 14.1957 9.15039C14.1957 12.7409 11.4581 15.5839 7.06254 15.5839ZM1.51337 20.2187H13.2079V57.2727H1.51337V20.2187Z" fill="#007EBB"/>
</g>
<defs>
<clipPath id="clip0_405_26">
<rect width="60" height="60" fill="white"/>
</clipPath>
</defs>
</svg>
