<svg width="60" height="60" viewBox="0 0 60 60" fill="none" xmlns="http://www.w3.org/2000/svg">
<path d="M30.0527 46.0035H38.4666C38.7439 46.0035 38.9177 46.2321 38.7808 46.4176L34.5686 52.1464L30.0527 58.2893L25.5368 52.1464L21.3246 46.4176C21.1894 46.2321 21.3632 46.0035 21.6387 46.0035H30.0527V46.0035Z" fill="white"/>
<path d="M20.3627 8.78395V45.2148C20.3627 45.404 20.2539 45.4998 20.1907 45.3659L2.81171 8.57141H20.2627C20.3171 8.57141 20.3627 8.66724 20.3627 8.78395Z" fill="white"/>
<path d="M39.6373 45.0538V8.9449C39.6373 8.7385 39.7162 8.57141 39.8128 8.57141H57.1883L39.9374 45.318C39.8268 45.5539 39.6373 45.3868 39.6373 45.0538Z" fill="white"/>
<path d="M38.6 45.4286H21.4C21.3035 45.4286 21.2245 45.3733 21.2245 45.3057V8.69427C21.2245 8.6267 21.3035 8.57141 21.4 8.57141H38.6C38.6965 8.57141 38.7755 8.6267 38.7755 8.69427V45.3057C38.7755 45.3733 38.6965 45.4286 38.6 45.4286Z" fill="white"/>
<path d="M38.8282 0.78722V7.70408C38.8282 7.84168 38.7492 7.95225 38.6527 7.95225H21.2772L38.6404 0.58942C38.7334 0.550105 38.8282 0.648391 38.8282 0.78722Z" fill="white"/>
</svg>
